<svg id="Layer_1" data-name="Layer 1" xmlns="http://www.w3.org/2000/svg" viewBox="0 0 402 146"><defs><style>.cls-1{fill:#fff;fill-rule:evenodd;}</style></defs><path class="cls-1" d="M84.92,43.26c.48.16,1,.16,1.61.32a.71.71,0,0,1,.65.65c.16.65.48,1.29.64,2.1.16.32,0,.65-.32.48-.48-.16-1-.16-1.45-.32-.33,0-.49-.32-.65-.64-.16-.65-.48-1.46-.64-2.1-.17-.33,0-.65.16-.49"/><path class="cls-1" d="M86.69,39.87c.49.16,1.13.32,1.62.49.32,0,.64.48.64.8.16.49.49,1.13.65,1.78.16.32,0,.48-.32.48a4.86,4.86,0,0,0-1.62-.32.74.74,0,0,1-.64-.81c-.17-.64-.49-1.29-.65-2.1-.16-.16,0-.48.32-.32"/><path class="cls-1" d="M89.76,40.68c.48.16,1.13.32,1.62.48A1.08,1.08,0,0,1,92,42c.32.65.49,1.29.81,1.94.16.32,0,.48-.32.48-.49-.16-1.13-.32-1.62-.48-.32,0-.65-.49-.65-.81-.16-.65-.48-1.29-.64-1.94-.16-.32,0-.48.16-.48"/><path class="cls-1" d="M99.45,44.23a7.6,7.6,0,0,1,1.61.81,1.05,1.05,0,0,1,.65.81,7.87,7.87,0,0,0,.64,1.77c.17.32,0,.49-.32.32a6.75,6.75,0,0,0-1.61-.64,1.07,1.07,0,0,1-.65-.81,7.45,7.45,0,0,0-.65-1.77c0-.49.17-.49.33-.49"/><path class="cls-1" d="M88,43.91c.49.16,1,.16,1.62.32a.74.74,0,0,1,.64.81c.17.64.49,1.29.65,1.94.16.32,0,.48-.32.48a4.79,4.79,0,0,0-1.46-.32c-.32,0-.48-.33-.64-.65-.16-.64-.49-1.29-.65-2.1-.16-.32,0-.64.16-.48"/><path class="cls-1" d="M91.05,44.72c.49.16,1.13.32,1.62.48a.69.69,0,0,1,.64.65c.16.64.49,1.29.65,1.93.16.33,0,.49-.32.49A5.84,5.84,0,0,0,92,47.94a.69.69,0,0,1-.64-.64c-.17-.65-.49-1.29-.65-1.94,0-.64.16-.81.32-.64"/><path class="cls-1" d="M94.28,45.52c.49.16,1.13.33,1.62.49a1.06,1.06,0,0,1,.64.8c.16.65.49,1.3.65,1.78.16.32,0,.48-.33.32-.48-.16-1.13-.32-1.61-.48a.7.7,0,0,1-.65-.65c-.16-.64-.48-1.29-.64-1.93-.16-.17,0-.33.32-.33"/><path class="cls-1" d="M97.51,46.65a6.8,6.8,0,0,1,1.61.65,1.05,1.05,0,0,1,.65.81,7.45,7.45,0,0,0,.65,1.77c.16.32,0,.49-.33.32a6.75,6.75,0,0,1-1.61-.64,1.09,1.09,0,0,1-.65-.81c-.16-.64-.48-1.29-.64-1.77-.16-.33,0-.49.32-.33"/><path class="cls-1" d="M100.74,47.94c.48.17,1.13.49,1.61.65a1.05,1.05,0,0,1,.65.81,7.45,7.45,0,0,0,.65,1.77c.16.33,0,.49-.33.33a6.4,6.4,0,0,0-1.61-.65,1.07,1.07,0,0,1-.65-.81,7.87,7.87,0,0,0-.64-1.77c-.17-.33,0-.49.32-.33"/><path class="cls-1" d="M95.57,49.4c.49.16,1.13.32,1.62.48.32.16.64.49.64.65.16.64.49,1.29.65,1.77s0,.49-.32.49c-.49-.16-1.13-.33-1.62-.49a.69.69,0,0,1-.64-.64c-.17-.65-.49-1.29-.65-1.94-.16-.32,0-.48.32-.32"/><path class="cls-1" d="M98.64,50.37a6.75,6.75,0,0,1,1.61.64,1.07,1.07,0,0,1,.65.81c.16.64.49,1.13.65,1.77.16.33,0,.49-.33.33-.48-.16-1.13-.33-1.61-.49-.32-.16-.65-.48-.65-.64-.16-.65-.48-1.29-.64-1.78,0-.64.16-.81.32-.64"/><path class="cls-1" d="M93.8,52.46c.48.17,1,.17,1.61.33a.7.7,0,0,1,.65.64c.16.65.48,1.3.64,1.94.16.32,0,.49-.32.49-.48-.17-1-.17-1.45-.33-.33,0-.49-.32-.65-.64-.16-.65-.48-1.3-.64-1.94-.33-.32-.17-.49.16-.49"/><path class="cls-1" d="M96.86,53.11c.49.16,1.13.32,1.62.48a.7.7,0,0,1,.64.65c.17.65.49,1.29.65,1.78.16.32,0,.48-.32.48a5.82,5.82,0,0,0-1.62-.32.69.69,0,0,1-.64-.65c-.16-.64-.49-1.29-.65-1.94-.16-.32,0-.48.32-.48"/><path class="cls-1" d="M99.93,54.08c.49.16,1.13.32,1.62.48a1.09,1.09,0,0,1,.64.81c.16.65.49,1.13.65,1.78.16.32,0,.48-.32.32-.49-.16-1.13-.32-1.62-.48-.32-.17-.65-.33-.65-.65-.16-.65-.48-1.29-.64-1.78,0-.48,0-.64.32-.48"/><path class="cls-1" d="M103.16,55.21c.49.16,1.13.48,1.62.65a1.06,1.06,0,0,1,.64.8,7.52,7.52,0,0,0,.65,1.78c.16.32,0,.48-.33.32s-1.13-.48-1.61-.64c-.32-.17-.65-.49-.65-.81a8,8,0,0,0-.64-1.78c-.16-.32,0-.48.32-.32"/><path class="cls-1" d="M103.16,46c.65.32,1.13.64,1.78,1,.32.16.64.64.8.8a8.52,8.52,0,0,0,.65,1.78c.16.32,0,.32-.32.16a10.54,10.54,0,0,1-1.94-1,1.07,1.07,0,0,1-.65-.81,7.87,7.87,0,0,0-.64-1.77c-.16-.16,0-.32.32-.16"/><path class="cls-1" d="M104.29,49.56a9.36,9.36,0,0,0,1.78.81c.32.16.64.64.8.8a8.52,8.52,0,0,0,.65,1.78c.16.32,0,.32-.32.16a8.78,8.78,0,0,0-1.78-.81,1.06,1.06,0,0,1-.64-.8,3.75,3.75,0,0,1-.81-1.62c-.16-.32,0-.48.32-.32"/><path class="cls-1" d="M105.42,53.11c.65.32,1.13.48,1.78.81a1.9,1.9,0,0,1,.8.81,8.44,8.44,0,0,0,.65,1.77c.16.32,0,.32-.32.16a8.72,8.72,0,0,0-1.78-.8,1.09,1.09,0,0,1-.64-.81,8.52,8.52,0,0,0-.65-1.78c-.16-.16,0-.32.16-.16"/><path class="cls-1" d="M106.71,56.66c.65.33,1.13.49,1.78.81a2,2,0,0,1,.81.81,7.87,7.87,0,0,0,.64,1.77c.16.33,0,.33-.32.16-.65-.32-1.13-.48-1.78-.8a1.08,1.08,0,0,1-.64-.81,8,8,0,0,0-.65-1.78c-.32-.16-.16-.32.16-.16"/><path class="cls-1" d="M106.55,47.94a19.13,19.13,0,0,1,1.78,1.13,2.45,2.45,0,0,1,.8,1,8.52,8.52,0,0,0,.65,1.78c.16.32,0,.32-.32.16-.65-.48-1.29-.81-1.78-1.13-.32-.16-.64-.65-.81-.81a7.87,7.87,0,0,0-.64-1.77c-.16-.49,0-.49.32-.33"/><path class="cls-1" d="M110.26,50.37c.65.48,1.3,1.13,1.94,1.61.33.32.65.81.81,1a11.74,11.74,0,0,0,.65,1.78c.16.32-.17.32-.49,0-.64-.49-1.29-1.14-1.94-1.62a4.28,4.28,0,0,1-.8-1,8.44,8.44,0,0,0-.65-1.77c0-.17.16-.33.48,0"/><path class="cls-1" d="M114.3,53.92A26.58,26.58,0,0,1,116.88,57c.49.64,4.52,12.75,4.52,12.75s-3.39-9.69-3.71-10.17c-.81-1.13-1.77-2.1-2.42-2.91a4.76,4.76,0,0,1-.81-1.13c-.16-.48-.32-1.13-.48-1.61-.32-.49,0-.33.32,0"/><path class="cls-1" d="M111.39,53.76a16.37,16.37,0,0,1,1.94,1.61c.33.32.65.81.81,1a7.52,7.52,0,0,0,.65,1.78c.16.32-.17.32-.49,0-.64-.49-1.29-1.13-1.94-1.62a2.32,2.32,0,0,1-.8-1,8.44,8.44,0,0,0-.65-1.77q0-.25.48,0"/><path class="cls-1" d="M115.43,57.31a22.35,22.35,0,0,1,2.42,2.9c.49.49,3.55,9.53,3.55,9.53s-2.26-6.62-2.74-7.1a19.16,19.16,0,0,0-2.42-2.59,4.76,4.76,0,0,1-.81-1.13c-.16-.64-.32-1.13-.48-1.61s.16-.32.48,0"/><path class="cls-1" d="M109,54.89c.65.32,1.13.8,1.78,1.13a2.42,2.42,0,0,1,.81,1,7.87,7.87,0,0,0,.64,1.77c.16.32,0,.32-.32.16a15.72,15.72,0,0,1-1.78-1.13,1.06,1.06,0,0,1-.64-.8,8,8,0,0,0-.65-1.78c-.32-.32-.16-.48.16-.32"/><path class="cls-1" d="M112.53,57.31a17.15,17.15,0,0,1,1.93,1.61c.33.33.65.81.81,1a7.52,7.52,0,0,0,.65,1.78c.16.32-.17.32-.49,0l-1.94-1.46a2.35,2.35,0,0,1-.8-1,8,8,0,0,0-.65-1.78c0-.32.16-.48.49-.16"/><path class="cls-1" d="M116.56,60.7A17.9,17.9,0,0,1,119,63.28c.49.49,2.59,6.46,2.59,6.46a25.41,25.41,0,0,0-1.78-3.87c-.81-1-1.61-1.78-2.26-2.43a4.76,4.76,0,0,1-.81-1.13c-.16-.48-.32-1.13-.48-1.61-.32-.49,0-.32.32,0"/><path class="cls-1" d="M110.1,58.44c.65.32,1.13.81,1.78,1.13a2.34,2.34,0,0,1,.81,1,7.87,7.87,0,0,0,.64,1.77c.16.33,0,.33-.32.16a15.72,15.72,0,0,1-1.78-1.13,1.06,1.06,0,0,1-.64-.8,8,8,0,0,0-.65-1.78c-.32-.32-.16-.48.16-.32"/><path class="cls-1" d="M113.82,60.86l1.93,1.45c.33.33.65.81.81,1a7.52,7.52,0,0,0,.65,1.78c.16.32-.16.32-.49,0l-1.93-1.46a2.3,2.3,0,0,1-.81-1,7.52,7.52,0,0,0-.65-1.78c-.16-.16.16-.32.49,0"/><path class="cls-1" d="M117.69,63.93A16.22,16.22,0,0,1,120,66.35c.32.48,1.45,3.23,1.45,3.23a5.55,5.55,0,0,1-.64-.81,30.1,30.1,0,0,0-2.26-2.26c-.32-.32-.65-.81-.81-1-.16-.48-.32-1.13-.48-1.61s.16-.33.48,0"/><path class="cls-1" d="M113.33,106.07c.49-.49,1-.81,1.46-1.3a.49.49,0,0,0,0-.64,9.27,9.27,0,0,0-1.3-1.29c-.16-.16-.32-.16-.64,0a9.59,9.59,0,0,1-1.46,1.13.3.3,0,0,0,0,.48c.49.49.81,1,1.3,1.45.32.33.48.33.64.17M109,96.22c.49-.49,1-.81,1.46-1.29a.5.5,0,0,0,0-.65c-.33-.48-.81-.81-1.13-1.29a.31.31,0,0,0-.49,0c-.48.32-1,.81-1.45,1.13a.3.3,0,0,0,0,.48,9.23,9.23,0,0,0,1.29,1.29C108.65,96.38,108.81,96.38,109,96.22Zm2.59-2.42a9.34,9.34,0,0,1,1.29-1.3.49.49,0,0,0,0-.64c-.32-.49-.81-.81-1.13-1.29a.31.31,0,0,0-.49,0l-1.29,1.29a.3.3,0,0,0,0,.48c.32.49.81.81,1.13,1.29C111.23,94,111.39,94,111.56,93.8ZM114,91.21a8.94,8.94,0,0,0,1.13-1.45.5.5,0,0,0,0-.65A8,8,0,0,0,114,88a.31.31,0,0,0-.49,0c-.48.49-.8,1-1.29,1.46a.49.49,0,0,0,0,.64c.33.49.81.81,1.13,1.29C113.66,91.54,113.82,91.37,114,91.21Zm2.26-2.74c.32-.49.64-1,1.13-1.62a.49.49,0,0,0,0-.64,7.09,7.09,0,0,1-1-1.13c-.16-.16-.32-.16-.48.16-.33.48-.81,1-1.13,1.45a.48.48,0,0,0,0,.65,7.08,7.08,0,0,0,1.13,1.13C115.75,88.79,116.08,88.79,116.24,88.47Zm1.94-2.91a17.68,17.68,0,0,0,1-1.77.48.48,0,0,0,0-.65,4.28,4.28,0,0,1-.8-1c-.16-.16-.33,0-.49.16A9.34,9.34,0,0,1,116.72,84a.49.49,0,0,0,0,.64,7,7,0,0,1,1,1.13C117.85,85.89,118,85.72,118.18,85.56ZM120,82.33c.32-.64.49-1.29.81-1.93.16-.17,0-.49,0-.65l-.81-.81c-.16-.16-.16,0-.32.16-.32.65-.65,1.13-1,1.78a.5.5,0,0,0,0,.65,4.31,4.31,0,0,1,.81,1C119.63,82.66,119.79,82.49,120,82.33Zm1.29-3.71c.16-.65.33-1.45.49-2.26v-.65l-.49-.48a.56.56,0,0,0-.16.32c-.16.65-.48,1.29-.64,1.94a.48.48,0,0,0,0,.65c.16.32.48.48.64.8C121.08,78.94,121.24,78.94,121.24,78.62Zm-7.42,17.6c.48-.49.8-1,1.29-1.46a.49.49,0,0,0,0-.64c-.32-.49-.81-.81-1.13-1.29a.31.31,0,0,0-.49,0,9.23,9.23,0,0,1-1.29,1.29.49.49,0,0,0,0,.64c.33.49.81.81,1.13,1.3C113.49,96.38,113.66,96.38,113.82,96.22Zm2.26-2.59c.32-.48.8-1,1.13-1.45a.49.49,0,0,0,0-.64l-1.13-1.13a.3.3,0,0,0-.49,0c-.32.48-.8,1-1.13,1.45a.49.49,0,0,0,0,.64c.33.49.81.81,1.13,1.3A.59.59,0,0,0,116.08,93.63Zm2.1-2.9c.32-.49.64-1.13,1-1.62a.47.47,0,0,0,0-.64,7.07,7.07,0,0,1-1-1.13c-.17-.16-.33,0-.49.16a9.28,9.28,0,0,1-1.13,1.61.5.5,0,0,0,0,.65,7.52,7.52,0,0,0,1.13,1.13A.62.62,0,0,0,118.18,90.73ZM120,87.5a8.78,8.78,0,0,0,.81-1.78.49.49,0,0,0,0-.64,4.58,4.58,0,0,1-.81-1c-.16-.16-.32,0-.32.16-.32.65-.65,1.13-1,1.78a.49.49,0,0,0,0,.64,7.56,7.56,0,0,1,1,1.13ZM121.4,84c.17-.65.49-1.29.65-2.1V81.2l-.81-.8c-.16-.17-.16,0-.32.32a9.65,9.65,0,0,1-.81,1.94.49.49,0,0,0,0,.64,4.09,4.09,0,0,1,.81,1C121.24,84.27,121.4,84.27,121.4,84Zm1.14-4a12.31,12.31,0,0,0,.16-2.42c0-.32,0-.65-.16-.65l-.49-.48a.7.7,0,0,0-.16.48c-.16.81-.32,1.62-.49,2.26v.65c.17.32.49.48.65.81C122.37,80.4,122.37,80.23,122.54,79.91Zm-8.88,21.31A9.81,9.81,0,0,0,115,99.93a.49.49,0,0,0,0-.64c-.33-.49-.81-.81-1.13-1.3a.31.31,0,0,0-.49,0,9.84,9.84,0,0,0-1.29,1.3.3.3,0,0,0,0,.48,10.45,10.45,0,0,0,1.29,1.29C113.17,101.22,113.49,101.38,113.66,101.22Zm2.42-2.58c.32-.48.8-1,1.13-1.45a.5.5,0,0,0,0-.65c-.33-.48-.81-.81-1.13-1.29a.31.31,0,0,0-.49,0c-.48.48-.8,1-1.29,1.45a.5.5,0,0,0,0,.65c.32.48.81.81,1.13,1.29A.5.5,0,0,0,116.08,98.64Zm2.1-2.75a14.39,14.39,0,0,0,1.13-1.61.5.5,0,0,0,0-.65,8.59,8.59,0,0,0-1.13-1.13c-.17-.16-.33-.16-.49.17a13.19,13.19,0,0,0-1.13,1.61.5.5,0,0,0,0,.65c.32.48.81.8,1.13,1.29C117.85,96.06,118,96.06,118.18,95.89Zm1.93-3.06c.33-.65.65-1.13,1-1.78a.49.49,0,0,0,0-.64,8.19,8.19,0,0,1-1-1.13c-.16-.17-.32,0-.48.16a14.24,14.24,0,0,1-1,1.61.5.5,0,0,0,0,.65,8,8,0,0,0,1.13,1.13C119.79,93,120.11,93,120.11,92.83Zm1.62-3.39a9.18,9.18,0,0,0,.64-1.94v-.65a4.24,4.24,0,0,1-.8-1c-.17-.17-.33,0-.33.16-.32.64-.48,1.29-.8,1.93a.48.48,0,0,0,0,.65l1,1C121.57,89.76,121.73,89.6,121.73,89.44ZM123,85.56c.16-.81.32-1.45.48-2.26,0-.32,0-.64-.16-.64-.16-.33-.48-.49-.8-.81-.17-.16-.17,0-.33.32a8.07,8.07,0,0,1-.64,2.1v.65a4.07,4.07,0,0,1,.8,1C122.86,86.05,123,85.89,123,85.56Zm.65-4.36V78.46a6.81,6.81,0,0,0-.17-.81l-.48-.48a.7.7,0,0,0-.16.48c0,1-.16,1.78-.16,2.58,0,.33,0,.65.16.65.16.32.48.48.64.81C123.67,81.69,123.67,81.53,123.67,81.2Zm-7.75,22.44c.48-.48.8-1,1.29-1.45a.49.49,0,0,0,0-.64c-.33-.49-.81-.81-1.13-1.3a.31.31,0,0,0-.49,0,9.34,9.34,0,0,1-1.29,1.3.49.49,0,0,0,0,.64,9.8,9.8,0,0,0,1.29,1.29C115.59,103.81,115.75,103.81,115.92,103.64Zm2.42-2.58c.32-.48.8-1,1.13-1.45a.5.5,0,0,0,0-.65c-.33-.48-.81-.8-1.13-1.29a.31.31,0,0,0-.49,0c-.32.49-.8,1-1.13,1.45a.5.5,0,0,0,0,.65c.33.48.81.81,1.13,1.29C117.85,101.22,118.18,101.22,118.34,101.06Zm3.87-6.13c.33-.65.49-1.3.81-1.94.16-.16,0-.49,0-.65a6.67,6.67,0,0,1-1-1.13c-.16-.16-.32,0-.48.16a8.26,8.26,0,0,0-.81,1.78.5.5,0,0,0,0,.65,7.52,7.52,0,0,0,1.13,1.13C121.89,95.25,122.05,95.09,122.21,94.93Zm1.29-3.56c.17-.64.49-1.29.65-2.09v-.65a4.34,4.34,0,0,1-.81-1c-.16-.16-.32,0-.32.32-.16.65-.48,1.3-.65,1.94-.16.16,0,.49,0,.65a6.25,6.25,0,0,1,1,1.13A.56.56,0,0,0,123.5,91.37Zm1.13-4c.17-.81.17-1.62.33-2.42a1.22,1.22,0,0,0-.16-.81L124,83.3c-.16-.16-.16,0-.16.32-.16.81-.33,1.62-.49,2.27,0,.32,0,.64.16.64a4.09,4.09,0,0,1,.81,1C124.47,87.82,124.47,87.66,124.63,87.34Zm.33-4.68a20.91,20.91,0,0,0-.33-3.07,2,2,0,0,0-.16-.81L124,78.3v.48a17.75,17.75,0,0,1,.16,2.91,1.2,1.2,0,0,0,.16.8c.16.33.49.49.65.81Zm-1-6.3a43.19,43.19,0,0,0-1.94-4.84,7.43,7.43,0,0,0-.65-1.3v.65a13.09,13.09,0,0,1-.16,2.58v.65l.49.48a.7.7,0,0,0,.16-.48,22.26,22.26,0,0,0-.32-3.07,2.68,2.68,0,0,1-.17-.81,1.92,1.92,0,0,1,.17.81,26.36,26.36,0,0,1,.48,3.23c0,.32,0,.65.16.65l.49.48v-.65a19.6,19.6,0,0,0-.81-3.71l-.32-1,.32,1a26.13,26.13,0,0,1,1,3.71,6.75,6.75,0,0,0,.16.81l.48.49v-.65a29.34,29.34,0,0,0-1.29-4.2,9.19,9.19,0,0,1-.48-1.13,4.13,4.13,0,0,1,.48,1.13,35.35,35.35,0,0,1,1.46,4.36c.16.49.16.81.32.81l.48.48C124.15,77.17,124.15,76.84,124,76.36ZM108.65,100.9c.48-.32,1-.81,1.45-1.13a.3.3,0,0,0,0-.48,9.34,9.34,0,0,0-1.29-1.3.49.49,0,0,0-.64,0c-.49.33-1,.81-1.46,1.13a.31.31,0,0,0,0,.49c.49.48.81,1,1.29,1.45C108.17,100.9,108.49,101.06,108.65,100.9Z"/><path class="cls-1" d="M137.87,77.49,155,60.54H140.46l-9.85,9.68-9.85-9.68h-2.1a14.27,14.27,0,0,0,.81,1.77,105,105,0,0,1,3.23,10.82q4.85,5.57,4.36,15l3.39-3.4,10.49,10.5h14.53L139.16,78.78l-1.29-1.29"/><path class="cls-1" d="M354.38,95.09H340.17l-7.75-9.2H316v9.2H305.3V77.49h30a8.43,8.43,0,0,0,4.19-1,3.21,3.21,0,0,0,1.78-2.91,3.3,3.3,0,0,0-1.61-3.06,7.91,7.91,0,0,0-4.36-1h-30l6.94-9h22.12a41.15,41.15,0,0,1,6.13.48A15.5,15.5,0,0,1,346.14,63a13.39,13.39,0,0,1,4.2,3.71A9.91,9.91,0,0,1,352,72.81a10.93,10.93,0,0,1-.65,3.87,12.45,12.45,0,0,1-1.78,3.23,10.32,10.32,0,0,1-2.9,2.42,14.85,14.85,0,0,1-3.72,1.46,9.19,9.19,0,0,1,1.94,1.77l2.91,2.91,6.62,6.62m-92.84,0L268,86.21H280a15.9,15.9,0,0,1,2.91.16c-.49-.65-1-1.45-1.62-2.42s-1.29-1.78-1.78-2.59l-6.13-9.2L257.18,95.09H244.59l22.12-31.16a11.15,11.15,0,0,1,2.74-2.75,6.88,6.88,0,0,1,4.2-1.13,6.66,6.66,0,0,1,4,1.13,11,11,0,0,1,2.74,2.75l21.48,31.16Zm-18.08-8.72-6.94,8.88H206V60.7h10.66V86.37Zm-41,0-6.78,8.88H162.41V60.7h39.88l-6.94,9H173.07v4.2h27.28l-6.13,7.91H173.07v4.68h29.38ZM64.9,95.09l6.46-8.88H83.14a15.9,15.9,0,0,1,2.91.16c-.49-.65-1-1.45-1.62-2.42s-1.29-1.78-1.77-2.59l-6.14-9.2L60.38,95.09H47.62L69.74,63.93a11.2,11.2,0,0,1,2.75-2.75,6.83,6.83,0,0,1,4.19-1.13,6.66,6.66,0,0,1,4,1.13,11,11,0,0,1,2.74,2.75l21.48,31.16Z"/></svg>