<svg id="Layer_1" data-name="Layer 1" xmlns="http://www.w3.org/2000/svg" viewBox="0 0 402 146"><defs><style>.cls-1{fill:#fff;}</style></defs><g id="Layer_2" data-name="Layer 2"><g id="Layer_1-2" data-name="Layer 1-2"><path class="cls-1" d="M75.62,46.46H97.87c12.09,0,20.55,5.42,20.55,15.82a14.74,14.74,0,0,1-7,12.85v.17c6.93,2.12,9.47,8.3,9.47,13.62,0,13.2-11,18-23,18H75.62ZM98,69.89c3.72,0,5.32-2.71,5.32-5.58s-1.6-5.16-5.58-5.16H90.42V69.89ZM99.3,94.25a6,6,0,0,0,6.43-6.34c0-3.38-2-6.18-6.34-6.18h-9V94.25Z"/><path class="cls-1" d="M128,46.46h39V59.15H142.78v11h24.27V82.83H142.78V94.25h24.27v12.69H128Z"/><path class="cls-1" d="M175.57,46.46h15l16.74,28.25A108.88,108.88,0,0,1,212.36,85h.17s-.68-6.51-.68-10.32V46.46h14.8v60.48H211.77L194.94,78.77a107.64,107.64,0,0,1-5.08-10.32h-.17s.68,6.52.68,10.32v28.17h-14.8Z"/><path class="cls-1" d="M311.58,46.46h14.8v60.48h-14.8Z"/><path id="Path_7213" data-name="Path 7213" class="cls-1" d="M269.18,93.29h-.07a20.27,20.27,0,1,1-.5-40.54h.48a20.24,20.24,0,0,1,19.23,26.68l9.11,12.24a33.93,33.93,0,1,0-18.94,13.93c-.35-.37-9.31-12.32-9.31-12.32"/><path id="Path_7215" data-name="Path 7215" class="cls-1" d="M285.19,82.76h0l-.41-.56c-.1-.13-.24-.28-.38-.45a12.64,12.64,0,0,0-1-1l-.51-.45-.28-.23-.29-.22c-.2-.15-.42-.31-.65-.46a15.88,15.88,0,0,0-9-2.62h-8.88s14.6,19.54,18.2,24.45a11.51,11.51,0,0,0,1.37,1.58l.2.19c.17.15.34.28.52.45l.28.23.28.22c.21.16.43.31.66.46a16.22,16.22,0,0,0,9,2.62h8.87Z"/></g></g></svg>