<svg id="Layer_1" data-name="Layer 1" xmlns="http://www.w3.org/2000/svg" viewBox="0 0 402 146"><defs><style>.cls-1{fill:#fff;}</style></defs><path class="cls-1" d="M66.36,91.84H53.62V44h9.82c7.11,0,10.11.54,12.94,2.35a12,12,0,0,1,5.43,10.43c0,4.48-1.48,7-5.3,9,6.08,2.51,8.17,6.16,8.17,11.83C84.68,86.33,78.68,91.84,66.36,91.84Zm-.25-39.16H62.5v9.78h2.83C70.71,62.46,73,61,73,57.53,73,54.24,70.71,52.68,66.11,52.68Zm.58,18.45H62.5V83.37h4.39c6.21,0,8.88-1.8,8.88-6S72.85,71.13,66.69,71.13Z"/><path class="cls-1" d="M88.09,91.84V56h8.63V91.84Zm.09-41.05V42.16H96.8v8.63Z"/><path class="cls-1" d="M119.61,92.7a18.91,18.91,0,0,1-19.15-18.78,19,19,0,0,1,37-6h-9.7A8.75,8.75,0,0,0,119.4,63c-6,0-10.23,4.52-10.23,10.8s4.48,10.93,10.44,10.93c3.57,0,6-1.44,8.17-4.72h9.7C134.44,88.1,128,92.7,119.61,92.7Z"/><path class="cls-1" d="M158.93,92.7A18.78,18.78,0,1,1,178,74.17C178,84.28,169.32,92.7,158.93,92.7Zm0-29.66A10.64,10.64,0,0,0,148.57,73.8c0,6.16,4.6,11,10.44,11a10.62,10.62,0,0,0,10.35-10.89C169.32,68,164.68,63,158.93,63Z"/><path class="cls-1" d="M204.66,91.84V74.29c0-9.57-2.59-11.25-6.86-11.25a7.19,7.19,0,0,0-6.33,3.28C190.36,68.09,190,70.14,190,75V91.84H181.4V56h8v3.45c3.17-3,6-4.27,10.11-4.27,5,0,8.87,1.81,11.22,5.17,1.93,2.8,2.58,5.88,2.58,12.29V91.84Z"/><path class="cls-1" d="M235.72,92.7a18.78,18.78,0,1,1,19.1-18.53C254.78,84.28,246.11,92.7,235.72,92.7Zm0-29.66A10.64,10.64,0,0,0,225.36,73.8c0,6.16,4.61,11,10.44,11a10.62,10.62,0,0,0,10.35-10.89C246.11,68,241.47,63,235.72,63Z"/><path class="cls-1" d="M303.39,91.84V72.16c0-7.19-2.71-9.12-6.74-9.12-4.81,0-7.23,2.59-7.23,11.13V91.84h-8.63V72.16c0-7.07-2.47-9.12-7-9.12-5,0-7,2.67-7,11.13V91.84h-8.63V56h7.89v3.37c2.51-3,5.1-4.19,9.33-4.19,4.93,0,8.09,1.68,10.56,5.59,2.91-3.91,6.49-5.59,11.5-5.59,9.45,0,14.5,5.26,14.5,16V91.84Z"/><path class="cls-1" d="M327.67,103.84h-9.24l6.73-15.33L312,56h9.82l8,23.26L338.48,56h9.9Z"/></svg>