<svg id="Layer_1" data-name="Layer 1" xmlns="http://www.w3.org/2000/svg" viewBox="0 0 402 146"><defs><style>.cls-1{fill:#fff;}</style></defs><path class="cls-1" d="M108.63,35.67c-2.3,0-4.6,0-6.9,0q-33.67,0-67.35,0c0,4.9.22,9.8.61,14.69a112.36,112.36,0,0,0,3.35,20.55,40.5,40.5,0,0,0,2.89,7.59,19.11,19.11,0,0,0,1.69,2.73H63.58A9.68,9.68,0,0,0,74,85.84a9.55,9.55,0,0,0,5.18-3,9.67,9.67,0,0,0,2.42-6.59,9.64,9.64,0,0,0-6.14-8.82,9.63,9.63,0,0,0-7.12,0,9.8,9.8,0,0,0-5,4.59C58.14,72,53,72,47.77,72A44.86,44.86,0,0,1,44.6,62c13.44.08,26.89.12,40.34.2,2.62,4.68,5.28,9.33,7.84,14a44,44,0,0,1-6.68,9.89,131.81,131.81,0,0,1-14,13.92c-.22.26-.53,0-.78-.07a18.7,18.7,0,0,1-2.64-1.89C64.83,94.91,61.26,91.43,57.73,88c-3.37,0-6.74-.07-10.11,0a65.11,65.11,0,0,0,7,8.14,119.11,119.11,0,0,0,10.86,9.59c2.09,1.61,4.19,3.25,6.43,4.65A81.43,81.43,0,0,0,87.77,96.46a114.67,114.67,0,0,0,9.13-11.6c1.91-2.79,3.74-5.65,5.37-8.63Q95.73,64.77,89.21,53.32H43.32c-.29-3-.4-6-.41-9,3.05-.07,6.09,0,9.14-.06q24.08,0,48.17.07c-.17,3.57-.36,7.14-.54,10.72,0,.45-.08.92-.05,1.38a8.26,8.26,0,0,0,.51.92l5.46,9.52a72.8,72.8,0,0,0,1.92-9.26A120.29,120.29,0,0,0,108.63,35.67ZM66.19,75.78a5.79,5.79,0,0,1,8.25-4.64,5.75,5.75,0,0,1,3,3.36,5.81,5.81,0,1,1-11.27,1.28Z"/><path class="cls-1" d="M108.63,35.67c-2.3,0-4.6,0-6.9,0q-33.67,0-67.35,0c0,4.9.22,9.8.61,14.69a112.36,112.36,0,0,0,3.35,20.55,40.5,40.5,0,0,0,2.89,7.59,19.11,19.11,0,0,0,1.69,2.73H63.58A9.68,9.68,0,0,0,74,85.84a9.55,9.55,0,0,0,5.18-3,9.67,9.67,0,0,0,2.42-6.59,9.64,9.64,0,0,0-6.14-8.82,9.63,9.63,0,0,0-7.12,0,9.8,9.8,0,0,0-5,4.59C58.14,72,53,72,47.77,72A44.86,44.86,0,0,1,44.6,62a76.77,76.77,0,0,1-1.28-8.67c-.29-3-.4-6-.41-9,3.05-.07,6.09,0,9.14-.06q24.08,0,48.17.07c-.17,3.57-.36,7.14-.54,10.72,0,.45-.08.92-.05,1.38a8.26,8.26,0,0,0,.51.92l5.46,9.52a72.8,72.8,0,0,0,1.92-9.26A120.29,120.29,0,0,0,108.63,35.67ZM66.19,75.78a5.79,5.79,0,0,1,8.25-4.64,5.75,5.75,0,0,1,3,3.36,5.81,5.81,0,1,1-11.27,1.28Z"/><path class="cls-1" d="M102.27,76.23c-1.63,3-3.46,5.84-5.37,8.63a114.67,114.67,0,0,1-9.13,11.6,81.43,81.43,0,0,1-15.89,13.87c-2.24-1.4-4.34-3-6.43-4.65a119.11,119.11,0,0,1-10.86-9.59,65.11,65.11,0,0,1-7-8.14c3.37-.07,6.74,0,10.11,0,3.53,3.48,7.1,7,10.91,10.14A18.7,18.7,0,0,0,71.28,100c.25.11.56.33.78.07a131.81,131.81,0,0,0,14-13.92,44,44,0,0,0,6.68-9.89c-2.56-4.72-5.22-9.37-7.84-14C71.49,62.11,58,62.07,44.6,62a76.77,76.77,0,0,1-1.28-8.67H89.21Q95.72,64.78,102.27,76.23Z"/><path class="cls-1" d="M145.64,68.12c-1.71-2.73-4.68-3.77-7.77-4-2.54-.27-4.76.52-7.09,1.38q.06-5.81,0-11.63h-7.26q0,18.94,0,37.88c4.9.46,10.13,1.18,15,.43,2.71-.43,5.62-1.6,7.07-4.06,1.74-2.86,2-6.74,2-10S147.33,71,145.64,68.12Zm-5.41,10.94c-.11,2-.32,4.87-2.13,6.07-2,1.28-5,.87-7.3.69,0-4.78-.06-9.58,0-14.35a7,7,0,0,1,2.55-.67c1.73-.19,3.78-.51,5.1.9C140.26,73.44,140.28,76.76,140.23,79.06Z"/><path class="cls-1" d="M153.05,61.29c0-2.46,0-4.92,0-7.38,2.43,0,4.86,0,7.29.05,0,2.44,0,4.89,0,7.34Z"/><path class="cls-1" d="M160.34,64.8q0,13.55,0,27.09c-2.43,0-4.85,0-7.28,0,0-9,0-18.08,0-27.12C155.47,64.76,157.9,64.73,160.34,64.8Z"/><path class="cls-1" d="M181.82,86c.12,1.94.24,3.88.31,5.82-2.68.51-5.2,1.06-7.95.62-1.67-.24-3.68-1-4.56-2.49-1.13-1.8-1.35-4.28-1.45-6.36-.07-4.18,0-8.37,0-12.56l-3.2,0c0-2.06,0-4.12,0-6.18,1.07,0,2.13,0,3.19,0,0-2.5,0-5,0-7.51,2.42-.05,4.86,0,7.29,0q0,3.78,0,7.56c2.22,0,4.44,0,6.67,0,0,2.06,0,4.12,0,6.18-2.23,0-4.45,0-6.68,0,0,4,0,8.08,0,12.12.1,1.09-.05,2.12,1,2.73C178.18,86.21,180.07,85.91,181.82,86Z"/><path class="cls-1" d="M207.14,82.64c.15,2.37-.18,5.06-1.84,6.89a9.86,9.86,0,0,1-6.42,2.88c-4.51.48-8.62-.39-13-1.12,0-2,.09-4.07.19-6.11a78,78,0,0,0,10.11.85c1.09-.07,2.52-.11,3.35-.92a1.71,1.71,0,0,0-.8-2.74c-3.49-1.23-7.5-.92-10.8-3.14A5.84,5.84,0,0,1,185.55,75a10.14,10.14,0,0,1,1.09-6.84,9.64,9.64,0,0,1,6.86-3.83c4.17-.58,8.76.47,12.88,1.16,0,2,0,4-.08,6-3.2-.31-6.48-.84-9.67-.83a9.44,9.44,0,0,0-3,.39,1.69,1.69,0,0,0-.05,3c3.27,1.25,7.6,1,10.79,3.09C206.29,78.31,207,80.5,207.14,82.64Z"/><path class="cls-1" d="M218.2,70.53a46.6,46.6,0,0,0,.58,10.69,7.69,7.69,0,0,0,2,4.19,8,8,0,0,0,5,1.68,68.18,68.18,0,0,0,10.49-.74c0,1.66.1,3.32.13,5a44.84,44.84,0,0,1-13.76,1,11.52,11.52,0,0,1-7-3.14c-2-2.24-2.82-5.41-3.28-8.3a56.69,56.69,0,0,1,0-15.23c.5-2.9,1.27-6.06,3.36-8.26s5-2.91,7.8-3.15a44.42,44.42,0,0,1,12.94,1.23c-.08,1.62-.15,3.23-.19,4.85-3.79-.37-8-1.12-11.87-.62a6,6,0,0,0-4.85,3.3C218.52,65.25,218.34,68.06,218.2,70.53Z"/><path class="cls-1" d="M257.28,64.19c0,2,0,3.93,0,5.9A38.56,38.56,0,0,0,248.08,73c0,6.3,0,12.61,0,18.91-2,0-4,0-5.93,0q0-13.55,0-27.1c2,0,3.94-.05,5.9,0,0,1.07,0,2.13,0,3.2A26.12,26.12,0,0,1,257.28,64.19Z"/><path class="cls-1" d="M284.06,64.77q.06,13.56,0,27.13h-5.84V90.29a22.48,22.48,0,0,1-4.67,1.88,13.37,13.37,0,0,1-6.5-.15,6,6,0,0,1-4-3.17c-1.26-2.68-1.47-6-1.55-8.9,0-5,0-10.11,0-15.17,2,0,3.94,0,5.92,0,0,5.2,0,10.4,0,15.6a15.47,15.47,0,0,0,.76,5.12,2.89,2.89,0,0,0,2,1.53c2.82.53,5.26-.2,7.89-1.1.17-7,0-14.12.06-21.17Z"/><path class="cls-1" d="M314,77.26c0,4.88,0,9.76,0,14.63-2,0-3.9,0-5.85,0,0-4.88,0-9.76,0-14.63a14.81,14.81,0,0,0-.83-5.7,3.07,3.07,0,0,0-2.13-1.88c-2.7-.67-5.46.12-8,1.13-.08,7,0,14.06,0,21.09-2,0-3.94,0-5.92,0,0-9,0-18.08,0-27.12,1.94,0,3.88,0,5.82,0,0,.56,0,1.12,0,1.68a14.46,14.46,0,0,1,9.43-2.15,7,7,0,0,1,5.67,3.26C313.75,70.38,314,74.1,314,77.26Z"/><path class="cls-1" d="M339,86.79c.09,1.57.14,3.14.18,4.72a41.21,41.21,0,0,1-9.77.95c-2.8-.21-5.55-1.09-7.29-3.43-1.54-2.16-2.1-5.14-2.31-7.73-.22-3.67-.19-7.71,1.05-11.21A8.08,8.08,0,0,1,325.71,65c4.12-1.59,9.2-.66,13.42.12,0,1.57-.08,3.14-.19,4.71-2.94-.2-6.19-.73-9.09-.14a4.17,4.17,0,0,0-3.28,2.46c-1.09,2.64-1,5.88-.79,8.68.24,2.22.57,4.76,2.92,5.71C331.71,87.83,335.78,86.86,339,86.79Z"/><path class="cls-1" d="M367.6,91.9h-5.89c-.08-5.63.1-11.27-.1-16.89-.23-2-.41-4.5-2.69-5.29-2.56-.72-5.68,0-8.15.88,0,7.09,0,14.19,0,21.28q-3,0-5.91,0V53.45c2,0,3.94,0,5.9,0,0,4.22,0,8.45,0,12.67C353.44,64.94,356,64,359,64.18c2.52.13,5.05.76,6.55,3,1.67,2.61,2,6.21,2,9.23C367.64,81.54,367.62,86.72,367.6,91.9Z"/><path class="cls-1" d="M367.6,91.9h-5.89c-.08-5.63.1-11.27-.1-16.89-.23-2-.41-4.5-2.69-5.29-2.56-.72-5.68,0-8.15.88,0,7.09,0,14.19,0,21.28q-3,0-5.91,0V53.45c2,0,3.94,0,5.9,0,0,4.22,0,8.45,0,12.67C353.44,64.94,356,64,359,64.18c2.52.13,5.05.76,6.55,3,1.67,2.61,2,6.21,2,9.23C367.64,81.54,367.62,86.72,367.6,91.9Z"/><path class="cls-1" d="M145.64,68.12c-1.71-2.73-4.68-3.77-7.77-4-2.54-.27-4.76.52-7.09,1.38q.06-5.81,0-11.63h-7.26q0,18.94,0,37.88c4.9.46,10.13,1.18,15,.43,2.71-.43,5.62-1.6,7.07-4.06,1.74-2.86,2-6.74,2-10S147.33,71,145.64,68.12Zm-5.41,10.94c-.11,2-.32,4.87-2.13,6.07-2,1.28-5,.87-7.3.69,0-4.78-.06-9.58,0-14.35a7,7,0,0,1,2.55-.67c1.73-.19,3.78-.51,5.1.9C140.26,73.44,140.28,76.76,140.23,79.06Z"/><path class="cls-1" d="M160.33,61.3h-7.28c0-2.46,0-4.92,0-7.38,2.43,0,4.86,0,7.29.05C160.32,56.4,160.35,58.85,160.33,61.3Z"/><path class="cls-1" d="M236.28,86.35c0,1.66.1,3.32.13,5a44.84,44.84,0,0,1-13.76,1,11.52,11.52,0,0,1-7-3.14c-2-2.24-2.82-5.41-3.28-8.3a56.69,56.69,0,0,1,0-15.23c.5-2.9,1.27-6.06,3.36-8.26s5-2.91,7.8-3.15a44.42,44.42,0,0,1,12.94,1.23c-.08,1.62-.15,3.23-.19,4.85-3.79-.37-8-1.12-11.87-.62a6,6,0,0,0-4.85,3.3c-1,2.28-1.23,5.09-1.37,7.56a46.6,46.6,0,0,0,.58,10.69,7.69,7.69,0,0,0,2,4.19,8,8,0,0,0,5,1.68A68.18,68.18,0,0,0,236.28,86.35Z"/><path class="cls-1" d="M182.13,91.77c-2.68.51-5.2,1.06-7.95.62-1.67-.24-3.68-1-4.56-2.49-1.13-1.8-1.35-4.28-1.45-6.36-.07-4.18,0-8.37,0-12.56l-3.2,0c0-2.06,0-4.12,0-6.18,1.07,0,2.13,0,3.19,0,0-2.5,0-5,0-7.51,2.42-.05,4.86,0,7.29,0q0,3.78,0,7.56c2.22,0,4.44,0,6.67,0,0,2.06,0,4.12,0,6.18-2.23,0-4.45,0-6.68,0,0,4,0,8.08,0,12.12.1,1.09-.05,2.12,1,2.73,1.7.38,3.59.08,5.34.12C181.94,87.89,182.06,89.83,182.13,91.77Z"/><path class="cls-1" d="M205.3,89.53a9.86,9.86,0,0,1-6.42,2.88c-4.51.48-8.62-.39-13-1.12,0-2,.09-4.07.19-6.11a78,78,0,0,0,10.11.85c1.09-.07,2.52-.11,3.35-.92a1.71,1.71,0,0,0-.8-2.74c-3.49-1.23-7.5-.92-10.8-3.14A5.84,5.84,0,0,1,185.55,75a10.14,10.14,0,0,1,1.09-6.84,9.64,9.64,0,0,1,6.86-3.83c4.17-.58,8.76.47,12.88,1.16,0,2,0,4-.08,6-3.2-.31-6.48-.84-9.67-.83a9.44,9.44,0,0,0-3,.39,1.69,1.69,0,0,0-.05,3c3.27,1.25,7.6,1,10.79,3.09,2,1.12,2.66,3.31,2.82,5.45C207.29,85,207,87.7,205.3,89.53Z"/><path class="cls-1" d="M257.27,70.09A38.56,38.56,0,0,0,248.08,73c0,6.3,0,12.61,0,18.91-2,0-4,0-5.93,0q0-13.55,0-27.1c2,0,3.94-.05,5.9,0,0,1.07,0,2.13,0,3.2a26.12,26.12,0,0,1,9.25-3.79C257.27,66.16,257.27,68.12,257.27,70.09Z"/><path class="cls-1" d="M314,91.89c-2,0-3.9,0-5.85,0,0-4.88,0-9.76,0-14.63a14.81,14.81,0,0,0-.83-5.7,3.07,3.07,0,0,0-2.13-1.88c-2.7-.67-5.46.12-8,1.13-.08,7,0,14.06,0,21.09-2,0-3.94,0-5.92,0,0-9,0-18.08,0-27.12,1.94,0,3.88,0,5.82,0,0,.56,0,1.12,0,1.68a14.46,14.46,0,0,1,9.43-2.15,7,7,0,0,1,5.67,3.26c1.55,2.83,1.75,6.55,1.78,9.71C314,82.14,314,87,314,91.89Z"/><path class="cls-1" d="M339.17,91.51a41.21,41.21,0,0,1-9.77.95c-2.8-.21-5.55-1.09-7.29-3.43-1.54-2.16-2.1-5.14-2.31-7.73-.22-3.67-.19-7.71,1.05-11.21A8.08,8.08,0,0,1,325.71,65c4.12-1.59,9.2-.66,13.42.12,0,1.57-.08,3.14-.19,4.71-2.94-.2-6.19-.73-9.09-.14a4.17,4.17,0,0,0-3.28,2.46c-1.09,2.64-1,5.88-.79,8.68.24,2.22.57,4.76,2.92,5.71,3,1.26,7.08.29,10.29.22C339.08,88.36,339.13,89.93,339.17,91.51Z"/><path class="cls-1" d="M160.34,64.8q0,13.55,0,27.09c-2.43,0-4.85,0-7.28,0,0-9,0-18.08,0-27.12C155.47,64.76,157.9,64.73,160.34,64.8Z"/><path class="cls-1" d="M284.06,91.9h-5.84V90.29a22.48,22.48,0,0,1-4.67,1.88,13.37,13.37,0,0,1-6.5-.15,6,6,0,0,1-4-3.17c-1.26-2.68-1.47-6-1.55-8.9,0-5,0-10.11,0-15.17,2,0,3.94,0,5.92,0,0,5.2,0,10.4,0,15.6a15.47,15.47,0,0,0,.76,5.12,2.89,2.89,0,0,0,2,1.53c2.82.53,5.26-.2,7.89-1.1.17-7,0-14.12.06-21.17h5.86Q284.12,78.33,284.06,91.9Z"/></svg>