<svg id="Layer_1" data-name="Layer 1" xmlns="http://www.w3.org/2000/svg" viewBox="0 0 402 146"><defs><style>.cls-1,.cls-2{fill:#fff;}.cls-2{isolation:isolate;opacity:0.5;}</style></defs><path class="cls-1" d="M220.7,53a3.46,3.46,0,0,0-3.34-.44A3.71,3.71,0,0,0,215,56.57a3.58,3.58,0,0,0,3.48,3A3.67,3.67,0,0,0,220.7,53Zm0,0a3.46,3.46,0,0,0-3.34-.44A3.71,3.71,0,0,0,215,56.57a3.58,3.58,0,0,0,3.48,3A3.67,3.67,0,0,0,220.7,53Zm0,0a3.46,3.46,0,0,0-3.34-.44A3.71,3.71,0,0,0,215,56.57a3.58,3.58,0,0,0,3.48,3A3.67,3.67,0,0,0,220.7,53Zm0,0a3.46,3.46,0,0,0-3.34-.44A3.71,3.71,0,0,0,215,56.57a3.58,3.58,0,0,0,3.48,3A3.67,3.67,0,0,0,220.7,53Zm0,0a3.46,3.46,0,0,0-3.34-.44A3.71,3.71,0,0,0,215,56.57a3.58,3.58,0,0,0,3.48,3A3.67,3.67,0,0,0,220.7,53Zm0,0a3.46,3.46,0,0,0-3.34-.44A3.71,3.71,0,0,0,215,56.57a3.58,3.58,0,0,0,3.48,3A3.67,3.67,0,0,0,220.7,53Zm0,0a3.46,3.46,0,0,0-3.34-.44A3.71,3.71,0,0,0,215,56.57a3.58,3.58,0,0,0,3.48,3A3.67,3.67,0,0,0,220.7,53Zm0,0a3.46,3.46,0,0,0-3.34-.44A3.71,3.71,0,0,0,215,56.57a3.58,3.58,0,0,0,3.48,3A3.67,3.67,0,0,0,220.7,53Zm32.78-.58a36,36,0,0,0-5.23-15.67,35.3,35.3,0,0,0-13.77-12.76A36.53,36.53,0,0,0,219.39,20H176.75a19.61,19.61,0,0,0-5.8.44,11.2,11.2,0,0,0-7.11,5.94,11.47,11.47,0,0,0,.44,11,11.21,11.21,0,0,0,7.54,5.22,14.86,14.86,0,0,0,3.62.14h12.91a3.79,3.79,0,0,0,2.47-1,3.13,3.13,0,0,0,.58-3.48,3.36,3.36,0,0,0-3.05-2H174A4.76,4.76,0,0,1,169.93,29,5,5,0,0,1,174,26.69h18a13.64,13.64,0,0,1,9.14,3.77,13.31,13.31,0,0,1,3.77,8.71,12.9,12.9,0,0,1-2.76,8.55,13.11,13.11,0,0,1-9.86,4.94H173.85a11.3,11.3,0,0,0-10.3,7.25A11.55,11.55,0,0,0,170.8,75a14.31,14.31,0,0,0,3.48.44h14.07a3.26,3.26,0,0,0,3.19-2.76,3.33,3.33,0,0,0-2-3.63,4.26,4.26,0,0,0-1.88-.29H174.14a4.48,4.48,0,0,1-2.76-.87,5,5,0,0,1-2.17-4.49A5.16,5.16,0,0,1,172,59.47a5.3,5.3,0,0,1,2.61-.43H192a12.35,12.35,0,0,1,7.69,2.61A13,13,0,0,1,203,78.91a13.12,13.12,0,0,1-10.73,6.23h-30.6a6.53,6.53,0,0,1-6.24-4.78,10.89,10.89,0,0,1-.29-3V24.52a4.92,4.92,0,0,0-.44-2.9,4.08,4.08,0,0,0-3.62-1.6,3.79,3.79,0,0,0-2.76,2.76V77.17a16.06,16.06,0,0,0,.58,5.22,13.45,13.45,0,0,0,9.29,9,22.2,22.2,0,0,0,6.23.44h53.67a35.78,35.78,0,0,0,13.48-2.62,36.22,36.22,0,0,0,15.09-11.74,34.22,34.22,0,0,0,6.67-16.25A35.84,35.84,0,0,0,253.48,52.37ZM202.71,56a4.75,4.75,0,0,1,.87-.72,19.46,19.46,0,0,0,7.69-12.91h6.09a13.39,13.39,0,0,1,10.44,5.22,13.77,13.77,0,0,1,2.76,10A12.68,12.68,0,0,1,227.8,64a13.1,13.1,0,0,1-10.29,5.22h-6.39A19.64,19.64,0,0,0,202.71,56Zm41.63,12.33a28.18,28.18,0,0,1-12.48,13.2,30.42,30.42,0,0,1-14.21,3.62H206.34A20,20,0,0,0,210.83,76h6.68a19.44,19.44,0,0,0,9-2.47A20.28,20.28,0,0,0,235.35,64a20.9,20.9,0,0,0,1.59-9.86,18.49,18.49,0,0,0-3.77-10.3,20.16,20.16,0,0,0-15.66-8H211a18.76,18.76,0,0,0-4.5-9.14,8,8,0,0,1,1.89-.14h10.44a28.94,28.94,0,0,1,9.86,2A29.29,29.29,0,0,1,240.42,37,29.71,29.71,0,0,1,247,51.93,30.26,30.26,0,0,1,244.34,68.32Zm-25.82-8.7A3.67,3.67,0,0,0,220.7,53a3.46,3.46,0,0,0-3.34-.44A3.71,3.71,0,0,0,215,56.57,3.58,3.58,0,0,0,218.52,59.62ZM220.7,53a3.46,3.46,0,0,0-3.34-.44A3.71,3.71,0,0,0,215,56.57a3.58,3.58,0,0,0,3.48,3A3.67,3.67,0,0,0,220.7,53Zm0,0a3.46,3.46,0,0,0-3.34-.44A3.71,3.71,0,0,0,215,56.57a3.58,3.58,0,0,0,3.48,3A3.67,3.67,0,0,0,220.7,53Zm0,0a3.46,3.46,0,0,0-3.34-.44A3.71,3.71,0,0,0,215,56.57a3.58,3.58,0,0,0,3.48,3A3.67,3.67,0,0,0,220.7,53Zm0,0a3.46,3.46,0,0,0-3.34-.44A3.71,3.71,0,0,0,215,56.57a3.58,3.58,0,0,0,3.48,3A3.67,3.67,0,0,0,220.7,53Zm0,0a3.46,3.46,0,0,0-3.34-.44A3.71,3.71,0,0,0,215,56.57a3.58,3.58,0,0,0,3.48,3A3.67,3.67,0,0,0,220.7,53Zm0,0a3.46,3.46,0,0,0-3.34-.44A3.71,3.71,0,0,0,215,56.57a3.58,3.58,0,0,0,3.48,3A3.67,3.67,0,0,0,220.7,53Zm0,0a3.46,3.46,0,0,0-3.34-.44A3.71,3.71,0,0,0,215,56.57a3.58,3.58,0,0,0,3.48,3A3.67,3.67,0,0,0,220.7,53Zm0,0a3.46,3.46,0,0,0-3.34-.44A3.71,3.71,0,0,0,215,56.57a3.58,3.58,0,0,0,3.48,3A3.67,3.67,0,0,0,220.7,53Z"/><path class="cls-1" d="M211,76a19.41,19.41,0,0,1-4.5,9.13,19.86,19.86,0,0,1-13,6.53H164.57a22.65,22.65,0,0,1-6.24-.43,13.45,13.45,0,0,1-9.28-9,11.9,11.9,0,0,1-.73-5.07V22.78A3.11,3.11,0,0,1,151.08,20a3.46,3.46,0,0,1,3.33,1.6,4.92,4.92,0,0,1,.44,2.9V77.31a10.89,10.89,0,0,0,.29,3,6.53,6.53,0,0,0,6.24,4.78H192a12.6,12.6,0,0,0,10.73-6.23,13,13,0,0,0-3.33-17.26A13.26,13.26,0,0,0,191.69,59H174.28a5.57,5.57,0,0,0-2.61.43,4.83,4.83,0,0,0-.58,8.41,4.78,4.78,0,0,0,2.76.87h13.49a4.26,4.26,0,0,1,1.88.29,3.33,3.33,0,0,1,2,3.63,3.26,3.26,0,0,1-3.19,2.76H174a14.31,14.31,0,0,1-3.48-.44,11.32,11.32,0,0,1-7.1-6.53,11.64,11.64,0,0,1-.15-8.55,11.52,11.52,0,0,1,10.3-7.25H192a12.64,12.64,0,0,0,9.86-4.94,13.15,13.15,0,0,0,2.76-8.55,13.31,13.31,0,0,0-3.77-8.71,12.5,12.5,0,0,0-9.14-3.77h-18A4.81,4.81,0,0,0,169.64,29a4.76,4.76,0,0,0,4.06,7.26h14.36a3.27,3.27,0,0,1,3.05,2,3.08,3.08,0,0,1-.58,3.48,2.62,2.62,0,0,1-2.47,1H175.15a31.3,31.3,0,0,1-3.62-.14A11.21,11.21,0,0,1,164,37.43a11.85,11.85,0,0,1-.29-11,11.57,11.57,0,0,1,7.1-5.94,19.3,19.3,0,0,1,5.81-.44h17.11c.58.44,1.3.29,1.89.44a19.52,19.52,0,0,1,8.7,4.2,28.79,28.79,0,0,1,2.17,2,18.19,18.19,0,0,1,4.5,9.14,24.63,24.63,0,0,1,.14,6.53,19.45,19.45,0,0,1-7.68,12.91,3.69,3.69,0,0,0-.87.72A19.52,19.52,0,0,1,210,65.27a22.78,22.78,0,0,1,1.16,4.21A20,20,0,0,1,211,76Z"/><path class="cls-1" d="M235.49,64a19.57,19.57,0,0,1-8.85,9.57,21.4,21.4,0,0,1-9,2.47H211a19.89,19.89,0,0,0,.14-6.53h6.39a13.56,13.56,0,0,0,10.29-5.22,14.88,14.88,0,0,0,2.76-6.38,12.58,12.58,0,0,0-2.76-10,13.39,13.39,0,0,0-10.44-5.22h-6.09a33.16,33.16,0,0,0-.15-6.53h6.53a20.15,20.15,0,0,1,15.66,8,18.66,18.66,0,0,1,3.92,10.3A22.24,22.24,0,0,1,235.49,64Z"/><path class="cls-1" d="M222.15,56.86a3.75,3.75,0,0,1-3.63,2.76,3.58,3.58,0,0,1-3.48-3,3.71,3.71,0,0,1,2.32-4.06,3.46,3.46,0,0,1,3.34.44A3.74,3.74,0,0,1,222.15,56.86Z"/><path class="cls-1" d="M222.15,56.86a3.75,3.75,0,0,1-3.63,2.76,3.58,3.58,0,0,1-3.48-3,3.71,3.71,0,0,1,2.32-4.06,3.46,3.46,0,0,1,3.34.44A3.74,3.74,0,0,1,222.15,56.86Z"/><path class="cls-1" d="M123.53,114.79c.72-1.05.44-2.7.48-3.91a5.16,5.16,0,0,0-1.45-4.2,4.72,4.72,0,0,0-3.19-.85H109.13A2.77,2.77,0,0,0,108,106a15.55,15.55,0,0,0,0,1.93c0,6,0,12,0,18,3.47.08,7,0,10.45,0,1.49-.08,2.86,0,4.11-1a3.27,3.27,0,0,0,1.33-3.1c-.08-1.82.32-3.39-.52-4.92a3,3,0,0,0-1.13-1.21A3,3,0,0,0,123.53,114.79Zm-4.2,6.29a3.35,3.35,0,0,1-2.46.6c-1.57,0-3.18,0-4.76,0a5.39,5.39,0,0,1-.12-1.81c0-.65,0-1.29,0-1.94,1.37-.08,2.75,0,4.12,0a11,11,0,0,1,2.3.08A2,2,0,0,1,119.33,121.08Zm.12-8.11a2.25,2.25,0,0,1-1.85.73H112c0-1.21,0-2.46,0-3.71,1.46,0,2.91,0,4.36,0a11.87,11.87,0,0,1,2.06.08A2,2,0,0,1,119.45,113Z"/><path class="cls-1" d="M143,121.6a10.11,10.11,0,0,0-.28-3.1,4.59,4.59,0,0,0-2.34-2.78,4.37,4.37,0,0,0,1.93-1.46,4.41,4.41,0,0,0,.61-2.7c0-1.29.16-2.42-.45-3.59a3.33,3.33,0,0,0-3.1-2c-2.95,0-5.85,0-8.75,0a16.09,16.09,0,0,0-3.67,0c-.08,5.41,0,10.81,0,16.22,0,1.21,0,2.46,0,3.67l.16.12c1.25.08,2.54,0,3.79,0,.08-2.66,0-5.32,0-8h5.4a2.54,2.54,0,0,1,1.94.53,2.73,2.73,0,0,1,.6,1.93c0,1.86,0,3.67,0,5.53,1.33.08,2.71,0,4.08,0C143.05,124.51,143,123.06,143,121.6Zm-4.32-8.67a1.48,1.48,0,0,1-1.57.85c-2.06,0-4.07,0-6.13-.08,0-1.21,0-2.46,0-3.71,1.53,0,3.06,0,4.6,0a3.8,3.8,0,0,1,2.46.44A2.06,2.06,0,0,1,138.69,112.93Z"/><path class="cls-1" d="M150.07,110c0,1.21,0,2.46,0,3.67,2.62.16,5.28,0,7.94.08,0,1.37,0,2.74,0,4.07l-.12.12c-2.58.08-5.2,0-7.78,0,0,1.25,0,2.46,0,3.71,3.87.13,7.78,0,11.69,0,0,1.37,0,2.74,0,4.15H146.64c-.45,0-.85,0-.81-.57V105.79c2.86,0,5.69,0,8.55,0,2.42.17,4.84.08,7.3.08a36.08,36.08,0,0,1,0,4.16Z"/><path class="cls-1" d="M168.82,110c0,1.25,0,2.5,0,3.75,2.62,0,5.2,0,7.82,0,0,1.41,0,2.82,0,4.19h-7.82c0,1.25,0,2.46,0,3.71,3.87.13,7.78,0,11.65,0,0,1.38,0,2.75,0,4.12-5,0-10,0-15,0-.4,0-.89,0-.81-.57V105.75c2.87,0,5.73,0,8.59,0,2.42.17,4.84.08,7.3.08,0,1.38.09,2.75,0,4.12C176.52,110,172.69,110,168.82,110Z"/><path class="cls-1" d="M199.35,110.11a4.31,4.31,0,0,0-1.17-3.31,4,4,0,0,0-3-1H183.34q-.06,10,0,20.09c3.95,0,7.86,0,11.82,0a4.29,4.29,0,0,0,3.71-1.9,5.66,5.66,0,0,0,.52-2.94C199.35,117.45,199.39,113.78,199.35,110.11Zm-4.15,10c0,1-.85,1.57-1.82,1.57h-6c0-3.83,0-7.7,0-11.53,1.74,0,3.47,0,5.16,0a4.18,4.18,0,0,1,1.58.16,2,2,0,0,1,1,1.82C195.2,114.79,195.2,117.45,195.2,120.11Z"/><path class="cls-1" d="M206.45,110.07v3.75h7.82c0,1.41,0,2.78,0,4.19-2.62.09-5.24,0-7.86,0,0,1.26,0,2.51,0,3.72h9.19a22.4,22.4,0,0,1,2.46,0c0,1.33,0,2.66,0,4-.28.2-.8.12-1.13.12H203.38c-.36,0-.84.08-1.17-.12a15.71,15.71,0,0,1,0-1.94v-18c1.74-.08,3.47,0,5.21,0s3.34,0,5,.08c1.89,0,3.79,0,5.68,0,0,1.37,0,2.74,0,4.07C214.23,110.07,210.32,110,206.45,110.07Z"/><path class="cls-1" d="M237.1,122.13a12.29,12.29,0,0,0-.32-3.63,4.44,4.44,0,0,0-2.26-2.7,4.49,4.49,0,0,0,1.93-1.62c.73-1.09.45-2.78.49-4.07a4,4,0,0,0-2-3.79,4.89,4.89,0,0,0-2.54-.36c-2.58,0-5.16,0-7.74,0a33.84,33.84,0,0,0-3.63-.09c0,6.7,0,13.39,0,20.13h4c0-2.66,0-5.32,0-8h5.4a2.73,2.73,0,0,1,1.94.49,3.08,3.08,0,0,1,.61,2.22v5.24c1.33.12,2.7,0,4,0C237.14,124.67,237.06,123.38,237.1,122.13Zm-4.28-9.48a1.38,1.38,0,0,1-1.41,1.13c-2.09,0-4.23,0-6.33,0-.08-1.21-.08-2.5,0-3.71,1.86,0,3.75,0,5.65,0a2.37,2.37,0,0,1,2,.93A2.48,2.48,0,0,1,232.82,112.65Z"/><path class="cls-2" d="M255.89,109.87a3.91,3.91,0,0,0-1.45-3.27,4.51,4.51,0,0,0-2.78-.77h-11a1.06,1.06,0,0,0-.81.25c0,6.45,0,12.9,0,19.36,0,.56.41.56.81.56H251.9a4.28,4.28,0,0,0,3.47-1.86,4.17,4.17,0,0,0,.48-2.21C255.89,117.85,255.89,113.86,255.89,109.87Zm-5.72,11.85c-2.06,0-4.08,0-6.13,0-.08-3.84,0-7.71,0-11.58a48.07,48.07,0,0,1,5.88,0,1.77,1.77,0,0,1,1.82,1.73v8.27A1.6,1.6,0,0,1,250.17,121.72Z"/><path class="cls-2" d="M275.13,109.63a3.31,3.31,0,0,0-.93-2.5,5.54,5.54,0,0,0-3.79-1.3h-7.26a4.08,4.08,0,0,0-3.59,1.94,5.25,5.25,0,0,0-.52,2.58c0,5.2,0,10.37,0,15.57a36.45,36.45,0,0,0,4.19-.08v-4h7.47v4a31.52,31.52,0,0,0,4.35,0C275.13,120.47,275.13,115,275.13,109.63Zm-11.74,8.14c0-1.73,0-3.43,0-5.16.05-.69,0-1.53.57-2a3.66,3.66,0,0,1,2.26-.56,21.63,21.63,0,0,1,3.22.12,1.63,1.63,0,0,1,1.38,1.41c.08,2.06,0,4.07,0,6.13C268.36,117.85,265.86,117.73,263.39,117.77Z"/><path class="cls-2" d="M292.84,106.72a3.8,3.8,0,0,0-2.67-1h-7.74A5.42,5.42,0,0,0,278.8,107a3.51,3.51,0,0,0-1,2.63v12a4.64,4.64,0,0,0,1.37,3.47,4.12,4.12,0,0,0,2.75.85h6.25c1.37,0,3,.12,4.23-.56a4.59,4.59,0,0,0,1.7-4V110.63A5.26,5.26,0,0,0,292.84,106.72Zm-3.23,14.08a1.3,1.3,0,0,1-1.17.88c-1.41,0-2.86,0-4.27,0-.53,0-1.09.09-1.54-.32a2.64,2.64,0,0,1-.68-2c0-1.86,0-3.67,0-5.53a7.19,7.19,0,0,1,.28-3.19,2.58,2.58,0,0,1,2.18-.88c1.09,0,2.18,0,3.26,0a2.27,2.27,0,0,1,1.9.88,4.38,4.38,0,0,1,.4,1.9v5.48A7.76,7.76,0,0,1,289.61,120.8Z"/><path class="cls-1" d="M123.53,114.79c.72-1.05.44-2.7.48-3.91a5.16,5.16,0,0,0-1.45-4.2,4.72,4.72,0,0,0-3.19-.85H109.13A2.77,2.77,0,0,0,108,106a15.55,15.55,0,0,0,0,1.93c0,6,0,12,0,18,3.47.08,7,0,10.45,0,1.49-.08,2.86,0,4.11-1a3.27,3.27,0,0,0,1.33-3.1c-.08-1.82.32-3.39-.52-4.92a3,3,0,0,0-1.13-1.21A3,3,0,0,0,123.53,114.79Zm-4.2,6.29a3.35,3.35,0,0,1-2.46.6c-1.57,0-3.18,0-4.76,0a5.39,5.39,0,0,1-.12-1.81c0-.65,0-1.29,0-1.94,1.37-.08,2.75,0,4.12,0a11,11,0,0,1,2.3.08A2,2,0,0,1,119.33,121.08Zm.12-8.11a2.25,2.25,0,0,1-1.85.73H112c0-1.21,0-2.46,0-3.71,1.46,0,2.91,0,4.36,0a11.87,11.87,0,0,1,2.06.08A2,2,0,0,1,119.45,113Z"/><path class="cls-1" d="M143,121.6a10.11,10.11,0,0,0-.28-3.1,4.59,4.59,0,0,0-2.34-2.78,4.37,4.37,0,0,0,1.93-1.46,4.41,4.41,0,0,0,.61-2.7c0-1.29.16-2.42-.45-3.59a3.33,3.33,0,0,0-3.1-2c-2.95,0-5.85,0-8.75,0a16.09,16.09,0,0,0-3.67,0c-.08,5.41,0,10.81,0,16.22,0,1.21,0,2.46,0,3.67l.16.12c1.25.08,2.54,0,3.79,0,.08-2.66,0-5.32,0-8h5.4a2.54,2.54,0,0,1,1.94.53,2.73,2.73,0,0,1,.6,1.93c0,1.86,0,3.67,0,5.53,1.33.08,2.71,0,4.08,0C143.05,124.51,143,123.06,143,121.6Zm-4.32-8.67a1.48,1.48,0,0,1-1.57.85c-2.06,0-4.07,0-6.13-.08,0-1.21,0-2.46,0-3.71,1.53,0,3.06,0,4.6,0a3.8,3.8,0,0,1,2.46.44A2.06,2.06,0,0,1,138.69,112.93Z"/><path class="cls-1" d="M161.72,121.77c0,1.37,0,2.74,0,4.15H146.64c-.45,0-.85,0-.81-.57V105.79c2.86,0,5.69,0,8.55,0,2.42.17,4.84.08,7.3.08a36.08,36.08,0,0,1,0,4.16c-3.87,0-7.74,0-11.61,0,0,1.21,0,2.46,0,3.67,2.62.16,5.28,0,7.94.08,0,1.37,0,2.74,0,4.07l-.12.12c-2.58.08-5.2,0-7.78,0,0,1.25,0,2.46,0,3.71C153.9,121.85,157.81,121.72,161.72,121.77Z"/><path class="cls-1" d="M180.43,121.77c0,1.37,0,2.74,0,4.11-5,0-10,0-15,0-.4,0-.89,0-.81-.57V105.79c2.87,0,5.73,0,8.59,0,2.42.17,4.84.08,7.3.08,0,1.38.09,2.75,0,4.12H168.82c0,1.25,0,2.5,0,3.75,2.62,0,5.2,0,7.82,0,0,1.41,0,2.82,0,4.19h-7.82c0,1.25,0,2.46,0,3.71C172.65,121.85,176.56,121.72,180.43,121.77Z"/><path class="cls-1" d="M199.35,110.11a4.31,4.31,0,0,0-1.17-3.31,4,4,0,0,0-3-1H183.34q-.06,10,0,20.09c3.95,0,7.86,0,11.82,0a4.29,4.29,0,0,0,3.71-1.9,5.66,5.66,0,0,0,.52-2.94C199.35,117.45,199.39,113.78,199.35,110.11Zm-4.15,10c0,1-.85,1.57-1.82,1.57h-6c0-3.83,0-7.7,0-11.53,1.74,0,3.47,0,5.16,0a4.18,4.18,0,0,1,1.58.16,2,2,0,0,1,1,1.82C195.2,114.79,195.2,117.45,195.2,120.11Z"/><path class="cls-1" d="M218.1,121.85c0,1.33,0,2.66,0,4-.28.2-.8.12-1.13.12H203.42c-.36,0-.84.08-1.17-.12a15.71,15.71,0,0,1,0-1.94v-18c1.74-.08,3.47,0,5.21,0s3.34,0,5,.09c1.89,0,3.79,0,5.68,0,0,1.37,0,2.74,0,4.07-3.87,0-7.74,0-11.61,0v3.75h7.82c0,1.41,0,2.78,0,4.19-2.62.09-5.24,0-7.86,0,0,1.26,0,2.51,0,3.72h9.19A15.37,15.37,0,0,1,218.1,121.85Z"/><path class="cls-1" d="M237.1,122.13a12.29,12.29,0,0,0-.32-3.63,4.44,4.44,0,0,0-2.26-2.7,4.49,4.49,0,0,0,1.93-1.62c.73-1.09.45-2.78.49-4.07a4,4,0,0,0-2-3.79,4.89,4.89,0,0,0-2.54-.36c-2.58,0-5.16,0-7.74,0a33.84,33.84,0,0,0-3.63-.09c0,6.7,0,13.39,0,20.13h4c0-2.66,0-5.32,0-8h5.4a2.73,2.73,0,0,1,1.94.49,3.08,3.08,0,0,1,.61,2.22v5.24c1.33.12,2.7,0,4,0C237.14,124.67,237.06,123.38,237.1,122.13Zm-4.28-9.48a1.38,1.38,0,0,1-1.41,1.13c-2.09,0-4.23,0-6.33,0-.08-1.21-.08-2.5,0-3.71,1.86,0,3.75,0,5.65,0a2.37,2.37,0,0,1,2,.93A2.48,2.48,0,0,1,232.82,112.65Z"/><path class="cls-2" d="M255.89,109.87a3.91,3.91,0,0,0-1.45-3.27,4.51,4.51,0,0,0-2.78-.77h-11a1.06,1.06,0,0,0-.81.25c0,6.45,0,12.9,0,19.36,0,.56.41.56.81.56H251.9a4.28,4.28,0,0,0,3.47-1.86,4.17,4.17,0,0,0,.48-2.21C255.89,117.85,255.89,113.86,255.89,109.87Zm-5.72,11.85c-2.06,0-4.08,0-6.13,0-.08-3.84,0-7.71,0-11.58a48.07,48.07,0,0,1,5.88,0,1.77,1.77,0,0,1,1.82,1.73v8.27A1.6,1.6,0,0,1,250.17,121.72Z"/><path class="cls-2" d="M275.13,109.63a3.31,3.31,0,0,0-.93-2.5,5.54,5.54,0,0,0-3.79-1.3h-7.26a4.08,4.08,0,0,0-3.59,1.94,5.25,5.25,0,0,0-.52,2.58c0,5.2,0,10.37,0,15.57a36.45,36.45,0,0,0,4.19-.08v-4h7.47v4a31.52,31.52,0,0,0,4.35,0C275.13,120.47,275.13,115,275.13,109.63Zm-11.74,8.14c0-1.73,0-3.43,0-5.16.05-.69,0-1.53.57-2a3.66,3.66,0,0,1,2.26-.56,21.63,21.63,0,0,1,3.22.12,1.63,1.63,0,0,1,1.38,1.41c.08,2.06,0,4.07,0,6.13C268.36,117.85,265.86,117.73,263.39,117.77Z"/><path class="cls-2" d="M292.84,106.72a3.8,3.8,0,0,0-2.67-1h-7.74A5.42,5.42,0,0,0,278.8,107a3.51,3.51,0,0,0-1,2.63v12a4.64,4.64,0,0,0,1.37,3.47,4.12,4.12,0,0,0,2.75.85h6.25c1.37,0,3,.12,4.23-.56a4.59,4.59,0,0,0,1.7-4V110.63A5.26,5.26,0,0,0,292.84,106.72Zm-3.23,14.08a1.3,1.3,0,0,1-1.17.88c-1.41,0-2.86,0-4.27,0-.53,0-1.09.09-1.54-.32a2.64,2.64,0,0,1-.68-2c0-1.86,0-3.67,0-5.53a7.19,7.19,0,0,1,.28-3.19,2.58,2.58,0,0,1,2.18-.88c1.09,0,2.18,0,3.26,0a2.27,2.27,0,0,1,1.9.88,4.38,4.38,0,0,1,.4,1.9v5.48A7.76,7.76,0,0,1,289.61,120.8Z"/></svg>