<svg id="Layer_1" data-name="Layer 1" xmlns="http://www.w3.org/2000/svg" viewBox="0 0 402 146"><defs><style>.cls-1{fill:#fff;}</style></defs><path class="cls-1" d="M122.74,74.19c0-13.29,7.07-19.87,21-19.87a26.62,26.62,0,0,1,11.88,2.32l-2.43,6.64a30,30,0,0,0-9.34-1.4c-6.91-.11-11.72,3.78-11.72,11.77s5.08,12.26,12.8,12.26a31.49,31.49,0,0,0,8.85-1.08l2,6.91a31.18,31.18,0,0,1-11.77,1.83c-14,0-21.17-6.85-21.17-19.38Zm58.65,4.1c0-4.75-1.19-8.37-6.16-8.37S169,73.54,169,78.35c0,5.07,1.51,8.15,6.32,8.15s6-3.19,6-8.21ZM160,78.56c0-9.77,6.1-15.77,15.44-15.77,10.48,0,15.18,5.89,15.18,15.5,0,10-6.59,15.39-15.67,15.39-9.71,0-15-5.88-15-15.12Zm33.54-15h9.66l5,16,1.51,5.89,1.68-5.89,5.5-16h9.46L214.82,93h-10.7Zm53.46,22V80.89l-4.43.1c-2.65.06-4.59.92-4.59,3.08,0,1.73,1.67,2.49,3.29,2.49a23,23,0,0,0,5.73-1Zm-17.77-.92c0-7.45,6.81-9,12.64-9H247V73.81c0-2.59-1.68-3.35-5.35-3.35a39.7,39.7,0,0,0-8.8,1.3L231,65.22A32.46,32.46,0,0,1,243,62.85c9.13,0,12.8,2.59,12.8,9.23V85.2c0,1,1,1.19,2.65,1.25l-.33,6.8c-.7,0-1.4,0-2.1,0-3.57,0-7.35-.59-8.16-3.13a14.47,14.47,0,0,1-8.48,3.35c-6.47,0-10.15-3-10.15-8.91ZM265.1,52.32h9V93h-9Zm34,22.95c.11-3.57-1.46-6-4.38-6s-5.07,2.16-5.23,6Zm-18.85,3.45c0-12,6.32-15.87,15.23-15.87,9.29,0,12.85,6.05,12.85,15v3.24H289.24c-.06,4.64,3.61,5.5,8.31,5.5A62.16,62.16,0,0,0,306,85.37l1.35,6.85a41.51,41.51,0,0,1-11.07,1.46c-9.72,0-16-3.18-16-15Zm34.24-15.17h9v3c1.78-1.35,5.67-3.73,9.61-3.73,9.24,0,9.88,5.08,9.88,11.78V93h-9V75.32c0-4-.92-4.75-3.94-4.75a15.62,15.62,0,0,0-6.59,1.57V93h-9V63.55Zm37.37,20.3V70.19h-4.32V63.55h4.32v-6h9v6H370v6.64h-9.12V83.8c0,2.16.81,2.32,3.24,2.32,2,0,6.37-.59,6.37-.59l.86,7.07a28.75,28.75,0,0,1-7.12,1c-5.68,0-12.32.27-12.32-9.78ZM71.32,51.31v-19a40.65,40.65,0,0,0,0,81.3v-19a21.69,21.69,0,0,1,0-43.38"/><path class="cls-1" d="M93.09,51.31a9.52,9.52,0,0,1-8.76-5.85,9.48,9.48,0,0,1,8.76-13.11,9.48,9.48,0,1,1,0,19"/><path class="cls-1" d="M92.93,113.65a9.47,9.47,0,1,1,6.71-2.78,9.48,9.48,0,0,1-6.71,2.78"/><path class="cls-1" d="M93,73A21.68,21.68,0,0,1,71.32,94.69V51.31A21.68,21.68,0,0,1,93,73"/></svg>