<svg id="Layer_1" data-name="Layer 1" xmlns="http://www.w3.org/2000/svg" viewBox="0 0 402 146"><defs><style>.cls-1{fill:#fff;}</style></defs><g id="Ethernity_Logo_Blue" data-name="Ethernity Logo Blue"><path id="Path_1" data-name="Path 1" class="cls-1" d="M296.42,53.29a2.79,2.79,0,0,0,2.7,2.88h.33a2.88,2.88,0,0,0,2.87-2.9v-.14a2.84,2.84,0,0,0-2.82-2.86h-.05A3.12,3.12,0,0,0,296.42,53.29Z"/><path id="Path_2" data-name="Path 2" class="cls-1" d="M362.85,60.29v12a15,15,0,0,1-.33,2.84A7.68,7.68,0,0,1,354,80.52a7.9,7.9,0,0,1-6.86-7.69V60.13H343c-.67,0-.83.16-.83.83v5.52a2.55,2.55,0,0,1-.67,1.5L329.9,79.52a3,3,0,0,1-5.35-2.34V65h8c.33,0,.83-.34.83-.51V60h-9V54.28h-4.85v12a3.6,3.6,0,0,1-.67,1.67L307.49,79.35a3.11,3.11,0,0,1-3.68,1A3.3,3.3,0,0,1,302,77.18V60.13h-4c-.83,0-1,.33-.83,1v5.35a1.3,1.3,0,0,1-.17.84c-1.17,1.17-2.34,2.34-3.68,3.51,0-.34-.17-.51-.17-.67a13,13,0,0,0-21.57-6.86l-3,3c-4.18,4.18-8.37,8.36-12.38,12.54A5.49,5.49,0,1,1,248.44,71l10-10a6.12,6.12,0,0,0,.83-1H240.25a2,2,0,0,0-1.84.84c-5.69,5.85-11.54,11.53-17.23,17.38a7.38,7.38,0,0,1-4.52,2.34,6.43,6.43,0,0,1-4.51-.83s9-9.2,13.38-13.38c.67-.67.67-1,.17-1.67a12.89,12.89,0,0,0-18.11-2c-.28.22-.54.44-.79.68-2,1.84-3.85,3.85-5.69,5.69a25.82,25.82,0,0,0-2,2.17A13.15,13.15,0,0,0,191.24,61a12.87,12.87,0,0,0-12.88,1.68V51.27c0-.84-.34-1-1-1h-2.84c-1,0-1.17.34-1.17,1.17V66.65a2.32,2.32,0,0,1-.5,1.5L161.13,79.86a2.86,2.86,0,0,1-3.34.83,2.92,2.92,0,0,1-1.84-3V66.48c0-.84.16-1,1-1h7.86V60.63h-9V54.94h-4.85V67a1.92,1.92,0,0,1-.5,1.34l-3,3-7.36,7.35a7.29,7.29,0,0,1-2.68,1.68,7.92,7.92,0,0,1-6.69-.34c4.85-4.85,9.54-9.53,14.39-14.21-.34-.33-.5-.83-.84-1.17a13.8,13.8,0,0,0-4.68-3.51,12,12,0,0,0-5-1,12.68,12.68,0,0,0-11.2,6.68c-.34.84-.84,1.67-1.18,2.68a11.92,11.92,0,0,0-.5,3.51,13,13,0,0,0,8.69,12.2c.17,0,.34.17.51.17a16.44,16.44,0,0,0,4,.5,12.68,12.68,0,0,0,8.87-4.18l1-1,5-5a5.71,5.71,0,0,1,1-.84v3a8,8,0,0,0,13.72,5.68c2.67-2.67,8.69-8.52,8.69-8.52v10.7h5V73.17a7.94,7.94,0,0,1,10.71-7.36,7.79,7.79,0,0,1,5.18,7.53V85.71h5V79.35A6.49,6.49,0,0,1,201.44,76a8.78,8.78,0,0,0,1.34-1.17,11.59,11.59,0,0,0,3.34,7,12.88,12.88,0,0,0,18.21.68l.36-.35,16.06-16c.33-.33.67-.67,1-.67h5.86l-2.68,2.68a10,10,0,0,0-3,6.69A10.39,10.39,0,0,0,248.11,85a10.25,10.25,0,0,0,11.71-2.17c.83-.83,1.67-1.84,2.67-2.67l5.36-5.36H268V85.7h5v-13a7.93,7.93,0,0,1,11.54-6.86A7.75,7.75,0,0,1,288.93,73V85.54h5V78.35c0-.17,0-.17.16-.33,1.18-1.17,2.35-2.18,3.52-3.35v3a7.81,7.81,0,0,0,5,7.36,7.71,7.71,0,0,0,8.52-1.84l8-8c.17-.16.5-.33.84-.67v3a7.81,7.81,0,0,0,5,7.53,8.05,8.05,0,0,0,8.7-1.84c2.68-2.68,5.35-5.35,8-7.86l.84-.84a13,13,0,0,0,20.57,8.7A7.49,7.49,0,0,1,357,90.55,8.19,8.19,0,0,1,348,86c-.17-.33-.5-.67-.67-.67h-4.51c0,.34,0,.5.16.67a13.1,13.1,0,0,0,12.55,9.7,12.88,12.88,0,0,0,12.54-10,24.39,24.39,0,0,0,.34-3.51V60.46c-2.34-.17-3.85-.17-5.52-.17Zm-236,15.89A7.77,7.77,0,0,1,137,65.64C133.7,69.16,130.35,72.67,126.84,76.18Zm82.63-8.7a7.73,7.73,0,0,1,9.2-1.67c-3.51,3.51-6.86,7-10.37,10.53C206.63,74,207.3,70,209.47,67.48Z"/><g id="Group_1" data-name="Group 1"><path id="Path_3" data-name="Path 3" class="cls-1" d="M100.55,60a15.94,15.94,0,0,0-22.29,0l-2.37,2.36,2.2,2.19,2.36-2.36a12.79,12.79,0,0,1,17.91,0A12.65,12.65,0,0,1,80.45,80.08l-2.36-2.36-2.2,2.19,2.37,2.35a15.92,15.92,0,0,0,22.29,0,15.83,15.83,0,0,0,0-22.23Z"/><path id="Path_4" data-name="Path 4" class="cls-1" d="M78.08,73.34l6.76-6.74a6.4,6.4,0,1,1,0,9.09l-2.37-2.35-2.2,2.19,2.37,2.36a9.6,9.6,0,1,0,.1-13.58l-.1.1-1,1-5.58,5.73-6.58,6.57-.68.67-1.35,1.35-.34.34a12.77,12.77,0,0,1-17.9,0,12.6,12.6,0,0,1-.06-17.8l.06-.06a12,12,0,0,1,8.8-3.7,12.65,12.65,0,0,1,8.94,3.7l4.56,4.55-8.61,8.59-.34.34A6.55,6.55,0,0,1,58,77.55a5.92,5.92,0,0,1-3-.84l9.29-9.27,1.85-1.85-1.35-1.18a6.7,6.7,0,0,0-1.18-1A9.64,9.64,0,0,0,58,61.55a9.48,9.48,0,0,0-6.76,2.86A9.35,9.35,0,0,0,51,77.62l.27.27a9.41,9.41,0,0,0,13.29.22c.07-.08.15-.15.22-.22l4.39-4.38L71.67,71l2.2-2.19,2-2,.17-.17-6.75-6.74a15.94,15.94,0,0,0-22.29,0A15.38,15.38,0,0,0,42.46,71,15.71,15.71,0,0,0,69.31,82.1l2.36-2.36Zm-26.5-2.19a6.32,6.32,0,0,1,6.26-6.4H58a6.11,6.11,0,0,1,3.37,1l-8.78,8.76A6,6,0,0,1,51.58,71.15Z"/></g></g></svg>