<svg id="Layer_1" data-name="Layer 1" xmlns="http://www.w3.org/2000/svg" viewBox="0 0 402 146"><defs><style>.cls-1,.cls-2,.cls-3{fill:#fff;}.cls-1{opacity:0.56;}.cls-3{opacity:0.82;}</style></defs><path class="cls-1" d="M109,66.44a28.34,28.34,0,0,1-1,16.13A28.56,28.56,0,0,1,76.4,100.81,28.27,28.27,0,0,1,54,80.51a27.6,27.6,0,0,1,.92-18.09c.09-.22.19-.43.28-.65A28.4,28.4,0,0,1,109,66.44Z"/><path class="cls-2" d="M187.53,68.8a12,12,0,0,1,1.41,6c0,4.94,0,9.88,0,14.82a52.05,52.05,0,0,1-5.3,0c0-4.12,0-8.23,0-12.34a18.27,18.27,0,0,0-.23-4,6,6,0,0,0-4-4.29,7.4,7.4,0,0,0-4.27.09,6.07,6.07,0,0,0-3.86,4,16.79,16.79,0,0,0-.41,5.15c0,3.81,0,7.62,0,11.44-1.75.1-3.53.05-5.28,0-.06-1.8,0-3.6,0-5.4,0-9.37,0-18.76,0-28.12,1.76,0,3.52-.06,5.28,0,.05,3.59,0,7.2,0,10.79.7-.5,1.36-1,2.1-1.47a11.38,11.38,0,0,1,10-.75A9.69,9.69,0,0,1,187.53,68.8Z"/><path class="cls-2" d="M219.55,70.28a14.54,14.54,0,0,0-5.69-5.12,13.27,13.27,0,0,0-8.35-1,13.87,13.87,0,0,0-8.62,5.95,12.59,12.59,0,0,0,0,13.87,14.73,14.73,0,0,0,5.48,4.86,13.35,13.35,0,0,0,8.69,1A13.83,13.83,0,0,0,219.37,84,12.59,12.59,0,0,0,219.55,70.28Zm-4,9.91a8.51,8.51,0,0,1-4.42,4.6,7.82,7.82,0,0,1-6.08,0,8.52,8.52,0,0,1,1.33-16,7.77,7.77,0,0,1,7.72,2.63A8.71,8.71,0,0,1,215.57,80.19Z"/><path class="cls-2" d="M232.66,61.49c0,9.35,0,18.72,0,28.07-1.75.11-3.52.07-5.28,0-.05-1.8,0-3.6,0-5.39,0-9.37,0-18.75,0-28.12,1.76,0,3.53-.06,5.28,0C232.69,57.9,232.65,59.7,232.66,61.49Z"/><path class="cls-2" d="M264.15,72A14.36,14.36,0,0,0,259.08,66a13.47,13.47,0,0,0-20.28,8.19,12.59,12.59,0,0,0,1.4,9.11,14.65,14.65,0,0,0,5.52,5.28A13.12,13.12,0,0,0,261.4,86a12.54,12.54,0,0,0,3.62-6.9A13,13,0,0,0,264.15,72Zm-4.91,8.28a8.64,8.64,0,0,1-3.68,4.19,7.79,7.79,0,0,1-6.07.6A8.53,8.53,0,0,1,250,68.83a7.73,7.73,0,0,1,7.54,2.33A8.68,8.68,0,0,1,259.24,80.25Z"/><path class="cls-2" d="M285.4,64.45c0,1.76,0,3.53,0,5.29-2.4.14-4.76.27-6.71,1.86a7.12,7.12,0,0,0-2.32,5.63c0,4.1,0,8.21,0,12.32a47.74,47.74,0,0,1-5.35,0c-.05-3.89,0-7.78,0-11.67a15.3,15.3,0,0,1,2.17-8.68,10.55,10.55,0,0,1,6.28-4.28A20.56,20.56,0,0,1,285.4,64.45Z"/><path class="cls-2" d="M296.6,64.46q0,12.54,0,25.1a47,47,0,0,1-5.31,0c-.06-1,0-1.92,0-2.89v-20a17.8,17.8,0,0,1,.06-2.19C293.07,64.42,294.84,64.45,296.6,64.46Z"/><path class="cls-2" d="M323.28,56.13c-.06,3.67,0,7.34,0,11a21.38,21.38,0,0,0-2.86-1.93,11.78,11.78,0,0,0-9.9-.48,13.28,13.28,0,0,0-5.21,4,13.49,13.49,0,0,0,0,16.54A13.08,13.08,0,0,0,311,89.45a11.54,11.54,0,0,0,7.8,0,19,19,0,0,0,2.47-1.13,17.84,17.84,0,0,0,2-1.46c0,.91,0,1.81,0,2.72a51.86,51.86,0,0,0,5.29,0q0-16.72,0-33.46A49,49,0,0,0,323.28,56.13Zm-5,28.71a7,7,0,0,1-5.68-.11A8.58,8.58,0,0,1,307.78,77a8.46,8.46,0,0,1,6.09-8.18,6.9,6.9,0,0,1,4.52.42,8.63,8.63,0,0,1-.15,15.6Z"/><path class="cls-2" d="M359.82,78.82a14.4,14.4,0,0,0-.31-6.43,12.08,12.08,0,0,0-8-8,14.15,14.15,0,0,0-5.79-.46,13,13,0,0,0-8.94,20.35,13.78,13.78,0,0,0,7.48,5.34A14.66,14.66,0,0,0,359,84.89c-1.12-1.15-2.27-2.28-3.43-3.39a12.55,12.55,0,0,1-2,2,10.65,10.65,0,0,1-4.05,1.77,8.45,8.45,0,0,1-5.87-1,7.8,7.8,0,0,1-3.81-5.41c5.49,0,11,0,16.48,0C357.46,78.85,358.63,78.9,359.82,78.82ZM340,74.36A7.78,7.78,0,0,1,342.72,70a8,8,0,0,1,7.89-1,7.1,7.1,0,0,1,4.18,5.39C349.87,74.4,345,74.39,340,74.36Z"/><path class="cls-3" d="M99.56,36.23c-1.87.35-4.11.55-5.74,1.59A37.44,37.44,0,0,0,65.44,39.2a14.06,14.06,0,0,0-5.51-.63,19,19,0,0,0-10.22,4.6c-1,.82-1.84,1.77-2.77,2.63a14.1,14.1,0,0,1,.32-3.3A20.52,20.52,0,0,1,53.56,32,19.3,19.3,0,0,1,62,27.58,28.48,28.48,0,0,1,69.38,27a54.34,54.34,0,0,1,10.54,1.44,74.51,74.51,0,0,1,18,6.77C98.46,35.54,99,35.89,99.56,36.23Z"/><path class="cls-3" d="M127.44,75.05c-.35.48-.68,1-1,1.47-1.82,2.31-4.32,4-5.89,6.43a25.34,25.34,0,0,0-3.14,8.12,50.86,50.86,0,0,1-5,13.39,19.05,19.05,0,0,1-1.41,2.16c-.66.54-1.31,1.07-2,1.63.11-.29.21-.59.3-.89a11.21,11.21,0,0,1-1.74-2.22,8.28,8.28,0,0,1,0-2c-.35-.26-.72-.67-1.17-.68s-.75,0-1.13,0l.47-.82a7.47,7.47,0,0,1-2.18,1.23c.84-.74,1.73-1.43,2.57-2.18A37.22,37.22,0,0,0,93.82,37.82c1.63-1,3.87-1.24,5.74-1.59l.73.09c.63,1,1.58,1.25,2.51,1.89a66.48,66.48,0,0,1,8.07,6.07,47.75,47.75,0,0,1,4.68,5,60.86,60.86,0,0,1,4.42,7,51.3,51.3,0,0,1,3.29,7.29,66.39,66.39,0,0,1,2.35,7.7c.32,1.46.54,3,.88,4.41A10.42,10.42,0,0,0,127.44,75.05Z"/><path class="cls-3" d="M130.63,68.77a31.17,31.17,0,0,1-3.19,6.28,10.42,10.42,0,0,1-1,.63c-.34-1.46-.56-3-.88-4.41a66.39,66.39,0,0,0-2.35-7.7A51.3,51.3,0,0,0,120,56.28a60.86,60.86,0,0,0-4.42-7,47.75,47.75,0,0,0-4.68-5,66.48,66.48,0,0,0-8.07-6.07c-.93-.64-1.88-.9-2.51-1.89a26.46,26.46,0,0,1,8.4.71,35.15,35.15,0,0,1,16.16,8.79A24,24,0,0,1,131.25,56,19.71,19.71,0,0,1,130.63,68.77Z"/><path class="cls-1" d="M65.44,39.2c-.92.46-1.83.95-2.73,1.46A37.91,37.91,0,0,0,49,54.36a20.44,20.44,0,0,1-1.58-4.42c-.28-1.25-.44-2.53-.62-3.79l.14-.35c.93-.86,1.8-1.81,2.77-2.63a19,19,0,0,1,10.22-4.6A14.06,14.06,0,0,1,65.44,39.2Z"/><path class="cls-1" d="M108,82.57a27.91,27.91,0,0,1-8.43,12,5,5,0,0,0-.51-1.37c-.4-.41-1-.69-1.32-1.13a17.5,17.5,0,0,0-1.12-1.59A5.63,5.63,0,0,1,95.39,89a4.52,4.52,0,0,0-1-1.54c-.81-.8-1.27-1.83-2.09-2.62s-1.81-1.3-2.61-2.11c-.68-.66-1.25-1.45-2-2.08s-1.66-1-2.4-1.67c-.5-.42-.82-1-1.28-1.4-1.49-1.23-3.16-2.24-4.67-3.44a18.22,18.22,0,0,0-3.85-2.91c-.55-.37-1-1-1.56-1.33s-1-.47-1.53-.72a9.81,9.81,0,0,1-2.82-2.13,5.23,5.23,0,0,0-3.08-1.26c-.78-.12-1.36-.89-2.1-1.19a19.63,19.63,0,0,1-2.22-.93c-1-.54-2-.81-2.89-1.41a3.42,3.42,0,0,0-1-.5,11.49,11.49,0,0,0-1.74.29c0-.35,0-.7.07-1a9,9,0,0,1-1.49.75A28.39,28.39,0,0,1,108,82.57Z"/><path class="cls-1" d="M49,54.36a38.28,38.28,0,0,0-4.45,12.55,9.2,9.2,0,0,1-.43,2.21A25.66,25.66,0,0,1,42,60.25V58.42A20.68,20.68,0,0,1,46.8,46.15c.18,1.26.34,2.54.62,3.79A20.44,20.44,0,0,0,49,54.36Z"/><path class="cls-2" d="M188.94,74.75c0,4.94,0,9.88,0,14.82a52.05,52.05,0,0,1-5.3,0c0-4.12,0-8.23,0-12.34a18.27,18.27,0,0,0-.23-4,6,6,0,0,0-4-4.29,7.4,7.4,0,0,0-4.27.09,6.07,6.07,0,0,0-3.86,4,16.79,16.79,0,0,0-.41,5.15c0,3.81,0,7.62,0,11.44-1.75.1-3.53.05-5.28,0-.06-1.8,0-3.6,0-5.4,0-9.37,0-18.76,0-28.12,1.76,0,3.52-.06,5.28,0,.05,3.59,0,7.2,0,10.79.7-.5,1.36-1,2.1-1.47a11.38,11.38,0,0,1,10-.75,9.69,9.69,0,0,1,4.64,4.12A12,12,0,0,1,188.94,74.75Z"/><path class="cls-2" d="M232.64,89.56c-1.75.11-3.52.07-5.28,0-.05-1.8,0-3.6,0-5.39,0-9.37,0-18.75,0-28.12,1.76,0,3.53-.06,5.28,0,.05,1.79,0,3.59,0,5.38C232.65,70.84,232.7,80.21,232.64,89.56Z"/><path class="cls-2" d="M323.28,56.13c-.06,3.67,0,7.34,0,11a21.38,21.38,0,0,0-2.86-1.93,11.78,11.78,0,0,0-9.9-.48,13.28,13.28,0,0,0-5.21,4,13.49,13.49,0,0,0,0,16.54A13.08,13.08,0,0,0,311,89.45a11.54,11.54,0,0,0,7.8,0,19,19,0,0,0,2.47-1.13,17.84,17.84,0,0,0,2-1.46c0,.91,0,1.81,0,2.72a51.86,51.86,0,0,0,5.29,0q0-16.72,0-33.46A49,49,0,0,0,323.28,56.13Zm-5,28.71a7,7,0,0,1-5.68-.11A8.58,8.58,0,0,1,307.78,77a8.46,8.46,0,0,1,6.09-8.18,6.9,6.9,0,0,1,4.52.42,8.63,8.63,0,0,1-.15,15.6Z"/><path class="cls-1" d="M99.58,94.54A28.31,28.31,0,0,1,54,80.51,10.88,10.88,0,0,0,57.22,75a14.52,14.52,0,0,0-.43-9c-.49-1.27-1.34-2.32-1.86-3.57.09-.22.19-.43.28-.65A9,9,0,0,0,56.7,61c0,.35-.05.7-.07,1a11.49,11.49,0,0,1,1.74-.29,3.42,3.42,0,0,1,1,.5c.91.6,1.94.87,2.89,1.41a19.63,19.63,0,0,0,2.22.93c.74.3,1.32,1.07,2.1,1.19a5.23,5.23,0,0,1,3.08,1.26,9.81,9.81,0,0,0,2.82,2.13c.5.25,1.06.43,1.53.72s1,1,1.56,1.33a18.22,18.22,0,0,1,3.85,2.91c1.51,1.2,3.18,2.21,4.67,3.44.46.44.78,1,1.28,1.4.74.65,1.66,1,2.4,1.67s1.28,1.42,2,2.08c.8.81,1.81,1.29,2.61,2.11s1.28,1.82,2.09,2.62a4.52,4.52,0,0,1,1,1.54,5.63,5.63,0,0,0,1.24,1.43A17.5,17.5,0,0,1,97.75,92c.36.44.92.72,1.32,1.13A5,5,0,0,1,99.58,94.54Z"/><path class="cls-1" d="M57.22,75A10.88,10.88,0,0,1,54,80.51a27.6,27.6,0,0,1,.92-18.09c.52,1.25,1.37,2.3,1.86,3.57A14.52,14.52,0,0,1,57.22,75Z"/><path class="cls-2" d="M219.55,70.28a14.54,14.54,0,0,0-5.69-5.12,13.27,13.27,0,0,0-8.35-1,13.87,13.87,0,0,0-8.62,5.95,12.59,12.59,0,0,0,0,13.87,14.73,14.73,0,0,0,5.48,4.86,13.35,13.35,0,0,0,8.69,1A13.83,13.83,0,0,0,219.37,84,12.59,12.59,0,0,0,219.55,70.28Zm-4,9.91a8.51,8.51,0,0,1-4.42,4.6,7.82,7.82,0,0,1-6.08,0,8.52,8.52,0,0,1,1.33-16,7.77,7.77,0,0,1,7.72,2.63A8.71,8.71,0,0,1,215.57,80.19Z"/><path class="cls-2" d="M264.15,72A14.36,14.36,0,0,0,259.08,66a13.47,13.47,0,0,0-20.28,8.19,12.59,12.59,0,0,0,1.4,9.11,14.65,14.65,0,0,0,5.52,5.28A13.12,13.12,0,0,0,261.4,86a12.54,12.54,0,0,0,3.62-6.9A13,13,0,0,0,264.15,72Zm-4.91,8.28a8.64,8.64,0,0,1-3.68,4.19,7.79,7.79,0,0,1-6.07.6A8.53,8.53,0,0,1,250,68.83a7.73,7.73,0,0,1,7.54,2.33A8.68,8.68,0,0,1,259.24,80.25Z"/><path class="cls-2" d="M359.82,78.82a14.4,14.4,0,0,0-.31-6.43,12.08,12.08,0,0,0-8-8,14.15,14.15,0,0,0-5.79-.46,13,13,0,0,0-8.94,20.35,13.78,13.78,0,0,0,7.48,5.34A14.66,14.66,0,0,0,359,84.89c-1.12-1.15-2.27-2.28-3.43-3.39a12.55,12.55,0,0,1-2,2,10.65,10.65,0,0,1-4.05,1.77,8.45,8.45,0,0,1-5.87-1,7.8,7.8,0,0,1-3.81-5.41c5.49,0,11,0,16.48,0C357.46,78.85,358.63,78.9,359.82,78.82ZM340,74.36A7.78,7.78,0,0,1,342.72,70a8,8,0,0,1,7.89-1,7.1,7.1,0,0,1,4.18,5.39C349.87,74.4,345,74.39,340,74.36Z"/><path class="cls-2" d="M285.4,64.45c0,1.76,0,3.53,0,5.29-2.4.14-4.76.27-6.71,1.86a7.12,7.12,0,0,0-2.32,5.63c0,4.1,0,8.21,0,12.32a47.74,47.74,0,0,1-5.35,0c-.05-3.89,0-7.78,0-11.67a15.3,15.3,0,0,1,2.17-8.68,10.55,10.55,0,0,1,6.28-4.28A20.56,20.56,0,0,1,285.4,64.45Z"/><path class="cls-2" d="M296.6,64.46q0,12.54,0,25.1a47,47,0,0,1-5.31,0c-.06-1,0-1.92,0-2.89v-20a17.8,17.8,0,0,1,.06-2.19C293.07,64.42,294.84,64.45,296.6,64.46Z"/><path class="cls-1" d="M124.67,93.39a30.18,30.18,0,0,1-7.21,12.8,21.89,21.89,0,0,1-11,5.83,31.45,31.45,0,0,0,4.51-5.4,19.05,19.05,0,0,0,1.41-2.16,50.86,50.86,0,0,0,5-13.39A25.34,25.34,0,0,1,120.53,83c1.57-2.4,4.07-4.12,5.89-6.43A41.24,41.24,0,0,1,124.67,93.39Z"/><path class="cls-1" d="M69,116.8c-1.9,0-3.75.39-5.66.28a24.26,24.26,0,0,1-4.52-.52,23.24,23.24,0,0,1-11.34-6.84,19.53,19.53,0,0,1-5.05-9.52,16.92,16.92,0,0,1-.06-4.44c.48-3.13,2.47-6.08,4.58-8.37.57,1.09,1,2.23,1.67,3.29a12.73,12.73,0,0,0-.1,4.31,20.09,20.09,0,0,0,2.91,8.77,31.14,31.14,0,0,0,17.41,13Z"/><path class="cls-3" d="M110.94,106.62a31.45,31.45,0,0,1-4.51,5.4l-.59.31c-2.33.2-4.6.68-7,.75s-4.53.2-6.8.18a67.54,67.54,0,0,0-7,.23,77.22,77.22,0,0,0-12.25,2.35c-1.34.36-2.7.65-4.06.91a31.14,31.14,0,0,1-17.41-13A20.09,20.09,0,0,1,48.49,95a12.73,12.73,0,0,1,.1-4.31,37.81,37.81,0,0,0,14.79,14.81A37.18,37.18,0,0,0,102,103.8c.48-.33,1-.66,1.48-1a7.47,7.47,0,0,0,2.18-1.23l-.47.82c.38,0,.75,0,1.13,0s.82.42,1.17.68a8.28,8.28,0,0,0,0,2,11.21,11.21,0,0,0,1.74,2.22c-.09.3-.19.6-.3.89C109.63,107.69,110.28,107.16,110.94,106.62Z"/><path class="cls-1" d="M105.84,112.33a16.7,16.7,0,0,1-2.82,2.13A32.75,32.75,0,0,1,85.35,119,50.16,50.16,0,0,1,69,116.8l-.16,0c1.36-.26,2.72-.55,4.06-.91a77.22,77.22,0,0,1,12.25-2.35,67.54,67.54,0,0,1,7-.23c2.27,0,4.53-.13,6.8-.18S103.51,112.53,105.84,112.33Z"/></svg>