<svg id="Layer_1" data-name="Layer 1" xmlns="http://www.w3.org/2000/svg" viewBox="0 0 402 146"><defs><style>.cls-1{fill:#fff;}</style></defs><path class="cls-1" d="M145.49,57.48h-4.86a1.22,1.22,0,0,0-.86.36,1.18,1.18,0,0,0-.35.86v33a1.19,1.19,0,0,0,.35.86,1.22,1.22,0,0,0,.86.36h4.86a1.22,1.22,0,0,0,.86-.36,1.19,1.19,0,0,0,.35-.86v-33a1.21,1.21,0,0,0-1.21-1.18Zm41.84,0H160.59a1.22,1.22,0,0,0-.86.36,1.19,1.19,0,0,0-.36.86v4.38a1.22,1.22,0,0,0,.36.86,1.25,1.25,0,0,0,.86.35h9.72V91.65a1.19,1.19,0,0,0,.35.86,1.22,1.22,0,0,0,.86.36h4.93a1.22,1.22,0,0,0,.86-.36,1.24,1.24,0,0,0,.35-.86V64.28h9.72a1.2,1.2,0,0,0,1.21-1.21V58.69a1.07,1.07,0,0,0-.1-.47,1.09,1.09,0,0,0-.27-.4,1.2,1.2,0,0,0-.4-.26,1.5,1.5,0,0,0-.47-.08Zm40.66,0h-4.77a1.2,1.2,0,0,0-.86.35,1.18,1.18,0,0,0-.27.4,1.23,1.23,0,0,0-.09.47V71.62H208.39V58.7a1.19,1.19,0,0,0-.36-.86,1.22,1.22,0,0,0-.86-.36h-4.86a1.21,1.21,0,0,0-1.21,1.22v33a1.24,1.24,0,0,0,.35.86,1.22,1.22,0,0,0,.86.36h4.86a1.22,1.22,0,0,0,.86-.36,1.19,1.19,0,0,0,.36-.86V78.57H222v13a1.23,1.23,0,0,0,.09.47,1.18,1.18,0,0,0,.27.4,1.2,1.2,0,0,0,.86.35H228a1.27,1.27,0,0,0,.47-.09,1.15,1.15,0,0,0,.66-.66,1.24,1.24,0,0,0,.1-.47V58.66a1.22,1.22,0,0,0-.38-.84,1.2,1.2,0,0,0-.85-.34ZM269.46,86h-17V78.52H268.6a1.27,1.27,0,0,0,.47-.09,1.14,1.14,0,0,0,.39-.27,1.05,1.05,0,0,0,.27-.39,1.27,1.27,0,0,0,.09-.47V72.83a1.18,1.18,0,0,0-.09-.46,1.09,1.09,0,0,0-.27-.4,1.2,1.2,0,0,0-.86-.35H252.47V64.28h16.84a1.23,1.23,0,0,0,1.22-1.22V58.64a1.27,1.27,0,0,0-.09-.47,1.18,1.18,0,0,0-.27-.4,1.2,1.2,0,0,0-.86-.35H246.54a1.22,1.22,0,0,0-.86.36,1.24,1.24,0,0,0-.35.86v33a1.21,1.21,0,0,0,1.21,1.21h23a1.22,1.22,0,0,0,.86-.36,1.18,1.18,0,0,0,.36-.85V87.16a1.28,1.28,0,0,0-.38-.86,1.16,1.16,0,0,0-.41-.25,1.13,1.13,0,0,0-.48-.08ZM312,57.48h-4.86a1.23,1.23,0,0,0-1.21,1.22v23c0,3.59-3.49,4.86-6.75,4.86-4.7,0-7.09-1.65-7.09-4.86V58.66a1.19,1.19,0,0,0-.35-.86,1.22,1.22,0,0,0-.86-.36H286a1.22,1.22,0,0,0-.86.36,1.19,1.19,0,0,0-.36.86V82c0,7.22,5.06,11.19,14.23,11.19,8.86,0,14.15-4.08,14.15-10.9V58.66a1.19,1.19,0,0,0-.36-.82A1.21,1.21,0,0,0,312,57.48Zm50.35,0h-6.54a1.27,1.27,0,0,0-.71.22,1.23,1.23,0,0,0-.44.59L346.17,81.8l-8.29-23.54a1.21,1.21,0,0,0-.45-.59,1.23,1.23,0,0,0-.71-.23H330a1.23,1.23,0,0,0-1.22,1.22v33a1.19,1.19,0,0,0,.36.86,1.2,1.2,0,0,0,.86.36h4.54a1.23,1.23,0,0,0,1.22-1.22V73.35L342.38,92a1.13,1.13,0,0,0,.44.59,1.17,1.17,0,0,0,.7.23h5.05a1.26,1.26,0,0,0,.7-.22,1.23,1.23,0,0,0,.44-.59l6.8-18.85V91.63a1.24,1.24,0,0,0,.37.86,1.2,1.2,0,0,0,.86.36h4.55a1.23,1.23,0,0,0,1.21-1.22v-33a1.25,1.25,0,0,0-.35-.82A1.21,1.21,0,0,0,362.33,57.48Z"/><path class="cls-1" d="M100.85,95.68a3.94,3.94,0,0,1,1.2-.9,3.61,3.61,0,0,1,1.44-.37l2.24-12.61a4,4,0,0,1-.69-.4L95.27,90a3.85,3.85,0,0,1,.32,2.8Zm22.56,9.73-13.9-24.08a3.88,3.88,0,0,1-2.06.77l-2.28,12.61a3.8,3.8,0,0,1,2.29,3.14,3.79,3.79,0,0,1-.36,2,3.79,3.79,0,0,1-3.25,2.14,3.88,3.88,0,0,1-2-.45,3.82,3.82,0,0,1-1.45-1.4,3.72,3.72,0,0,1-.4-2.94l-5.28-2.85a3.77,3.77,0,0,1-2.49,1.27l-1.43,10.71a3.75,3.75,0,0,1,2.4,4.12h27.28a3.37,3.37,0,0,0,1.67-.45,3.38,3.38,0,0,0,1.67-2.9,3.39,3.39,0,0,0-.44-1.67Zm-42-28.15a3.86,3.86,0,0,1-.6-2.06,3.71,3.71,0,0,1,.55-2L68.19,60.55a3.66,3.66,0,0,1-1.31.53l-1,30.45a4,4,0,0,1,1,.42ZM69.93,57.34a3.82,3.82,0,0,1-.54,1.95L82.5,72a3.79,3.79,0,0,1,2.06-.61,3.81,3.81,0,0,1,3.78,3.43l15.34,2.1a3.9,3.9,0,0,1,.82-1.27,3.79,3.79,0,0,1,1.24-.86L84.06,37.23a3.34,3.34,0,0,0-5.79,0L68.41,54.31a3.73,3.73,0,0,1,1.12,1.34A3.79,3.79,0,0,1,69.93,57.34ZM88.36,93.12,68.71,95.57a4.12,4.12,0,0,1-.16.76l18.21,10.88a3.74,3.74,0,0,1,2.37-1.15l1.44-10.71a3.79,3.79,0,0,1-2.21-2.2ZM84.57,79a3.8,3.8,0,0,1-2-.55L68.18,93.16a3.3,3.3,0,0,1,.36.73l19.64-2.44A3.8,3.8,0,0,1,88.66,90a3.67,3.67,0,0,1,1-1.16l-4.37-9.89A3.64,3.64,0,0,1,84.57,79ZM67.66,97.86a3.81,3.81,0,0,1-1.48,1,3.83,3.83,0,0,1-3.39-.46A3.9,3.9,0,0,1,61.61,97a3.85,3.85,0,0,1-.46-1.7,3.79,3.79,0,0,1,.35-1.72,3.89,3.89,0,0,1,1.1-1.38,3.77,3.77,0,0,1,1.6-.73l1-30.45a2.84,2.84,0,0,1-.49-.17L39,105.41a3.31,3.31,0,0,0-.45,1.68,3.4,3.4,0,0,0,.45,1.67A3.25,3.25,0,0,0,40.17,110a3.3,3.3,0,0,0,1.67.45H85.75a3.43,3.43,0,0,1,0-.56,3.8,3.8,0,0,1,.18-1.16Zm24.25-9.78a3.68,3.68,0,0,1,2.2.69l9.77-8.64a3.93,3.93,0,0,1-.44-1.46L88.1,76.57a3.84,3.84,0,0,1-1.27,1.68l4.38,9.88a3.27,3.27,0,0,1,.7-.08Z"/></svg>