<svg id="Layer_1" data-name="Layer 1" xmlns="http://www.w3.org/2000/svg" viewBox="0 0 402 146"><defs><style>.cls-1{fill:#fff;}</style></defs><path class="cls-1" d="M172.39,93.35c-2.53.81-3.88,4-1.75,6a3.86,3.86,0,0,0,6.41-2.37A3.53,3.53,0,0,0,172.39,93.35Zm0,0c-2.53.81-3.88,4-1.75,6a3.86,3.86,0,0,0,6.41-2.37A3.53,3.53,0,0,0,172.39,93.35Zm0,0c-2.53.81-3.88,4-1.75,6a3.86,3.86,0,0,0,6.41-2.37A3.53,3.53,0,0,0,172.39,93.35Zm0,0c-2.53.81-3.88,4-1.75,6a3.86,3.86,0,0,0,6.41-2.37A3.53,3.53,0,0,0,172.39,93.35Zm0,0c-2.53.81-3.88,4-1.75,6a3.86,3.86,0,0,0,6.41-2.37A3.53,3.53,0,0,0,172.39,93.35Zm23.71,22.74c-1,2.09-1.9,4.19-2.81,6.31h2.92C196.18,120.3,196.13,118.19,196.1,116.09Zm0,0c-1,2.09-1.9,4.19-2.81,6.31h2.92C196.18,120.3,196.13,118.19,196.1,116.09ZM172.39,93.35c-2.53.81-3.88,4-1.75,6a3.86,3.86,0,0,0,6.41-2.37A3.53,3.53,0,0,0,172.39,93.35Zm0,0c-2.53.81-3.88,4-1.75,6a3.86,3.86,0,0,0,6.41-2.37A3.53,3.53,0,0,0,172.39,93.35Zm23.71,22.74c-1,2.09-1.9,4.19-2.81,6.31h2.92C196.18,120.3,196.13,118.19,196.1,116.09Zm0,0c-1,2.09-1.9,4.19-2.81,6.31h2.92C196.18,120.3,196.13,118.19,196.1,116.09ZM172.39,93.35c-2.53.81-3.88,4-1.75,6a3.86,3.86,0,0,0,6.41-2.37A3.53,3.53,0,0,0,172.39,93.35Zm-9.5-32.45c-3.5-1.08-6.28,1.79-6.71,5.07-.44,3.09.46,7.61,3.32,9.36,2.89,1.54,5.05-1.73,5-4.35.36-3.85-2.13-5.66-4.34-8.3a25.68,25.68,0,0,1,5.41,2.67,49.37,49.37,0,0,1,4.56,5.32C168.81,66.48,167.38,62.53,162.89,60.9Zm9.5,32.45c-2.53.81-3.88,4-1.75,6a3.86,3.86,0,0,0,6.41-2.37A3.53,3.53,0,0,0,172.39,93.35Zm23.71,22.74c-1,2.09-1.9,4.19-2.81,6.31h2.92C196.18,120.3,196.13,118.19,196.1,116.09Zm1.8-89.18a25.38,25.38,0,0,0-6.23-2.26,37.78,37.78,0,0,0-8.36,5.67c0,2.64,0,5.29,0,7.93l8.12,2.37L198,35.54A75.25,75.25,0,0,0,197.9,26.91Zm20.89,3.37a42.18,42.18,0,0,0-8.08-5.53c-2.21.5-4.41,1.13-6.59,1.75l-.06,9c2.06,1.62,4.12,3.22,6.17,4.82,2.85-.75,5.72-1.49,8.58-2.22C218.8,35.49,218.77,32.89,218.79,30.28ZM240,60.71c-5,1.16-6.8,5.74-8,10.21a40.42,40.42,0,0,1,4.48-5.5,27.27,27.27,0,0,1,5.43-2.78c-1.68,2.12-4.3,4.4-4.3,7.28-.08,2.6.62,5.29,3.51,5.88,3.48-.43,4.82-4.89,5-7.85C246.26,64.34,244.11,60.26,240,60.71ZM196.1,116.09c-1,2.09-1.9,4.19-2.81,6.31h2.92C196.18,120.3,196.13,118.19,196.1,116.09ZM172.39,93.35c-2.53.81-3.88,4-1.75,6a3.86,3.86,0,0,0,6.41-2.37A3.53,3.53,0,0,0,172.39,93.35ZM240,60.71c-5,1.16-6.8,5.74-8,10.21a40.42,40.42,0,0,1,4.48-5.5,27.27,27.27,0,0,1,5.43-2.78c-1.68,2.12-4.3,4.4-4.3,7.28-.08,2.6.62,5.29,3.51,5.88,3.48-.43,4.82-4.89,5-7.85C246.26,64.34,244.11,60.26,240,60.71ZM218.79,30.28a42.18,42.18,0,0,0-8.08-5.53c-2.21.5-4.41,1.13-6.59,1.75l-.06,9c2.06,1.62,4.12,3.22,6.17,4.82,2.85-.75,5.72-1.49,8.58-2.22C218.8,35.49,218.77,32.89,218.79,30.28ZM197.9,26.91a25.38,25.38,0,0,0-6.23-2.26,37.78,37.78,0,0,0-8.36,5.67c0,2.64,0,5.29,0,7.93l8.12,2.37L198,35.54A75.25,75.25,0,0,0,197.9,26.91Zm-35,34c-3.5-1.08-6.28,1.79-6.71,5.07-.44,3.09.46,7.61,3.32,9.36,2.89,1.54,5.05-1.73,5-4.35.36-3.85-2.13-5.66-4.34-8.3a25.68,25.68,0,0,1,5.41,2.67,49.37,49.37,0,0,1,4.56,5.32C168.81,66.48,167.38,62.53,162.89,60.9Zm0,0c-3.5-1.08-6.28,1.79-6.71,5.07-.44,3.09.46,7.61,3.32,9.36,2.89,1.54,5.05-1.73,5-4.35.36-3.85-2.13-5.66-4.34-8.3a25.68,25.68,0,0,1,5.41,2.67,49.37,49.37,0,0,1,4.56,5.32C168.81,66.48,167.38,62.53,162.89,60.9Zm9.5,32.45c-2.53.81-3.88,4-1.75,6a3.86,3.86,0,0,0,6.41-2.37A3.53,3.53,0,0,0,172.39,93.35Zm23.71,22.74c-1,2.09-1.9,4.19-2.81,6.31h2.92C196.18,120.3,196.13,118.19,196.1,116.09Zm1.8-89.18a25.38,25.38,0,0,0-6.23-2.26,37.78,37.78,0,0,0-8.36,5.67c0,2.64,0,5.29,0,7.93l8.12,2.37L198,35.54A75.25,75.25,0,0,0,197.9,26.91Zm20.89,3.37a42.18,42.18,0,0,0-8.08-5.53c-2.21.5-4.41,1.13-6.59,1.75l-.06,9c2.06,1.62,4.12,3.22,6.17,4.82,2.85-.75,5.72-1.49,8.58-2.22C218.8,35.49,218.77,32.89,218.79,30.28ZM240,60.71c-5,1.16-6.8,5.74-8,10.21a40.42,40.42,0,0,1,4.48-5.5,27.27,27.27,0,0,1,5.43-2.78c-1.68,2.12-4.3,4.4-4.3,7.28-.08,2.6.62,5.29,3.51,5.88,3.48-.43,4.82-4.89,5-7.85C246.26,64.34,244.11,60.26,240,60.71ZM196.1,116.09c-1,2.09-1.9,4.19-2.81,6.31h2.92C196.18,120.3,196.13,118.19,196.1,116.09ZM172.39,93.35c-2.53.81-3.88,4-1.75,6a3.86,3.86,0,0,0,6.41-2.37A3.53,3.53,0,0,0,172.39,93.35ZM240,60.71c-5,1.16-6.8,5.74-8,10.21a40.42,40.42,0,0,1,4.48-5.5,27.27,27.27,0,0,1,5.43-2.78c-1.68,2.12-4.3,4.4-4.3,7.28-.08,2.6.62,5.29,3.51,5.88,3.48-.43,4.82-4.89,5-7.85C246.26,64.34,244.11,60.26,240,60.71Zm-29.27-36c-2.21.5-4.41,1.13-6.59,1.75l-.06,9c2.06,1.62,4.12,3.22,6.17,4.82,2.85-.75,5.72-1.49,8.58-2.22,0-2.6,0-5.2,0-7.81A42.18,42.18,0,0,0,210.71,24.75Zm-19-.1a37.78,37.78,0,0,0-8.36,5.67c0,2.64,0,5.29,0,7.93l8.12,2.37L198,35.54a75.25,75.25,0,0,0-.14-8.63A25.38,25.38,0,0,0,191.67,24.65ZM162.89,60.9c-3.5-1.08-6.28,1.79-6.71,5.07-.44,3.09.46,7.61,3.32,9.36,2.89,1.54,5.05-1.73,5-4.35.36-3.85-2.13-5.66-4.34-8.3a25.68,25.68,0,0,1,5.41,2.67,49.37,49.37,0,0,1,4.56,5.32C168.81,66.48,167.38,62.53,162.89,60.9Zm57.35,46.59c16.27-1.22,32.64-1.24,48.94-2.17,1.64-8.57,3.44-17.1,5-25.69-7.85.38-15.71.84-23.58,1,5.5-6.92,6.61-17,.83-24.14-2.66-3.33-6.22-4.16-10.1-5.37,2.59-5.23,5-10.54,7.58-15.81-5,0-10,0-15.05,0-2.76-6.33-6.34-12-12-16.19a34.45,34.45,0,0,0-48.14,6.54,56.75,56.75,0,0,0-5.47,9.66c-5-.07-10-.15-15-.21,2.5,5.37,5,10.74,7.6,16-3.45,1.08-6.66,1.72-9.28,4.39-5.21,5.28-5.86,13.27-3.14,19.95,1.49,3.87,4.2,6.55,7.13,9.37q-11.31.52-22.58.93c-1.68,8.57-3.29,17.15-5.12,25.68,6.51-.24,13-.5,19.51-.86-1.75,7-3.24,14-5,21,41.9.84,83.82,1.48,125.72,2.32,2-8.44,3.87-16.91,6-25.32-10.37-.21-20.73-.43-31.08-.51C235.38,108.06,227.85,107.31,220.24,107.49Zm7.09-4.29c-2.52.09-5.06.18-7.59.29-1.31-2.67-2.62-5.35-4-8-.19,2.7-.41,5.41-.55,8.12l-7.12.25c.59-5.81,1-11.64,1.74-17.44,2.33-.24,4.69-.34,7-.48-.33,2.7-.77,5.38-1.13,8.07,1.82-2.69,3.53-5.46,5.22-8.23l8.35-.31c-2.52,3.05-5,6.15-7.48,9.23Q224.57,99,227.33,103.2Zm-34.72,1.34-7.36.34c.79-5.8,1-11.71,1.94-17.47,2.3-.34,4.68-.38,7-.51,1.84,3.5,3.63,7,5.71,10.38,0-3.52-.08-7-.12-10.58l7.29-.3c-.6,5.9-1.13,11.8-1.75,17.69l-6.76.3c-2-3.39-3.9-6.85-5.93-10.21C192.57,97.64,192.58,101.09,192.61,104.54Zm17.32-36.12c-3.22-.21-5.88-2.93-8.92-3.33-3,.44-5.72,3.2-9,3.34-4,.33-7-2.06-10.45-3.74V59c13,.06,25.95.08,38.92,0,0,1.89,0,3.78,0,5.68C217,66.42,214.05,68.81,209.93,68.42Zm-4.64,13.32c-3.92-1.74-2.12-7.93,1.1-9.45,2.26-1.07,4.07.56,4.42,2.78C211.24,78.21,208.89,82.46,205.29,81.74Zm-12-9.66c4.88-1.11,8.17,7.46,3.55,9.8C192.07,82.62,189,74.55,193.26,72.08Zm50.55,17.35-5.87.31c-.09.64-.2,1.28-.3,1.92l5.46-.19q-.22,2.07-.42,4.14c-2.62.46-4.69-.26-6.29,2.36,2.28,0,4.54-.07,6.81-.17-.14,1.57-.3,3.14-.45,4.71-4.39.18-8.8.32-13.19.56.76-5.79.87-11.69,1.81-17.45,4.25-.58,8.58-.47,12.86-.77C244.08,86.38,243.94,87.91,243.81,89.43Zm10-4.92,1.66,4.95a38.17,38.17,0,0,1,2.78-5,76.35,76.35,0,0,1,8.41-.61c-2.22,3-4.68,5.94-6.83,9-1.77,2.34-1.44,6.15-1.86,9l-7.08.29q.4-3.78.86-7.57-2.88-4.93-5.8-9.85Q249.92,84.66,253.85,84.51Zm-98.4-4.05c-6.15-5.79-7.9-17.19-1.13-23.19,3.62-3.26,7.66-2.84,12.07-1.77-3-5.64-5.46-11.53-8.29-17.25,4.15.08,8.33.13,12.5.17,2.77-8.46,8.09-15.65,16.13-19.72a31.41,31.41,0,0,1,34,3.5c5.35,4.2,8.57,9.94,10.81,16.27,4.16-.06,8.33-.07,12.51-.07-2.9,5.66-5.34,11.5-8.36,17.08,3.1-.54,5.87-1.4,8.93-.14,5.44,2.2,7.94,8,7.44,13.63-.31,4.36-2.57,7.32-4.14,11.21a33.92,33.92,0,0,1-7.94,1q-10.86.36-21.73.9c0-2.74,0-5.47-.08-8.21,2.39-1.75,4.77-3.49,7.19-5.21,0-5.24,0-10.47,0-15.7-16.2.06-32.43,0-48.63,0V68.68c2.36,1.71,4.69,3.44,7,5.19,0,3.24,0,6.47.25,9.7-5.58.25-11.19.61-16.78.77C162.81,84.37,158.69,83.68,155.45,80.46Zm27.48,20.43c-4.06,6.66-15.86,6.59-19.6-.31-2.44-4.82.41-10.15,5.07-12.16,4.37-1.91,10.4-1.19,13.72,2.39A8.48,8.48,0,0,1,182.93,100.89Zm-36.87,5.62c-.44-3.45-.77-6.91-1.24-10.36-.92,3.44-1.59,6.92-2.2,10.42l-7.26.34c1.82-5.79,3-11.82,5.13-17.5a64.78,64.78,0,0,1,8.25-.67c.07,3.31.12,6.62.19,9.93,1.42-3.28,2.58-6.65,3.75-10l7.52-.27q.26,8.72.74,17.43l-6.93.41c.28-3.46.51-6.91.53-10.38-1.5,3.41-2.67,6.89-3.9,10.41Zm20.09,21.7c-4.42-.07-8.85-.17-13.28-.36,1-5.81,1.89-11.64,2.81-17.46l7.3.18c-.71,4.05-1.36,8.1-2.08,12.15h6.17C166.76,124.56,166.45,126.38,166.15,128.21Zm16.27-4.42c-.23,1.54-.44,3.08-.68,4.62-4.43,0-8.86-.1-13.29-.17,1-5.82,1.92-11.67,2.81-17.51q6.51.09,13,.29l-.75,4.53-7.14-.09c-.17.6-.34,1.2-.49,1.8l6.94.23c-.28,1.41-.55,2.83-.82,4.24-2.25,0-4.5-.06-6.75-.07q0,1-.06,2Q178.77,123.73,182.42,123.79Zm14.89,4.94c-1.25-2.79-2.83-2.16-5.42-2.65l-1.33,2.6c-2.51-.08-5-.16-7.56-.22,3.36-5.6,5.93-11.71,9.54-17.13a59.6,59.6,0,0,1,8.13,0q1.53,8.81,3.28,17.57C201.74,128.84,199.52,128.8,197.31,128.73Zm24.52-.92c-3.76,2.54-10.66,2.43-14.21-.47a8.58,8.58,0,0,1-.91-12.63c4.93-5,14.1-4.78,18.85.51-2.07.74-4.13,1.44-6.2,2.1-1.57-.24-3.8-1.28-5.29-.43-2.68,1.4-3.82,5-1.14,7.12,2.4,1.57,3.94.14,6.18-.84l-3.68-.51c.24-1.1.46-2.2.69-3.3,3.42,0,6.82.11,10.24.2C225.45,122.85,224.9,125.81,221.83,127.81Zm41.5-15.25c-.27,1.47-.52,3-.79,4.43-1.8.22-5-.53-6.23.84-.13,1.77,4.19,1,5.49,1.4-.25,1.37-.49,2.74-.74,4.12l-5.25-.16c-.19.68-.36,1.36-.52,2,2.09,0,4.2.1,6.29.13-.31,1.57-.63,3.14-.94,4.7-4.35-.17-8.72-.26-13.08-.29,1-5.81,1.86-11.64,2.8-17.46Q256.84,112.48,263.33,112.56Zm-17.84,12.16c-.82,3.37-4.26,5-7.49,5.25-3.55.25-8.33-.58-10.1-4.11-.86-3.46.47-7.63.9-11.15.16-1,.33-1.93.51-2.89,2.39.06,4.8.14,7.19.22a111.42,111.42,0,0,0-1.7,12c.83.17,2.94,1.27,3.21-.07,1.67-3.55,1.63-8.05,2.38-11.89l7.29.16C246.93,116.41,246.56,120.66,245.49,124.72Zm-3.63-62.08c-1.68,2.12-4.3,4.4-4.3,7.28-.08,2.6.62,5.29,3.51,5.88,3.48-.43,4.82-4.89,5-7.85.21-3.61-1.94-7.69-6.07-7.24-5,1.16-6.8,5.74-8,10.21a40.42,40.42,0,0,1,4.48-5.5A27.27,27.27,0,0,1,241.86,62.64ZM218.81,38.09c0-2.6,0-5.2,0-7.81a42.18,42.18,0,0,0-8.08-5.53c-2.21.5-4.41,1.13-6.59,1.75l-.06,9c2.06,1.62,4.12,3.22,6.17,4.82C213.08,39.56,216,38.82,218.81,38.09ZM198,35.54a75.25,75.25,0,0,0-.14-8.63,25.38,25.38,0,0,0-6.23-2.26,37.78,37.78,0,0,0-8.36,5.67c0,2.64,0,5.29,0,7.93l8.12,2.37Zm-4.75,86.86h2.92c0-2.11-.08-4.22-.11-6.32C195.12,118.18,194.2,120.28,193.29,122.4Zm-20.9-29.05c-2.53.81-3.88,4-1.75,6a3.86,3.86,0,0,0,6.41-2.37A3.53,3.53,0,0,0,172.39,93.35Zm-9.5-32.45c-3.5-1.08-6.28,1.79-6.71,5.07-.44,3.09.46,7.61,3.32,9.36,2.89,1.54,5.05-1.73,5-4.35.36-3.85-2.13-5.66-4.34-8.3a25.68,25.68,0,0,1,5.41,2.67,49.37,49.37,0,0,1,4.56,5.32C168.81,66.48,167.38,62.53,162.89,60.9Zm0,0c-3.5-1.08-6.28,1.79-6.71,5.07-.44,3.09.46,7.61,3.32,9.36,2.89,1.54,5.05-1.73,5-4.35.36-3.85-2.13-5.66-4.34-8.3a25.68,25.68,0,0,1,5.41,2.67,49.37,49.37,0,0,1,4.56,5.32C168.81,66.48,167.38,62.53,162.89,60.9Zm35-34a25.38,25.38,0,0,0-6.23-2.26,37.78,37.78,0,0,0-8.36,5.67c0,2.64,0,5.29,0,7.93l8.12,2.37L198,35.54A75.25,75.25,0,0,0,197.9,26.91Zm20.89,3.37a42.18,42.18,0,0,0-8.08-5.53c-2.21.5-4.41,1.13-6.59,1.75l-.06,9c2.06,1.62,4.12,3.22,6.17,4.82,2.85-.75,5.72-1.49,8.58-2.22C218.8,35.49,218.77,32.89,218.79,30.28ZM240,60.71c-5,1.16-6.8,5.74-8,10.21a40.42,40.42,0,0,1,4.48-5.5,27.27,27.27,0,0,1,5.43-2.78c-1.68,2.12-4.3,4.4-4.3,7.28-.08,2.6.62,5.29,3.51,5.88,3.48-.43,4.82-4.89,5-7.85C246.26,64.34,244.11,60.26,240,60.71ZM172.39,93.35c-2.53.81-3.88,4-1.75,6a3.86,3.86,0,0,0,6.41-2.37A3.53,3.53,0,0,0,172.39,93.35Zm23.71,22.74c-1,2.09-1.9,4.19-2.81,6.31h2.92C196.18,120.3,196.13,118.19,196.1,116.09ZM240,60.71c-5,1.16-6.8,5.74-8,10.21a40.42,40.42,0,0,1,4.48-5.5,27.27,27.27,0,0,1,5.43-2.78c-1.68,2.12-4.3,4.4-4.3,7.28-.08,2.6.62,5.29,3.51,5.88,3.48-.43,4.82-4.89,5-7.85C246.26,64.34,244.11,60.26,240,60.71ZM218.79,30.28a42.18,42.18,0,0,0-8.08-5.53c-2.21.5-4.41,1.13-6.59,1.75l-.06,9c2.06,1.62,4.12,3.22,6.17,4.82,2.85-.75,5.72-1.49,8.58-2.22C218.8,35.49,218.77,32.89,218.79,30.28ZM197.9,26.91a25.38,25.38,0,0,0-6.23-2.26,37.78,37.78,0,0,0-8.36,5.67c0,2.64,0,5.29,0,7.93l8.12,2.37L198,35.54A75.25,75.25,0,0,0,197.9,26.91Zm-1.8,89.18c-1,2.09-1.9,4.19-2.81,6.31h2.92C196.18,120.3,196.13,118.19,196.1,116.09ZM172.39,93.35c-2.53.81-3.88,4-1.75,6a3.86,3.86,0,0,0,6.41-2.37A3.53,3.53,0,0,0,172.39,93.35Zm-9.5-32.45c-3.5-1.08-6.28,1.79-6.71,5.07-.44,3.09.46,7.61,3.32,9.36,2.89,1.54,5.05-1.73,5-4.35.36-3.85-2.13-5.66-4.34-8.3a25.68,25.68,0,0,1,5.41,2.67,49.37,49.37,0,0,1,4.56,5.32C168.81,66.48,167.38,62.53,162.89,60.9Zm9.5,32.45c-2.53.81-3.88,4-1.75,6a3.86,3.86,0,0,0,6.41-2.37A3.53,3.53,0,0,0,172.39,93.35Zm23.71,22.74c-1,2.09-1.9,4.19-2.81,6.31h2.92C196.18,120.3,196.13,118.19,196.1,116.09Zm0,0c-1,2.09-1.9,4.19-2.81,6.31h2.92C196.18,120.3,196.13,118.19,196.1,116.09ZM172.39,93.35c-2.53.81-3.88,4-1.75,6a3.86,3.86,0,0,0,6.41-2.37A3.53,3.53,0,0,0,172.39,93.35Zm0,0c-2.53.81-3.88,4-1.75,6a3.86,3.86,0,0,0,6.41-2.37A3.53,3.53,0,0,0,172.39,93.35Zm23.71,22.74c-1,2.09-1.9,4.19-2.81,6.31h2.92C196.18,120.3,196.13,118.19,196.1,116.09Zm0,0c-1,2.09-1.9,4.19-2.81,6.31h2.92C196.18,120.3,196.13,118.19,196.1,116.09ZM172.39,93.35c-2.53.81-3.88,4-1.75,6a3.86,3.86,0,0,0,6.41-2.37A3.53,3.53,0,0,0,172.39,93.35Zm0,0c-2.53.81-3.88,4-1.75,6a3.86,3.86,0,0,0,6.41-2.37A3.53,3.53,0,0,0,172.39,93.35Zm0,0c-2.53.81-3.88,4-1.75,6a3.86,3.86,0,0,0,6.41-2.37A3.53,3.53,0,0,0,172.39,93.35Zm0,0c-2.53.81-3.88,4-1.75,6a3.86,3.86,0,0,0,6.41-2.37A3.53,3.53,0,0,0,172.39,93.35Zm0,0c-2.53.81-3.88,4-1.75,6a3.86,3.86,0,0,0,6.41-2.37A3.53,3.53,0,0,0,172.39,93.35Z"/><path class="cls-1" d="M250.56,80.64l-2.64-.46c1.57-3.89,3.83-6.85,4.14-11.21.5-5.6-2-11.43-7.44-13.63-3.06-1.26-5.83-.4-8.93.14,3-5.58,5.46-11.42,8.36-17.08-4.18,0-8.35,0-12.51.07-2.24-6.33-5.46-12.07-10.81-16.27a31.41,31.41,0,0,0-34-3.5c-8,4.07-13.36,11.26-16.13,19.72-4.17,0-8.35-.09-12.5-.17,2.83,5.72,5.28,11.61,8.29,17.25-4.41-1.07-8.45-1.49-12.07,1.77-6.77,6-5,17.4,1.13,23.19,3.24,3.22,7.36,3.91,11.78,3.88-3.9.14-7.79.36-11.67.52-2.93-2.82-5.64-5.5-7.13-9.37-2.72-6.68-2.07-14.67,3.14-19.95,2.62-2.67,5.83-3.31,9.28-4.39-2.62-5.3-5.1-10.67-7.6-16,5,.06,10,.14,15,.21a56.75,56.75,0,0,1,5.47-9.66,34.45,34.45,0,0,1,48.14-6.54c5.66,4.14,9.24,9.86,12,16.19,5,0,10,0,15.05,0-2.55,5.27-5,10.58-7.58,15.81,3.88,1.21,7.44,2,10.1,5.37C257.17,63.6,256.06,73.72,250.56,80.64Z"/><path class="cls-1" d="M170.12,70.67a49.37,49.37,0,0,0-4.56-5.32,25.68,25.68,0,0,0-5.41-2.67c2.21,2.64,4.7,4.45,4.34,8.3.06,2.62-2.1,5.89-5,4.35-2.86-1.75-3.76-6.27-3.32-9.36.43-3.28,3.21-6.15,6.71-5.07C167.38,62.53,168.81,66.48,170.12,70.67Z"/><path class="cls-1" d="M197.9,26.91a75.25,75.25,0,0,1,.14,8.63l-6.62,5.08-8.12-2.37c0-2.64,0-5.29,0-7.93a37.78,37.78,0,0,1,8.36-5.67A25.38,25.38,0,0,1,197.9,26.91Z"/><path class="cls-1" d="M218.79,30.28c0,2.61,0,5.21,0,7.81-2.86.73-5.73,1.47-8.58,2.22-2-1.6-4.11-3.2-6.17-4.82l.06-9c2.18-.62,4.38-1.25,6.59-1.75A42.18,42.18,0,0,1,218.79,30.28Z"/><path class="cls-1" d="M246.05,68c-.16,3-1.5,7.42-5,7.85-2.89-.59-3.59-3.28-3.51-5.88,0-2.88,2.62-5.16,4.3-7.28a27.27,27.27,0,0,0-5.43,2.78,40.42,40.42,0,0,0-4.48,5.5c1.23-4.47,3-9.05,8-10.21C244.11,60.26,246.26,64.34,246.05,68Z"/><path class="cls-1" d="M198,35.54l-6.62,5.08-8.12-2.37c0-2.64,0-5.29,0-7.93a37.78,37.78,0,0,1,8.36-5.67,25.38,25.38,0,0,1,6.23,2.26A75.25,75.25,0,0,1,198,35.54Z"/><path class="cls-1" d="M218.81,38.09c-2.86.73-5.73,1.47-8.58,2.22-2-1.6-4.11-3.2-6.17-4.82l.06-9c2.18-.62,4.38-1.25,6.59-1.75a42.18,42.18,0,0,1,8.08,5.53C218.77,32.89,218.8,35.49,218.81,38.09Z"/><path class="cls-1" d="M225.37,53c-16.2.06-32.43,0-48.63,0V68.68c2.36,1.71,4.69,3.44,7,5.19,0,3.24,0,6.47.25,9.7,11.42-.4,22.82-1,34.24-1.45,0-2.74,0-5.47-.08-8.21,2.39-1.75,4.77-3.49,7.19-5.21C225.38,63.46,225.37,58.23,225.37,53ZM196.81,81.88c-4.74.74-7.86-7.33-3.55-9.8C198.14,71,201.43,79.54,196.81,81.88Zm8.48-.14c-3.92-1.74-2.12-7.93,1.1-9.45,2.26-1.07,4.07.56,4.42,2.78C211.24,78.21,208.89,82.46,205.29,81.74Zm4.64-13.32c-3.22-.21-5.88-2.93-8.92-3.33-3,.44-5.72,3.2-9,3.34-4,.33-7-2.06-10.45-3.74V59c13,.06,25.95.08,38.92,0,0,1.89,0,3.78,0,5.68C217,66.42,214.05,68.81,209.93,68.42Z"/><path class="cls-1" d="M170.12,70.67a49.37,49.37,0,0,0-4.56-5.32,25.68,25.68,0,0,0-5.41-2.67c2.21,2.64,4.7,4.45,4.34,8.3.06,2.62-2.1,5.89-5,4.35-2.86-1.75-3.76-6.27-3.32-9.36.43-3.28,3.21-6.15,6.71-5.07C167.38,62.53,168.81,66.48,170.12,70.67Z"/><path class="cls-1" d="M246.05,68c-.16,3-1.5,7.42-5,7.85-2.89-.59-3.59-3.28-3.51-5.88,0-2.88,2.62-5.16,4.3-7.28a27.27,27.27,0,0,0-5.43,2.78,40.42,40.42,0,0,0-4.48,5.5c1.23-4.47,3-9.05,8-10.21C244.11,60.26,246.26,64.34,246.05,68Z"/><path class="cls-1" d="M172.39,93.35c-2.53.81-3.88,4-1.75,6a3.86,3.86,0,0,0,6.41-2.37A3.53,3.53,0,0,0,172.39,93.35Zm0,0c-2.53.81-3.88,4-1.75,6a3.86,3.86,0,0,0,6.41-2.37A3.53,3.53,0,0,0,172.39,93.35Zm0,0c-2.53.81-3.88,4-1.75,6a3.86,3.86,0,0,0,6.41-2.37A3.53,3.53,0,0,0,172.39,93.35Zm0,0c-2.53.81-3.88,4-1.75,6a3.86,3.86,0,0,0,6.41-2.37A3.53,3.53,0,0,0,172.39,93.35Zm0,0c-2.53.81-3.88,4-1.75,6a3.86,3.86,0,0,0,6.41-2.37A3.53,3.53,0,0,0,172.39,93.35Zm23.71,22.74c-1,2.09-1.9,4.19-2.81,6.31h2.92C196.18,120.3,196.13,118.19,196.1,116.09Zm0,0c-1,2.09-1.9,4.19-2.81,6.31h2.92C196.18,120.3,196.13,118.19,196.1,116.09ZM172.39,93.35c-2.53.81-3.88,4-1.75,6a3.86,3.86,0,0,0,6.41-2.37A3.53,3.53,0,0,0,172.39,93.35Zm0,0c-2.53.81-3.88,4-1.75,6a3.86,3.86,0,0,0,6.41-2.37A3.53,3.53,0,0,0,172.39,93.35Zm23.71,22.74c-1,2.09-1.9,4.19-2.81,6.31h2.92C196.18,120.3,196.13,118.19,196.1,116.09Zm0,0c-1,2.09-1.9,4.19-2.81,6.31h2.92C196.18,120.3,196.13,118.19,196.1,116.09ZM172.39,93.35c-2.53.81-3.88,4-1.75,6a3.86,3.86,0,0,0,6.41-2.37A3.53,3.53,0,0,0,172.39,93.35Zm0,0c-2.53.81-3.88,4-1.75,6a3.86,3.86,0,0,0,6.41-2.37A3.53,3.53,0,0,0,172.39,93.35Zm23.71,22.74c-1,2.09-1.9,4.19-2.81,6.31h2.92C196.18,120.3,196.13,118.19,196.1,116.09Zm0,0c-1,2.09-1.9,4.19-2.81,6.31h2.92C196.18,120.3,196.13,118.19,196.1,116.09ZM172.39,93.35c-2.53.81-3.88,4-1.75,6a3.86,3.86,0,0,0,6.41-2.37A3.53,3.53,0,0,0,172.39,93.35Zm0,0c-2.53.81-3.88,4-1.75,6a3.86,3.86,0,0,0,6.41-2.37A3.53,3.53,0,0,0,172.39,93.35Zm23.71,22.74c-1,2.09-1.9,4.19-2.81,6.31h2.92C196.18,120.3,196.13,118.19,196.1,116.09Zm0,0c-1,2.09-1.9,4.19-2.81,6.31h2.92C196.18,120.3,196.13,118.19,196.1,116.09ZM172.39,93.35c-2.53.81-3.88,4-1.75,6a3.86,3.86,0,0,0,6.41-2.37A3.53,3.53,0,0,0,172.39,93.35Zm47.85,14.14c16.27-1.22,32.64-1.24,48.94-2.17,1.64-8.57,3.44-17.1,5-25.69-7.85.38-15.71.84-23.58,1l-2.64-.46a33.92,33.92,0,0,1-7.94,1q-10.86.36-21.73.9c-11.42.47-22.82,1-34.24,1.45-5.58.25-11.19.61-16.78.77-3.9.14-7.79.36-11.67.52q-11.31.52-22.58.93c-1.68,8.57-3.29,17.15-5.12,25.68,6.51-.24,13-.5,19.51-.86-1.75,7-3.24,14-5,21,41.9.84,83.82,1.48,125.72,2.32,2-8.44,3.87-16.91,6-25.32-10.37-.21-20.73-.43-31.08-.51C235.38,108.06,227.85,107.31,220.24,107.49Zm33.61-23,1.66,4.95a38.17,38.17,0,0,1,2.78-5,76.35,76.35,0,0,1,8.41-.61c-2.22,3-4.68,5.94-6.83,9-1.77,2.34-1.44,6.15-1.86,9l-7.08.29q.4-3.78.86-7.57-2.88-4.93-5.8-9.85Q249.92,84.66,253.85,84.51Zm-22.48,1.11c4.25-.58,8.58-.47,12.86-.77-.15,1.53-.29,3.06-.42,4.58l-5.87.31c-.09.64-.2,1.28-.3,1.92l5.46-.19q-.22,2.07-.42,4.14c-2.62.46-4.69-.26-6.29,2.36,2.28,0,4.54-.07,6.81-.17-.14,1.57-.3,3.14-.45,4.71-4.39.18-8.8.32-13.19.56C230.32,97.28,230.43,91.38,231.37,85.62Zm-21.57.82c2.33-.24,4.69-.34,7-.48-.33,2.7-.77,5.38-1.13,8.07,1.82-2.69,3.53-5.46,5.22-8.23l8.35-.31c-2.52,3.05-5,6.15-7.48,9.23q2.78,4.25,5.54,8.48c-2.52.09-5.06.18-7.59.29-1.31-2.67-2.62-5.35-4-8-.19,2.7-.41,5.41-.55,8.12l-7.12.25C208.65,98.07,209.07,92.24,209.8,86.44Zm-22.61,1c2.3-.34,4.68-.38,7-.51,1.84,3.5,3.63,7,5.71,10.38,0-3.52-.08-7-.12-10.58l7.29-.3c-.6,5.9-1.13,11.8-1.75,17.69l-6.76.3c-2-3.39-3.9-6.85-5.93-10.21-.05,3.46,0,6.91,0,10.36l-7.36.34C186,99.08,186.23,93.17,187.19,87.41Zm-18.79,1c4.37-1.91,10.4-1.19,13.72,2.39a8.48,8.48,0,0,1,.81,10.08c-4.06,6.66-15.86,6.59-19.6-.31C160.89,95.76,163.74,90.43,168.4,88.42Zm-22.34,18.09c-.44-3.45-.77-6.91-1.24-10.36-.92,3.44-1.59,6.92-2.2,10.42l-7.26.34c1.82-5.79,3-11.82,5.13-17.5a64.78,64.78,0,0,1,8.25-.67c.07,3.31.12,6.62.19,9.93,1.42-3.28,2.58-6.65,3.75-10l7.52-.27q.26,8.72.74,17.43l-6.93.41c.28-3.46.51-6.91.53-10.38-1.5,3.41-2.67,6.89-3.9,10.41Zm20.09,21.7c-4.42-.07-8.85-.17-13.28-.36,1-5.81,1.89-11.64,2.81-17.46l7.3.18c-.71,4.05-1.36,8.1-2.08,12.15h6.17C166.76,124.56,166.45,126.38,166.15,128.21Zm16.27-4.42c-.23,1.54-.44,3.08-.68,4.62-4.43,0-8.86-.1-13.29-.17,1-5.82,1.92-11.67,2.81-17.51q6.51.09,13,.29l-.75,4.53-7.14-.09c-.17.6-.34,1.2-.49,1.8l6.94.23c-.28,1.41-.55,2.83-.82,4.24-2.25,0-4.5-.06-6.75-.07q0,1-.06,2Q178.77,123.73,182.42,123.79Zm14.89,4.94c-1.25-2.79-2.83-2.16-5.42-2.65l-1.33,2.6c-2.51-.08-5-.16-7.56-.22,3.36-5.6,5.93-11.71,9.54-17.13a59.6,59.6,0,0,1,8.13,0q1.53,8.81,3.28,17.57C201.74,128.84,199.52,128.8,197.31,128.73Zm24.52-.92c-3.76,2.54-10.66,2.43-14.21-.47a8.58,8.58,0,0,1-.91-12.63c4.93-5,14.1-4.78,18.85.51-2.07.74-4.13,1.44-6.2,2.1-1.57-.24-3.8-1.28-5.29-.43-2.68,1.4-3.82,5-1.14,7.12,2.4,1.57,3.94.14,6.18-.84l-3.68-.51c.24-1.1.46-2.2.69-3.3,3.42,0,6.82.11,10.24.2C225.45,122.85,224.9,125.81,221.83,127.81Zm41.5-15.25c-.27,1.47-.52,3-.79,4.43-1.8.22-5-.53-6.23.84-.13,1.77,4.19,1,5.49,1.4-.25,1.37-.49,2.74-.74,4.12l-5.25-.16c-.19.68-.36,1.36-.52,2,2.09,0,4.2.1,6.29.13-.31,1.57-.63,3.14-.94,4.7-4.35-.17-8.72-.26-13.08-.29,1-5.81,1.86-11.64,2.8-17.46Q256.84,112.48,263.33,112.56Zm-17.84,12.16c-.82,3.37-4.26,5-7.49,5.25-3.55.25-8.33-.58-10.1-4.11-.86-3.46.47-7.63.9-11.15.16-1,.33-1.93.51-2.89,2.39.06,4.8.14,7.19.22a111.42,111.42,0,0,0-1.7,12c.83.17,2.94,1.27,3.21-.07,1.67-3.55,1.63-8.05,2.38-11.89l7.29.16C246.93,116.41,246.56,120.66,245.49,124.72Zm-52.2-2.32h2.92c0-2.11-.08-4.22-.11-6.32C195.12,118.18,194.2,120.28,193.29,122.4ZM177.05,96.94a3.53,3.53,0,0,0-4.66-3.59c-2.53.81-3.88,4-1.75,6A3.86,3.86,0,0,0,177.05,96.94Zm-4.66-3.59c-2.53.81-3.88,4-1.75,6a3.86,3.86,0,0,0,6.41-2.37A3.53,3.53,0,0,0,172.39,93.35Zm23.71,22.74c-1,2.09-1.9,4.19-2.81,6.31h2.92C196.18,120.3,196.13,118.19,196.1,116.09Zm0,0c-1,2.09-1.9,4.19-2.81,6.31h2.92C196.18,120.3,196.13,118.19,196.1,116.09ZM172.39,93.35c-2.53.81-3.88,4-1.75,6a3.86,3.86,0,0,0,6.41-2.37A3.53,3.53,0,0,0,172.39,93.35Zm0,0c-2.53.81-3.88,4-1.75,6a3.86,3.86,0,0,0,6.41-2.37A3.53,3.53,0,0,0,172.39,93.35Zm23.71,22.74c-1,2.09-1.9,4.19-2.81,6.31h2.92C196.18,120.3,196.13,118.19,196.1,116.09Zm0,0c-1,2.09-1.9,4.19-2.81,6.31h2.92C196.18,120.3,196.13,118.19,196.1,116.09ZM172.39,93.35c-2.53.81-3.88,4-1.75,6a3.86,3.86,0,0,0,6.41-2.37A3.53,3.53,0,0,0,172.39,93.35Zm0,0c-2.53.81-3.88,4-1.75,6a3.86,3.86,0,0,0,6.41-2.37A3.53,3.53,0,0,0,172.39,93.35Zm23.71,22.74c-1,2.09-1.9,4.19-2.81,6.31h2.92C196.18,120.3,196.13,118.19,196.1,116.09Zm0,0c-1,2.09-1.9,4.19-2.81,6.31h2.92C196.18,120.3,196.13,118.19,196.1,116.09ZM172.39,93.35c-2.53.81-3.88,4-1.75,6a3.86,3.86,0,0,0,6.41-2.37A3.53,3.53,0,0,0,172.39,93.35Zm0,0c-2.53.81-3.88,4-1.75,6a3.86,3.86,0,0,0,6.41-2.37A3.53,3.53,0,0,0,172.39,93.35Zm0,0c-2.53.81-3.88,4-1.75,6a3.86,3.86,0,0,0,6.41-2.37A3.53,3.53,0,0,0,172.39,93.35Zm0,0c-2.53.81-3.88,4-1.75,6a3.86,3.86,0,0,0,6.41-2.37A3.53,3.53,0,0,0,172.39,93.35Zm0,0c-2.53.81-3.88,4-1.75,6a3.86,3.86,0,0,0,6.41-2.37A3.53,3.53,0,0,0,172.39,93.35Z"/><path class="cls-1" d="M177.05,96.94a3.86,3.86,0,0,1-6.41,2.37c-2.13-2-.78-5.15,1.75-6A3.53,3.53,0,0,1,177.05,96.94Z"/><path class="cls-1" d="M177.05,96.94a3.86,3.86,0,0,1-6.41,2.37c-2.13-2-.78-5.15,1.75-6A3.53,3.53,0,0,1,177.05,96.94Z"/><path class="cls-1" d="M196.21,122.41h-2.92c.91-2.12,1.83-4.22,2.81-6.31C196.13,118.19,196.18,120.3,196.21,122.41Z"/><path class="cls-1" d="M196.21,122.41h-2.92c.91-2.12,1.83-4.22,2.81-6.31C196.13,118.19,196.18,120.3,196.21,122.41Z"/></svg>