<svg id="Layer_1" data-name="Layer 1" xmlns="http://www.w3.org/2000/svg" viewBox="0 0 402 146"><defs><style>.cls-1,.cls-2{fill:#fff;}.cls-2{opacity:0.42;}</style></defs><path class="cls-1" d="M321.89,58.13c0,11.5,0,23,0,34.5,3.53,0,7.08,0,10.62,0,0-11.5,0-23,0-34.49C329,58.12,325.42,58.13,321.89,58.13Zm9.84-5a6,6,0,0,0,0-8.45c-1.83-2-5.17-2.21-7.55-1.18a6,6,0,0,0-1.55,9.65A6.44,6.44,0,0,0,331.73,53.17ZM303.28,92.62c3.55,0,7.11,0,10.66,0q0-25.11,0-50.21c-3.56,0-7.12,0-10.68,0Q303.28,67.52,303.28,92.62Zm-7.86-34.5H284.77l0,3.23c-5.64-5.43-15.11-5.37-21-.36-6.61,5.32-8.42,14.86-5,22.49A18,18,0,0,0,268.9,92.8c5.39,1.68,11.89.84,15.92-3.39,0,1.07-.05,2.13-.07,3.21,3.57,0,7.14,0,10.7,0C295.41,81.13,295.48,69.62,295.42,58.12ZM281.36,82.43c-3.77,2.39-9.65,1.81-12.22-2.1-2.63-4.34-1.39-10.91,3.72-12.82,2.85-1,6.71-.8,9.06,1.29C286,72.1,285.78,79.52,281.36,82.43ZM255,57.48a14.24,14.24,0,0,0-7.62,2.5c-1.58,1.06-2.27,2.6-3.06,4.24,0-2,0-4.06,0-6.09H233.65c-.06,11.5,0,23,0,34.5,3.58,0,7.15,0,10.73,0,0-5.48-.06-11,0-16.45A6.32,6.32,0,0,1,248,70.31c2.22-1.33,4.47-1.17,7-1.19C255,65.24,255,61.36,255,57.48Zm-43.36,0a22.24,22.24,0,0,0-7.59.29,18.9,18.9,0,0,0-12.5,9.94,17.35,17.35,0,0,0-1.36,11.2A18.26,18.26,0,0,0,200,91.69a20.4,20.4,0,0,0,16.45.39c7.56-3.21,12.37-11.5,10.8-19.68C226.09,64.61,219.32,58.53,211.63,57.48ZM215,80.84c-2.25,2.92-6.75,3.27-10,2a8.08,8.08,0,0,1-4.52-7.93,7.9,7.9,0,0,1,5.69-7.32c2.6-.52,5.47-.43,7.63,1.31A8.41,8.41,0,0,1,215,80.84ZM178.69,59.61c-3.58-2.62-8.29-2.74-12.46-1.78a11.07,11.07,0,0,0-5.8,3.92c-1.47-1.6-2.89-3.09-5-3.78-4.87-1.46-10.72-.77-14,3.45,0-1.09,0-2.2,0-3.3-3.5,0-7,0-10.5,0-.07,11.5,0,23-.05,34.5,3.51,0,7,0,10.54,0,0-6.1,0-12.22,0-18.33a9.38,9.38,0,0,1,1-5.08c1.66-3.2,7.3-3.29,9.07-.18a11.94,11.94,0,0,1,.79,5.24c0,6.12,0,12.24,0,18.36,3.56,0,7.13,0,10.68,0,0-6.1,0-12.21,0-18.31,0-1.91-.1-3.59,1-5.27,1.56-2.5,5.26-2.85,7.63-1.43,1.76,1.13,2.14,3.45,2.12,5.39,0,6.54,0,13.09,0,19.64,3.54,0,7.09,0,10.63,0,0-7.19,0-14.37,0-21.56A14,14,0,0,0,178.69,59.61Z"/><path class="cls-1" d="M314,42.42q0,25.11,0,50.21c-3.55,0-7.11,0-10.66,0q0-25.09,0-50.18C306.83,42.44,310.39,42.46,314,42.42Z"/><path class="cls-1" d="M331.73,53.17a6.44,6.44,0,0,1-9.11,0,6,6,0,0,1,1.55-9.65c2.38-1,5.72-.87,7.55,1.18A6,6,0,0,1,331.73,53.17Z"/><path class="cls-1" d="M110.26,71.11c-.71,7.81-3.7,14.74-7.34,21.57,0-1.8,0-3.47-1-5A7.42,7.42,0,0,0,94.66,84c-2.45.16-4.23,1.62-5.68,3.48a41.21,41.21,0,0,0,6.58-14.64A18.79,18.79,0,0,0,95.77,66a8.16,8.16,0,0,0-16,1.88c0,2.62-.69,5-2.86,6.62A7.24,7.24,0,0,1,67,73.15a10.6,10.6,0,0,1-2-5.91A8.11,8.11,0,0,0,48.78,68.5c.12,7.22,3.52,14.56,7.57,20.42,1.46,2.26,3.44,3.72,3.59,6.57a7.21,7.21,0,0,1-6.23,8,7.57,7.57,0,0,1-6.86-3.2c-7.14-9.22-12-20-12.47-31.77V67.41a27.82,27.82,0,0,1,.92-5.51,22.79,22.79,0,0,1,17.5-16,22.29,22.29,0,0,1,19.52,5.84,22.54,22.54,0,0,1,35.85,6.53A24,24,0,0,1,110.26,71.11Z"/><path class="cls-1" d="M184.22,92.63c-3.54,0-7.09,0-10.63,0,0-6.55,0-13.1,0-19.64,0-1.94-.36-4.26-2.12-5.39-2.37-1.42-6.07-1.07-7.63,1.43-1.06,1.68-.92,3.36-1,5.27,0,6.1,0,12.21,0,18.31-3.55,0-7.12,0-10.68,0,0-6.12,0-12.24,0-18.36a11.94,11.94,0,0,0-.79-5.24c-1.77-3.11-7.41-3-9.07.18a9.38,9.38,0,0,0-1,5.08c0,6.11,0,12.23,0,18.33-3.51,0-7,0-10.54,0,.06-11.5,0-23,.05-34.5,3.5,0,7,0,10.5,0,0,1.1,0,2.21,0,3.3,3.31-4.22,9.16-4.91,14-3.45,2.13.69,3.55,2.18,5,3.78a11.07,11.07,0,0,1,5.8-3.92c4.17-1,8.88-.84,12.46,1.78a14,14,0,0,1,5.52,11.46C184.24,78.26,184.2,85.44,184.22,92.63Z"/><path class="cls-1" d="M227.25,72.4c-1.16-7.79-7.93-13.87-15.62-14.92a22.24,22.24,0,0,0-7.59.29,18.9,18.9,0,0,0-12.5,9.94,17.35,17.35,0,0,0-1.36,11.2A18.26,18.26,0,0,0,200,91.69a20.4,20.4,0,0,0,16.45.39C224,88.87,228.82,80.58,227.25,72.4ZM215,80.84c-2.25,2.92-6.75,3.27-10,2a8.08,8.08,0,0,1-4.52-7.93,7.9,7.9,0,0,1,5.69-7.32c2.6-.52,5.47-.43,7.63,1.31A8.41,8.41,0,0,1,215,80.84Z"/><path class="cls-1" d="M255,69.12c-2.48,0-4.73-.14-7,1.19a6.32,6.32,0,0,0-3.67,5.86c-.09,5.48,0,11,0,16.45-3.58,0-7.15,0-10.73,0,0-11.5,0-23,0-34.5h10.69c0,2,0,4.06,0,6.09.79-1.64,1.48-3.18,3.06-4.24a14.24,14.24,0,0,1,7.62-2.5C255,61.36,255,65.24,255,69.12Z"/><path class="cls-1" d="M295.42,58.12H284.77l0,3.23c-5.64-5.43-15.11-5.37-21-.36-6.61,5.32-8.42,14.86-5,22.49A18,18,0,0,0,268.9,92.8c5.39,1.68,11.89.84,15.92-3.39,0,1.07-.05,2.13-.07,3.21,3.57,0,7.14,0,10.7,0C295.41,81.13,295.48,69.62,295.42,58.12ZM281.36,82.43c-3.77,2.39-9.65,1.81-12.22-2.1-2.63-4.34-1.39-10.91,3.72-12.82,2.85-1,6.71-.8,9.06,1.29C286,72.1,285.78,79.52,281.36,82.43Z"/><path class="cls-1" d="M367.62,82.48v.29a11.76,11.76,0,0,1-1.9,5.69c-1.6,2.22-4.48,3.6-7,4.41a23.5,23.5,0,0,1-14.08-.69,14.15,14.15,0,0,1-7.14-6.63c3-1.77,6.1-3.33,9.11-5.08,1.2,2,2.42,3.77,5,4,1.63,0,3.95.17,5-1.36.11-.84.14-1.6-.76-2-3.92-2-9.81-2.43-13.3-5.37-3.69-3-4.23-8.4-2-12.46a13.4,13.4,0,0,1,9.77-5.77A16.51,16.51,0,0,1,367,64.69Q362.5,67,358,69.28c-1.91-2.62-5-4.2-7.91-2-.63,1.67.92,2.3,2.18,2.85,4.33,1.46,9.37,2,12.72,5.4C367,77.43,367.38,79.92,367.62,82.48Z"/><path class="cls-1" d="M332.51,92.62c-3.54,0-7.09,0-10.62,0,0-11.5,0-23,0-34.5,3.53,0,7.07,0,10.6,0C332.52,69.62,332.49,81.12,332.51,92.62Z"/><path class="cls-2" d="M102.92,92.68c-1.17,4.26-4.94,7.09-9.42,6A7.61,7.61,0,0,1,89,87.49c1.45-1.86,3.23-3.32,5.68-3.48a7.42,7.42,0,0,1,7.26,3.63C102.93,89.21,102.93,90.88,102.92,92.68Z"/></svg>