<svg id="Layer_1" data-name="Layer 1" xmlns="http://www.w3.org/2000/svg" viewBox="0 0 402 146"><defs><style>.cls-1{fill:#fff;}</style></defs><path class="cls-1" d="M119.8,102,86.42,44,53,102ZM63,71.19,78.3,44H47.62ZM106.17,94.3H66.67L86.42,60Z"/><path class="cls-1" d="M311,84.47c1.21,0,2.4,0,3.55-.13s2.21-.19,3.16-.32,1.78-.26,2.5-.38,1.27-.23,1.65-.33V66.91a12.38,12.38,0,0,0-.57-3.82,7.7,7.7,0,0,0-1.82-3,8.48,8.48,0,0,0-3.27-2,14.4,14.4,0,0,0-4.91-.73,29.2,29.2,0,0,0-4.86.35,15.5,15.5,0,0,0-3,.75l.51,2.87c.5-.17,1.28-.38,2.33-.65a21.27,21.27,0,0,1,4.84-.41,9,9,0,0,1,3.66.63A5.43,5.43,0,0,1,317,62.51a5.55,5.55,0,0,1,1,2.32,16.5,16.5,0,0,1,.21,2.25h0v2h0v2.86h0V81.1c-.76.13-1.67.24-2.75.32s-2.35.13-3.78.13a15.87,15.87,0,0,1-3.16-.28,7.06,7.06,0,0,1-2.38-.88,4,4,0,0,1-1.54-1.61,5.14,5.14,0,0,1-.54-2.46,4.2,4.2,0,0,1,.8-2.67,5.45,5.45,0,0,1,2-1.58,9,9,0,0,1,2.73-.76,25.7,25.7,0,0,1,2.84-.17c.72,0,1.35,0,1.93.06V68.41h-.14c-.59-.05-1.15-.08-1.68-.08a24.76,24.76,0,0,0-4.94.46,12.43,12.43,0,0,0-3.92,1.43,7.2,7.2,0,0,0-2.56,2.49,6.92,6.92,0,0,0-.91,3.62,7.84,7.84,0,0,0,.83,3.75,6.93,6.93,0,0,0,2.27,2.51A10.12,10.12,0,0,0,306.75,84,19.21,19.21,0,0,0,311,84.47Zm-93.83,0c1.21,0,2.4,0,3.55-.13s2.21-.19,3.16-.32,1.78-.26,2.5-.38,1.27-.23,1.65-.33V66.91a12.38,12.38,0,0,0-.57-3.82,7.7,7.7,0,0,0-1.82-3,8.33,8.33,0,0,0-3.27-2,14.4,14.4,0,0,0-4.91-.73,29.2,29.2,0,0,0-4.86.35,15.5,15.5,0,0,0-3,.75l.51,2.87c.5-.17,1.27-.38,2.33-.65a21.11,21.11,0,0,1,4.83-.41,9,9,0,0,1,3.67.63,5.43,5.43,0,0,1,2.16,1.66,5.55,5.55,0,0,1,1,2.32,15.05,15.05,0,0,1,.21,2.25h0v14c-.76.13-1.67.24-2.75.32s-2.34.13-3.78.13a15.87,15.87,0,0,1-3.16-.28,7.11,7.11,0,0,1-2.39-.88,4.08,4.08,0,0,1-1.53-1.61,5.14,5.14,0,0,1-.54-2.46,4.2,4.2,0,0,1,.8-2.67,5.45,5.45,0,0,1,2-1.58,9,9,0,0,1,2.73-.76,25.7,25.7,0,0,1,2.84-.17c.72,0,1.35,0,1.93.06V68.41h-.14c-.59-.05-1.14-.08-1.67-.08a24.79,24.79,0,0,0-4.95.46,12.43,12.43,0,0,0-3.92,1.43,7.2,7.2,0,0,0-2.56,2.49,6.92,6.92,0,0,0-.91,3.62,7.84,7.84,0,0,0,.83,3.75,6.93,6.93,0,0,0,2.27,2.51A10.12,10.12,0,0,0,212.92,84,19.21,19.21,0,0,0,217.21,84.47Zm-45.11,0c1.21,0,2.4,0,3.55-.13s2.21-.19,3.16-.32,1.78-.26,2.5-.38,1.27-.23,1.65-.33V66.91a12.38,12.38,0,0,0-.57-3.82,7.7,7.7,0,0,0-1.82-3,8.33,8.33,0,0,0-3.27-2,14.46,14.46,0,0,0-4.92-.73,29.15,29.15,0,0,0-4.85.35,15.5,15.5,0,0,0-3,.75l.51,2.87c.5-.17,1.27-.38,2.33-.65a21.11,21.11,0,0,1,4.83-.41,9,9,0,0,1,3.67.63,5.18,5.18,0,0,1,3.15,4,15,15,0,0,1,.22,2.25h0v2h0v2.86h0V81.1c-.76.13-1.67.24-2.76.32s-2.33.13-3.77.13a15.87,15.87,0,0,1-3.16-.28,7.11,7.11,0,0,1-2.39-.88,4.08,4.08,0,0,1-1.53-1.61,5.14,5.14,0,0,1-.54-2.46,4.2,4.2,0,0,1,.8-2.67,5.45,5.45,0,0,1,2-1.58,9,9,0,0,1,2.73-.76,25.56,25.56,0,0,1,2.84-.17c.71,0,1.35,0,1.93.06V68.41h-.14c-.59-.05-1.14-.08-1.68-.08a24.69,24.69,0,0,0-4.94.46,12.43,12.43,0,0,0-3.92,1.43,7.2,7.2,0,0,0-2.56,2.49,6.92,6.92,0,0,0-.91,3.62,7.84,7.84,0,0,0,.83,3.75,6.93,6.93,0,0,0,2.27,2.51A10.12,10.12,0,0,0,167.81,84,19.21,19.21,0,0,0,172.1,84.47Zm160.73,9V82.59a14.51,14.51,0,0,0,3.11,1.4,15.7,15.7,0,0,0,5.06.73,15.08,15.08,0,0,0,5.69-1,11.68,11.68,0,0,0,6.8-7.15,16.56,16.56,0,0,0,.89-5.52,15,15,0,0,0-1.06-5.75,12.44,12.44,0,0,0-3-4.32,13,13,0,0,0-4.57-2.72,17.63,17.63,0,0,0-5.92-.94,37.62,37.62,0,0,0-6.51.46,35.93,35.93,0,0,0-4.24,1V93.52Zm-140.64-9V61.12a11.55,11.55,0,0,1,2-.51,20.21,20.21,0,0,1,4-.31,25.42,25.42,0,0,1,3.79.23,8.88,8.88,0,0,1,1.91.44l.77-2.89a12.35,12.35,0,0,0-2.32-.51,22.53,22.53,0,0,0-3.57-.26,28.91,28.91,0,0,0-6.29.59,31.32,31.32,0,0,0-4.06,1.16V84.47Zm-57.85,9V82.59a14.4,14.4,0,0,0,3.12,1.4,15.6,15.6,0,0,0,5,.73,15.08,15.08,0,0,0,5.69-1,11.68,11.68,0,0,0,6.8-7.15,16.56,16.56,0,0,0,.89-5.52,14.77,14.77,0,0,0-1.06-5.75,12.18,12.18,0,0,0-3-4.32,13,13,0,0,0-4.57-2.72,17.63,17.63,0,0,0-5.92-.94,37.62,37.62,0,0,0-6.51.46,35.24,35.24,0,0,0-4.23,1V93.52Zm107.81-9a15.58,15.58,0,0,0,8.19-1.84,6,6,0,0,0,3-5.42,6.11,6.11,0,0,0-.74-3.14,7.36,7.36,0,0,0-1.94-2.15,12.83,12.83,0,0,0-2.77-1.53c-1-.42-2.14-.84-3.28-1.24s-2.08-.78-2.94-1.12a12,12,0,0,1-2.16-1.1,4.22,4.22,0,0,1-1.34-1.36,3.47,3.47,0,0,1-.46-1.84s0-4.77,0-6.08v-.34H234c0,.13,0,5.45,0,6.53V64a5.56,5.56,0,0,0,.68,2.86,6.63,6.63,0,0,0,1.83,2,13.36,13.36,0,0,0,2.62,1.48c1,.43,2,.84,3.14,1.25,1.37.51,2.52,1,3.45,1.33a10.57,10.57,0,0,1,2.25,1.18,3.62,3.62,0,0,1,1.23,1.38,4.26,4.26,0,0,1,.37,1.83,3.28,3.28,0,0,1-2.08,3.2,12.83,12.83,0,0,1-5.28.94,20.47,20.47,0,0,1-3.11-.2,18.75,18.75,0,0,1-2.31-.49,13.13,13.13,0,0,1-1.54-.51,6.26,6.26,0,0,1-.74-.33l-1,3a26,26,0,0,0,2.74.89A22.85,22.85,0,0,0,242.15,84.47Zm26.9,0c.59-1.14,1.21-2.42,1.87-3.84s1.33-2.94,2-4.56,1.37-3.32,2-5.1,1.28-3.61,1.86-5.48q.9,2.79,1.87,5.47t2,5.09c.69,1.62,1.37,3.13,2,4.55s1.29,2.71,1.88,3.87h3.58a117.22,117.22,0,0,0,5.57-11.71,132,132,0,0,0,4.67-13.64h-3.8c-.44,1.73-1,3.61-1.64,5.62s-1.36,4-2.11,6-1.51,3.86-2.26,5.64-1.47,3.29-2.14,4.53q-1.2-2.46-2.35-5.25c-.78-1.87-1.51-3.75-2.2-5.66s-1.32-3.79-1.89-5.64-1-3.59-1.39-5.22h-3.32q-.7,2.45-1.59,5.22T271.86,70c-.66,1.9-1.38,3.78-2.14,5.65s-1.52,3.61-2.28,5.24c-.67-1.24-1.4-2.75-2.17-4.52s-1.54-3.63-2.29-5.61-1.46-4-2.11-6-1.21-3.88-1.64-5.61h-4.1a132.72,132.72,0,0,0,4.65,13.63,112.14,112.14,0,0,0,5.56,11.72Zm71.7-1.81a14.12,14.12,0,0,1-2.57-.23,16.93,16.93,0,0,1-2.29-.6,13.79,13.79,0,0,1-1.85-.77q-.78-.42-1.32-.78V61.65a20.3,20.3,0,0,1,2.61-.49,36.51,36.51,0,0,1,4.54-.23,11.09,11.09,0,0,1,7.91,2.81c2,1.88,3,4.57,3,8.08a16.33,16.33,0,0,1-.53,4.2,9.27,9.27,0,0,1-1.7,3.46,8.06,8.06,0,0,1-3.07,2.33A11.68,11.68,0,0,1,340.75,82.66Zm-198.49,0a14.31,14.31,0,0,1-2.58-.23,17.17,17.17,0,0,1-2.28-.6,13.79,13.79,0,0,1-1.85-.77,14.64,14.64,0,0,1-1.31-.78V61.65a19.74,19.74,0,0,1,2.6-.49,36.51,36.51,0,0,1,4.54-.23,11.09,11.09,0,0,1,7.91,2.81q3,2.82,3,8.08a16.33,16.33,0,0,1-.53,4.2,9.27,9.27,0,0,1-1.7,3.46A8.06,8.06,0,0,1,147,81.81,11.68,11.68,0,0,1,142.26,82.66Z"/></svg>