<svg id="Layer_1" data-name="Layer 1" xmlns="http://www.w3.org/2000/svg" viewBox="0 0 402 146"><defs><style>.cls-1{fill:#fff;}</style></defs><path class="cls-1" d="M82.89,90.25l3.12,0q-3.67,11-7.34,22h-3.4Q72.35,103.64,69.36,95c-2,5.75-3.93,11.52-5.92,17.28H60c-2.51-7.32-5-14.67-7.4-22H56c1.91,5.73,3.8,11.47,5.74,17.19a11.08,11.08,0,0,0,.77-1.59q2.68-7.82,5.4-15.61h3c2,5.85,3.91,11.76,6,17.59Q79.92,99,82.89,90.25Z"/><path class="cls-1" d="M87.52,63.47C90.7,68,94,72.44,97.15,77c-2.87,0-5.74,0-8.62,0q-2.66-4-5.33-8c-1.71,2.69-3.51,5.32-5.25,8-2.84,0-5.69,0-8.53,0,3.11-4.43,6.33-8.79,9.47-13.2-3-4.26-6-8.56-9.07-12.83H78.3c1.7,2.45,3.39,4.91,5.1,7.36l5-7.35c2.71,0,5.42,0,8.13,0C93.56,55.12,90.51,59.27,87.52,63.47Z"/><path class="cls-1" d="M112,90.27a29,29,0,0,0-3.23,0c-3.41,7.23-6.68,14.66-10,22h3.41c.8-1.84,1.6-3.67,2.42-5.5,3.83,0,7.65,0,11.48,0,.85,1.83,1.63,3.7,2.5,5.53l3.43,0Q117,101.26,112,90.27Zm-6.23,13.82c1.55-3.44,3-6.93,4.6-10.35,1.52,3.44,3.06,6.88,4.54,10.34C111.84,104.1,108.79,104.09,105.74,104.09Z"/><path class="cls-1" d="M137.65,55.18a14.94,14.94,0,0,0-10.77-4.25c-4.26,0-8.53,0-12.79,0V77c3.36,0,6.72,0,10.07,0s6.43-.08,9.51-1.51a11.74,11.74,0,0,0,6.74-7.74C141.51,63.48,140.85,58.4,137.65,55.18Zm-7.39,14.71c-2.6,1.54-5.73.93-8.64,1,0-4.64-.07-9.28,0-13.92,2.65,0,6.12-.53,8.47.86C134.44,60.14,134.5,67.5,130.26,69.89Z"/><path class="cls-1" d="M153.3,109.33v3c-5.06,0-10.11,0-15.17,0q0-11,0-22h3.21c0,6.36,0,12.71,0,19.07C145.33,109.33,149.31,109.32,153.3,109.33Z"/><path class="cls-1" d="M181,77c-6.94,0-13.88,0-20.81,0q0-13,0-26h20.4c0,1.93,0,3.85,0,5.78-4.34,0-8.68,0-13,0q0,2.14,0,4.29h11.4c0,1.84,0,3.67,0,5.51-3.8,0-7.6,0-11.4,0q0,2.28,0,4.56c4.47,0,8.94,0,13.42,0Z"/><path class="cls-1" d="M173.17,109.32H185v3c-5,0-10.11,0-15.16,0q0-11,0-22h3.34C173.18,96.62,173.16,103,173.17,109.32Z"/><path class="cls-1" d="M204.86,109.32H217.6v3c-5.36,0-10.73,0-16.1,0q0-11,0-22h15.71v2.82c-4.12,0-8.24,0-12.35,0v6.57h10.87c0,.93,0,1.86,0,2.8-3.63,0-7.26,0-10.88,0Z"/><path class="cls-1" d="M200.42,50.92h20.41c0,1.93,0,3.85,0,5.78-4.34,0-8.68,0-13,0v5.5h11.41v5.91c-3.8,0-7.6,0-11.41,0,0,3,0,5.91,0,8.85-2.46,0-4.92,0-7.38,0Q200.41,64,200.42,50.92Z"/><path class="cls-1" d="M247,77.23h-7.38q0-13,0-25.91H247Q247,64.28,247,77.23Z"/><path class="cls-1" d="M232.51,90.26h18.26v2.82h-7.51c0,6.39,0,12.8,0,19.19H240c0-6.4,0-12.8,0-19.19h-7.52Z"/><path class="cls-1" d="M272.23,99.9a34,34,0,0,1-12.56-5.2c1.08-1.31,2.17-2.63,3.26-3.93,5.36,3.47,12.3,4.82,18.58,5.29a72.56,72.56,0,0,0,17.72-1,51.58,51.58,0,0,0,23.66-10.92c1.58.87,3.1,1.85,4.65,2.77-9.9,9.3-23.4,13.59-36.76,14.31A70,70,0,0,1,272.23,99.9Z"/><path class="cls-1" d="M312.81,108c-10.46,3.68-22,4.67-33.06,4.07.09-1.7.17-3.41.32-5.11a84.48,84.48,0,0,0,26.55-2.46C316,102,325.39,97.08,331.29,89.2q2.25,1.27,4.47,2.61C330.18,99.6,321.76,104.9,312.81,108Z"/><path class="cls-1" d="M327.32,69.57c-2.08-1.78-1.55-5.68,1.1-6.67a4.11,4.11,0,0,1,5.27,1.88,4.21,4.21,0,0,1-.82,4.72A4,4,0,0,1,327.32,69.57Z"/><path class="cls-1" d="M346.19,89.82a46.08,46.08,0,0,1-15.76,20.23,45.59,45.59,0,0,1-22.68,8.45c-.12-1.7-.27-3.41-.41-5.11a40.21,40.21,0,0,0,21.86-8.88,40.44,40.44,0,0,0-49.47-64,40.09,40.09,0,0,0-12,14.3,23,23,0,0,0-1.86,12.73,18,18,0,0,0,7.24,12.2c4.39,3.27,10,4.56,15.42,4.81a46.23,46.23,0,0,0,25-6.08c1.62.95,3.24,1.91,4.83,2.9a47.3,47.3,0,0,1-20.85,7.83,45.27,45.27,0,0,1-19.64-1.34,26,26,0,0,1-12.49-8.47,23.6,23.6,0,0,1-4.82-15.08,26.18,26.18,0,0,1,2.8-12.28,45.28,45.28,0,0,1,22.17-20.79A46.07,46.07,0,0,1,330,35.7a45.4,45.4,0,0,1,17.73,25.14A46.24,46.24,0,0,1,346.19,89.82Z"/><path class="cls-1" d="M346.19,89.82a46.08,46.08,0,0,1-15.76,20.23,45.59,45.59,0,0,1-22.68,8.45c-.12-1.7-.27-3.41-.41-5.11a40.21,40.21,0,0,0,21.86-8.88,40.44,40.44,0,0,0-49.47-64,40.09,40.09,0,0,0-12,14.3,23,23,0,0,0-1.86,12.73,18,18,0,0,0,7.24,12.2c4.39,3.27,10,4.56,15.42,4.81a46.23,46.23,0,0,0,25-6.08c1.62.95,3.24,1.91,4.83,2.9a47.3,47.3,0,0,1-20.85,7.83,45.27,45.27,0,0,1-19.64-1.34,26,26,0,0,1-12.49-8.47,23.6,23.6,0,0,1-4.82-15.08,26.18,26.18,0,0,1,2.8-12.28,45.28,45.28,0,0,1,22.17-20.79A46.07,46.07,0,0,1,330,35.7a45.4,45.4,0,0,1,17.73,25.14A46.24,46.24,0,0,1,346.19,89.82Z"/><path class="cls-1" d="M97.15,77c-2.87,0-5.74,0-8.62,0q-2.66-4-5.33-8c-1.71,2.69-3.51,5.32-5.25,8-2.84,0-5.69,0-8.53,0,3.11-4.43,6.33-8.79,9.47-13.2-3-4.26-6-8.56-9.07-12.83H78.3c1.7,2.45,3.39,4.91,5.1,7.36l5-7.35c2.71,0,5.42,0,8.13,0-3,4.2-6,8.35-9,12.55C90.7,68,94,72.44,97.15,77Z"/><path class="cls-1" d="M137.65,55.18a14.94,14.94,0,0,0-10.77-4.25c-4.26,0-8.53,0-12.79,0V77c3.36,0,6.72,0,10.07,0s6.43-.08,9.51-1.51a11.74,11.74,0,0,0,6.74-7.74C141.51,63.48,140.85,58.4,137.65,55.18Zm-7.39,14.71c-2.6,1.54-5.73.93-8.64,1,0-4.64-.07-9.28,0-13.92,2.65,0,6.12-.53,8.47.86C134.44,60.14,134.5,67.5,130.26,69.89Z"/><path class="cls-1" d="M181,71.07V77c-6.94,0-13.88,0-20.81,0q0-13,0-26h20.4c0,1.93,0,3.85,0,5.78-4.34,0-8.68,0-13,0q0,2.14,0,4.29h11.4c0,1.84,0,3.67,0,5.51-3.8,0-7.6,0-11.4,0q0,2.28,0,4.56C172,71.07,176.48,71.05,181,71.07Z"/><path class="cls-1" d="M207.81,56.7v5.5h11.41v5.91c-3.8,0-7.6,0-11.41,0,0,3,0,5.91,0,8.85-2.46,0-4.92,0-7.38,0q0-13,0-26h20.41c0,1.93,0,3.85,0,5.78C216.49,56.7,212.15,56.69,207.81,56.7Z"/><path class="cls-1" d="M247,77.23h-7.38q0-13,0-25.91H247Q247,64.28,247,77.23Z"/><path class="cls-1" d="M332.87,69.5a4,4,0,0,1-5.55.07c-2.08-1.78-1.55-5.68,1.1-6.67a4.11,4.11,0,0,1,5.27,1.88A4.21,4.21,0,0,1,332.87,69.5Z"/><path class="cls-1" d="M327.54,86.88c-9.9,9.3-23.4,13.59-36.76,14.31a70,70,0,0,1-18.55-1.29,34,34,0,0,1-12.56-5.2c1.08-1.31,2.17-2.63,3.26-3.93,5.36,3.47,12.3,4.82,18.58,5.29a72.56,72.56,0,0,0,17.72-1,51.58,51.58,0,0,0,23.66-10.92C324.47,85,326,86,327.54,86.88Z"/><path class="cls-1" d="M335.76,91.81c-5.58,7.79-14,13.09-22.95,16.23-10.46,3.68-22,4.67-33.06,4.07.09-1.7.17-3.41.32-5.11a84.48,84.48,0,0,0,26.55-2.46C316,102,325.39,97.08,331.29,89.2Q333.54,90.48,335.76,91.81Z"/><path class="cls-1" d="M86,90.27q-3.67,11-7.34,22h-3.4Q72.35,103.64,69.36,95c-2,5.75-3.93,11.52-5.92,17.28H60c-2.51-7.32-5-14.67-7.4-22H56c1.91,5.73,3.8,11.47,5.74,17.19a11.08,11.08,0,0,0,.77-1.59q2.68-7.82,5.4-15.61h3c2,5.85,3.91,11.76,6,17.59q3-8.8,5.94-17.6Z"/><path class="cls-1" d="M112,90.27a29,29,0,0,0-3.23,0c-3.41,7.23-6.68,14.66-10,22h3.41c.8-1.84,1.6-3.67,2.42-5.5,3.83,0,7.65,0,11.48,0,.85,1.83,1.63,3.7,2.5,5.53l3.43,0Q117,101.26,112,90.27Zm-6.23,13.82c1.55-3.44,3-6.93,4.6-10.35,1.52,3.44,3.06,6.88,4.54,10.34C111.84,104.1,108.79,104.09,105.74,104.09Z"/><path class="cls-1" d="M153.3,109.33v3c-5.06,0-10.11,0-15.17,0q0-11,0-22h3.21c0,6.36,0,12.71,0,19.07C145.33,109.33,149.31,109.32,153.3,109.33Z"/><path class="cls-1" d="M185,109.33v3c-5,0-10.11,0-15.16,0q0-11,0-22h3.34c0,6.36,0,12.71,0,19.06Z"/><path class="cls-1" d="M217.6,109.33v3c-5.36,0-10.73,0-16.1,0q0-11,0-22h15.71v2.82c-4.12,0-8.24,0-12.35,0v6.57h10.87c0,.93,0,1.86,0,2.8-3.63,0-7.26,0-10.88,0v6.83Z"/><path class="cls-1" d="M250.77,90.26v2.82h-7.51c0,6.39,0,12.8,0,19.19H240c0-6.4,0-12.8,0-19.19h-7.52V90.26Z"/></svg>