<svg id="Layer_1" data-name="Layer 1" xmlns="http://www.w3.org/2000/svg" viewBox="0 0 402 146"><defs><style>.cls-1{fill:#fff;}</style></defs><path class="cls-1" d="M182.46,31c-10.94,4-21.87,8-32.8,12.06q-2.79,10.44-5.59,20.89C142.2,57,140.31,50,138.49,43q-16.46-6-32.9-12.1c-.11,16.59,0,33.18-.06,49.77,12.83,11.57,25.68,23.16,38.58,34.64,12.75-11.57,25.69-23,38.38-34.59C182.43,64.15,182.49,47.56,182.46,31Zm-3.71,47.79q-17.33,15.47-34.67,30.92-17.34-15.47-34.69-30.91,0-21.16,0-42.32c8.14,3,16.27,6.11,24.42,9.11.49.25,1.4.38,1.48,1,2.94,10.35,5.83,20.87,8.77,31.23C147.11,67.24,150,56.61,153,46c8.59-3.16,17.15-6.4,25.73-9.59ZM182.46,31c-10.94,4-21.87,8-32.8,12.06q-2.79,10.44-5.59,20.89C142.2,57,140.31,50,138.49,43q-16.46-6-32.9-12.1c-.11,16.59,0,33.18-.06,49.77,12.83,11.57,25.68,23.16,38.58,34.64,12.75-11.57,25.69-23,38.38-34.59C182.43,64.15,182.49,47.56,182.46,31Zm-3.71,47.79q-17.33,15.47-34.67,30.92-17.34-15.47-34.69-30.91,0-21.16,0-42.32c8.14,3,16.27,6.11,24.42,9.11.49.25,1.4.38,1.48,1,2.94,10.35,5.83,20.87,8.77,31.23C147.11,67.24,150,56.61,153,46c8.59-3.16,17.15-6.4,25.73-9.59Zm13.89-59.08c0-1.23,0-2.45-.08-3.66H192a16.06,16.06,0,0,1-3.54,1.59q-22.2,8.26-44.39,16.59c-16.22-6-32.42-12.21-48.68-18.14v70.1l12.08,10.9q18.15,16.33,36.35,32.6l-.18.34h.53c1.58-1.7,3.35-3.17,5.06-4.72,14.48-13,28.89-26,43.4-38.9C192.67,64.14,192.62,41.9,192.64,19.67Zm-2.3,64.91a27.34,27.34,0,0,1-2.81,2.67q-21.74,19.5-43.45,39Q120.9,105.48,97.76,84.67c0-21.69,0-43.39,0-65.09q23.16,8.79,46.31,17.6c15.43-5.9,30.88-11.73,46.3-17.63C190.36,41.12,190.44,63,190.34,84.58ZM149.66,43q-2.79,10.44-5.59,20.89C142.2,57,140.31,50,138.49,43q-16.46-6-32.9-12.1c-.11,16.59,0,33.18-.06,49.77,12.83,11.57,25.68,23.16,38.58,34.64,12.75-11.57,25.69-23,38.38-34.59-.06-16.59,0-33.18,0-49.78C171.52,34.94,160.59,39,149.66,43Zm29.09,35.73q-17.33,15.47-34.67,30.92-17.34-15.47-34.69-30.91,0-21.16,0-42.32c8.14,3,16.27,6.11,24.42,9.11.49.25,1.4.38,1.48,1,2.94,10.35,5.83,20.87,8.77,31.23C147.11,67.24,150,56.61,153,46c8.59-3.16,17.15-6.4,25.73-9.59ZM182.46,31c-10.94,4-21.87,8-32.8,12.06q-2.79,10.44-5.59,20.89C142.2,57,140.31,50,138.49,43q-16.46-6-32.9-12.1c-.11,16.59,0,33.18-.06,49.77,12.83,11.57,25.68,23.16,38.58,34.64,12.75-11.57,25.69-23,38.38-34.59C182.43,64.15,182.49,47.56,182.46,31Zm-3.71,47.79q-17.33,15.47-34.67,30.92-17.34-15.47-34.69-30.91,0-21.16,0-42.32c8.14,3,16.27,6.11,24.42,9.11.49.25,1.4.38,1.48,1,2.94,10.35,5.83,20.87,8.77,31.23C147.11,67.24,150,56.61,153,46c8.59-3.16,17.15-6.4,25.73-9.59ZM182.46,31c-10.94,4-21.87,8-32.8,12.06q-2.79,10.44-5.59,20.89C142.2,57,140.31,50,138.49,43q-16.46-6-32.9-12.1c-.11,16.59,0,33.18-.06,49.77,12.83,11.57,25.68,23.16,38.58,34.64,12.75-11.57,25.69-23,38.38-34.59C182.43,64.15,182.49,47.56,182.46,31Zm-3.71,47.79q-17.33,15.47-34.67,30.92-17.34-15.47-34.69-30.91,0-21.16,0-42.32c8.14,3,16.27,6.11,24.42,9.11.49.25,1.4.38,1.48,1,2.94,10.35,5.83,20.87,8.77,31.23C147.11,67.24,150,56.61,153,46c8.59-3.16,17.15-6.4,25.73-9.59Z"/><path class="cls-1" d="M241.14,86.71c.93,2.68.78,6.33-1.16,8.56a8.13,8.13,0,0,1-6,2.44H213.42V93.14c6.67,0,13.35,0,20,0a3.47,3.47,0,0,0,3.74-2.85,3.08,3.08,0,0,0-2.74-3.61c-4.51-.17-9.05,0-13.57-.09a8.8,8.8,0,0,1-5.11-1.63c-3.54-2.58-3.67-8.78-.13-11.4a10.18,10.18,0,0,1,6.27-1.71h18.45v4.71c-6.51,0-13,0-19.54,0a2.93,2.93,0,0,0-2.73,3.79c.29,1.65,1.74,2.3,3.28,2.31,4.47.08,8.94,0,13.41,0C237.5,82.89,240.09,84,241.14,86.71Z"/><path class="cls-1" d="M225.73,52.4c-4.68-5.42-9.48-10.73-14.17-16.14,2.13,0,4.25,0,6.38,0,3.49,3.88,6.89,7.85,10.31,11.8,3.4-3.95,6.85-7.86,10.28-11.78,2,0,4.08,0,6.12,0C240,41.62,235.11,47,230.52,52.34c-.26,3.24,0,6.56-.11,9.81h-4.7C225.72,58.9,225.68,55.65,225.73,52.4Z"/><path class="cls-1" d="M253.55,86.59V82.67h14.78c0,1.3,0,2.61,0,3.91Z"/><path class="cls-1" d="M245.58,71.82h23.79v4.71c-6.37,0-12.72,0-19.09,0,0,5.53,0,11.06,0,16.59,6.36,0,12.72,0,19.09,0v4.58H245.58Z"/><path class="cls-1" d="M254.6,47h16.73q0,7.57,0,15.16c-5.48,0-11,.06-16.46,0A12.74,12.74,0,0,1,244.16,56a14.2,14.2,0,0,1,0-14,12.54,12.54,0,0,1,10.69-5.66h14.78v4.57c-4.76,0-9.52,0-14.27,0a8.35,8.35,0,0,0-5.83,2.24c-3.41,3.18-3.17,9.39.33,12.42a8,8,0,0,0,5.52,1.94h11.11V50.91H254.6Z"/><path class="cls-1" d="M303.75,47q0,7.57,0,15.16c-5.32,0-10.64,0-16,0a13.11,13.11,0,0,1-8.58-3c-5-4.08-5.93-12.22-2.44-17.52a12.51,12.51,0,0,1,10.52-5.32h14.77v4.57c-4.76,0-9.51,0-14.27,0a8.21,8.21,0,0,0-5.85,2.22,8.63,8.63,0,0,0,.07,12.2,8,8,0,0,0,5.8,2.18h11.1c0-2.18,0-4.35,0-6.53h-12V47C292.5,47,298.13,47,303.75,47Z"/><path class="cls-1" d="M182.46,31c-10.94,4-21.87,8-32.8,12.06q-2.79,10.44-5.59,20.89C142.2,57,140.31,50,138.49,43q-16.46-6-32.9-12.1c-.11,16.59,0,33.18-.06,49.77,12.83,11.57,25.68,23.16,38.58,34.64,12.75-11.57,25.69-23,38.38-34.59C182.43,64.15,182.49,47.56,182.46,31Zm-3.71,47.79q-17.33,15.47-34.67,30.92-17.34-15.47-34.69-30.91,0-21.16,0-42.32c8.14,3,16.27,6.11,24.42,9.11.49.25,1.4.38,1.48,1,2.94,10.35,5.83,20.87,8.77,31.23C147.11,67.24,150,56.61,153,46c8.59-3.16,17.15-6.4,25.73-9.59Z"/><path class="cls-1" d="M182.46,31c-10.94,4-21.87,8-32.8,12.06q-2.79,10.44-5.59,20.89C142.2,57,140.31,50,138.49,43q-16.46-6-32.9-12.1c-.11,16.59,0,33.18-.06,49.77,12.83,11.57,25.68,23.16,38.58,34.64,12.75-11.57,25.69-23,38.38-34.59C182.43,64.15,182.49,47.56,182.46,31Zm-3.71,47.79q-17.33,15.47-34.67,30.92-17.34-15.47-34.69-30.91,0-21.16,0-42.32c8.14,3,16.27,6.11,24.42,9.11.49.25,1.4.38,1.48,1,2.94,10.35,5.83,20.87,8.77,31.23C147.11,67.24,150,56.61,153,46c8.59-3.16,17.15-6.4,25.73-9.59Z"/><path class="cls-1" d="M230.52,52.34c-.26,3.24,0,6.56-.11,9.81h-4.7c0-3.25,0-6.5,0-9.75-4.68-5.42-9.48-10.73-14.17-16.14,2.13,0,4.25,0,6.38,0,3.49,3.88,6.89,7.85,10.31,11.8,3.4-3.95,6.85-7.86,10.28-11.78,2,0,4.08,0,6.12,0C240,41.62,235.11,47,230.52,52.34Z"/><path class="cls-1" d="M271.33,47q0,7.57,0,15.16c-5.48,0-11,.06-16.46,0A12.74,12.74,0,0,1,244.16,56a14.2,14.2,0,0,1,0-14,12.54,12.54,0,0,1,10.69-5.66h14.78v4.57c-4.76,0-9.52,0-14.27,0a8.35,8.35,0,0,0-5.83,2.24c-3.41,3.18-3.17,9.39.33,12.42a8,8,0,0,0,5.52,1.94h11.11V50.91H254.6V47Z"/><path class="cls-1" d="M303.75,47q0,7.57,0,15.16c-5.32,0-10.64,0-16,0a13.11,13.11,0,0,1-8.58-3c-5-4.08-5.93-12.22-2.44-17.52a12.51,12.51,0,0,1,10.52-5.32h14.77v4.57c-4.76,0-9.51,0-14.27,0a8.21,8.21,0,0,0-5.85,2.22,8.63,8.63,0,0,0,.07,12.2,8,8,0,0,0,5.8,2.18h11.1c0-2.18,0-4.35,0-6.53h-12V47C292.5,47,298.13,47,303.75,47Z"/><path class="cls-1" d="M240,95.27a8.13,8.13,0,0,1-6,2.44H213.42V93.14c6.67,0,13.35,0,20,0a3.47,3.47,0,0,0,3.74-2.85,3.08,3.08,0,0,0-2.74-3.61c-4.51-.17-9.05,0-13.57-.09a8.8,8.8,0,0,1-5.11-1.63c-3.54-2.58-3.67-8.78-.13-11.4a10.18,10.18,0,0,1,6.27-1.71h18.45v4.71c-6.51,0-13,0-19.54,0a2.93,2.93,0,0,0-2.73,3.79c.29,1.65,1.74,2.3,3.28,2.31,4.47.08,8.94,0,13.41,0,2.73.2,5.32,1.32,6.37,4S241.92,93,240,95.27Z"/><path class="cls-1" d="M250.28,76.53c0,5.53,0,11.06,0,16.59,6.36,0,12.72,0,19.09,0v4.58H245.58V71.82h23.79v4.71C263,76.53,256.65,76.52,250.28,76.53Z"/><path class="cls-1" d="M306.62,97.43v.11a48.8,48.8,0,0,1-5.8.17c-1.31-2.12-2.64-4.23-3.9-6.38-4.23-.07-8.47,0-12.71,0,.74-1.23,1.49-2.46,2.18-3.72,2.72-.12,5.43,0,8.15-.07-1.91-3.12-3.78-6.28-5.77-9.36-4,6.51-7.95,13.06-11.94,19.57-1.82,0-3.64,0-5.46,0,4.86-7.94,9.81-15.83,14.67-23.77a6.87,6.87,0,0,1,1.72-2.07,3.93,3.93,0,0,1,2.62,0,46.39,46.39,0,0,1,3,4.49q5.4,8.7,10.8,17.42A27.13,27.13,0,0,0,306.62,97.43Z"/><path class="cls-1" d="M268.33,82.68c0,1.3,0,2.61,0,3.91H253.55V82.67Z"/></svg>