<svg id="Layer_1" data-name="Layer 1" xmlns="http://www.w3.org/2000/svg" viewBox="0 0 402 146"><defs><style>.cls-1{fill:#fff;}</style></defs><path class="cls-1" d="M138.41,79.24c-8.46-4.91-16.89-9.87-25.36-14.76,0-8.12,0-16.23,0-24.36a32,32,0,0,0-.16-5.18c-3.68-2.48-7.71-4.51-11.49-6.85-5.22-3-10.34-6.13-15.59-9-9.08,5.2-18.06,10.58-27.14,15.79,0,9.86,0,19.74,0,29.61-8.5,4.8-16.85,9.89-25.36,14.68q0,16,0,32c9,5.21,18.08,10.45,27,15.81,8.53-4.81,16.93-9.86,25.39-14.79l.09,0c8.4,4.91,16.83,9.8,25.2,14.75,9.11-5.28,18.18-10.61,27.29-15.88C138.48,100.46,138.46,89.84,138.41,79.24Zm-57.84.44a7.48,7.48,0,0,0,3.11,5.15q0,10.67,0,21.34l-.58-.06q-10.32-6-20.62-12c0-8.31,0-16.63,0-24.95C68.52,72.62,74.57,76.12,80.57,79.68ZM64.46,65.58c7.11-4.11,14.21-8.41,21.38-12.41a39.55,39.55,0,0,1,4.36,2.42l16.93,9.89c-5.71,3.46-11.49,6.88-17.34,10.1-1.21-.65-2.15-1.43-3.59-1.38s-2.92.88-4.29,1.54c-2.78-1.75-5.67-3.33-8.49-5C70.37,69.09,67.56,67.08,64.46,65.58ZM87.8,85.06a12.37,12.37,0,0,0,2.76-2.33,11.68,11.68,0,0,0,1.08-3.26c5.8-3.56,11.73-6.93,17.63-10.33,0,8.3,0,16.61,0,24.92q-10.73,6.28-21.47,12.53C87.85,99.41,87.74,92.24,87.8,85.06ZM62.53,37.2,81.06,26.38a39.54,39.54,0,0,1,4.64-2.56,12.24,12.24,0,0,1,3.7,1.77c6.46,4,13.21,7.61,19.66,11.58a38,38,0,0,1,.15,5.65c0,6.5,0,13,0,19.51Q97.58,55.47,85.87,48.7c-7.81,4.5-15.58,9.08-23.37,13.63C62.48,54,62.45,45.57,62.53,37.2ZM60.4,122.38c-7.69-4.7-15.57-9.08-23.28-13.73.07-9,0-18,0-27.06C44.29,77.34,51.49,73.16,58.69,69c0,9.08,0,18.16,0,27.25,7.8,4.54,15.58,9.14,23.42,13.64C74.83,114,67.73,118.4,60.4,122.38Zm74.1-13.58q-11.72,6.75-23.35,13.64c-7.11-4.27-14.35-8.34-21.49-12.57,7.85-4.48,15.62-9.09,23.42-13.64,0-9.07,0-18.14,0-27.2,7.18,4.07,14.23,8.38,21.43,12.43C134.56,90.57,134.56,99.7,134.5,108.8Z"/><path class="cls-1" d="M204.2,87.2c0,2.09,0,4.18,0,6.28H177.84a30.34,30.34,0,0,1,.13-5.14,29.38,29.38,0,0,1,2.07-2.9c4.55-5.92,9-12,13.51-17.86H178.22q-.08-3.19,0-6.39c8.46,0,16.94-.07,25.41,0a23.66,23.66,0,0,1-.16,5.06c-5,7-10.55,14-15.68,20.91C193.26,87.19,198.73,87.16,204.2,87.2Z"/><path class="cls-1" d="M225.41,74.75c4.31,6.24,8.81,12.38,13,18.7-3.05.06-6.11,0-9.16,0-3-4.47-6-8.87-9-13.31-1,1-2,2.08-3,3.15,0,3.4,0,6.79,0,10.18h-7.7q0-22.86,0-45.7h7.68c.06,8.5,0,17,0,25.49,3.42-4.13,7.07-8.07,10.62-12.1,3.14,0,6.28,0,9.41.08C233.49,65.87,229.31,70.2,225.41,74.75Z"/><path class="cls-1" d="M249.24,86.68a4.63,4.63,0,0,1-.06,5.95,5.16,5.16,0,0,1-6.54.17c-2.1-1.93-1.6-6,1.2-7.1C245.64,85.14,247.86,85.22,249.24,86.68Z"/><path class="cls-1" d="M286.14,87v6.46H258.69V50.21c2.68-.05,5.37-.05,8.05,0q0,18.4,0,36.82Z"/><path class="cls-1" d="M298.24,50.13a4.35,4.35,0,0,1,0,5.87,5.15,5.15,0,0,1-6.19.28c-2.16-1.71-1.86-5.73.75-6.87A5.24,5.24,0,0,1,298.24,50.13Z"/><path class="cls-1" d="M298.89,61.21c.05,10.76,0,21.51,0,32.26q-3.93,0-7.84,0c0-10.71-.12-21.5.08-32.21C293.71,61.06,296.31,61.21,298.89,61.21Z"/><path class="cls-1" d="M333,71.92q0,10.78,0,21.56c-2.59,0-5.2,0-7.79,0,0-6.64,0-13.29,0-19.93-.09-1.81,0-3.93-1.47-5.26-3.11-2.56-9-.87-9.91,3.16-.13,7.33,0,14.7-.07,22H306.1q0-16.16,0-32.29,3.64,0,7.29,0c.08,1.1.15,2.2.23,3.3a11.78,11.78,0,0,1,6.2-3.63c3.32-.63,7.64-.23,10.16,2.27C332.35,65.52,333,68.66,333,71.92Z"/><path class="cls-1" d="M368.62,93.46c-3,0-6.07,0-9.11,0-3.05-4.42-6.05-8.89-9.09-13.32a17.34,17.34,0,0,0-2.81,3.07c-.25,3.39,0,6.83-.1,10.24-2.62,0-5.25,0-7.87,0,0-15.2-.08-30.44,0-45.64,2.6-.12,5.21-.06,7.8,0,.08,8.46,0,16.92,0,25.38,3.36-4.11,7-8,10.51-12,3.13,0,6.26-.05,9.39.06-3.76,4.65-7.92,9-11.86,13.47C359.86,81,364.37,87.14,368.62,93.46Z"/><path class="cls-1" d="M113.09,40.12c0,8.13,0,16.24,0,24.36-1.29-.69-2.57-1.4-3.83-2.15,0-6.51,0-13,0-19.51a38,38,0,0,0-.15-5.65c-6.45-4-13.2-7.62-19.66-11.58a12.24,12.24,0,0,0-3.7-1.77,39.54,39.54,0,0,0-4.64,2.56L62.53,37.2c-.08,8.37-.05,16.75,0,25.13-1.24.73-2.5,1.44-3.76,2.13-.06-9.87,0-19.75,0-29.61,9.08-5.21,18.06-10.59,27.14-15.79,5.25,2.9,10.37,6.07,15.59,9,3.78,2.34,7.81,4.37,11.49,6.85A32,32,0,0,1,113.09,40.12Z"/><path class="cls-1" d="M238.43,93.45c-3.05.06-6.11,0-9.16,0-3-4.47-6-8.87-9-13.31-1,1-2,2.08-3,3.15,0,3.4,0,6.79,0,10.18h-7.7q0-22.86,0-45.7h7.68c.06,8.5,0,17,0,25.49,3.42-4.13,7.07-8.07,10.62-12.1,3.14,0,6.28,0,9.41.08-3.81,4.63-8,9-11.89,13.51C229.72,81,234.22,87.13,238.43,93.45Z"/><path class="cls-1" d="M368.62,93.46c-3,0-6.07,0-9.11,0-3.05-4.42-6.05-8.89-9.09-13.32a17.34,17.34,0,0,0-2.81,3.07c-.25,3.39,0,6.83-.1,10.24-2.62,0-5.25,0-7.87,0,0-15.2-.08-30.44,0-45.64,2.6-.12,5.21-.06,7.8,0,.08,8.46,0,16.92,0,25.38,3.36-4.11,7-8,10.51-12,3.13,0,6.26-.05,9.39.06-3.76,4.65-7.92,9-11.86,13.47C359.86,81,364.37,87.14,368.62,93.46Z"/><path class="cls-1" d="M113.07,69c0-1.52,0-3,0-4.55-1.29-.69-2.57-1.4-3.83-2.15Q97.58,55.47,85.87,48.7c-7.81,4.5-15.58,9.08-23.37,13.63-1.24.73-2.5,1.44-3.76,2.13,0,1.51,0,3-.05,4.54,0,9.08,0,18.16,0,27.25,7.8,4.54,15.58,9.14,23.42,13.64,1.27.7,2.47,1.52,3.72,2.26l.09,0c1.25-.79,2.46-1.6,3.75-2.32,7.85-4.48,15.62-9.09,23.42-13.64C113,87.16,113.07,78.09,113.07,69ZM85.84,53.17a39.55,39.55,0,0,1,4.36,2.42l16.93,9.89c-5.71,3.46-11.49,6.88-17.34,10.1-1.21-.65-2.15-1.43-3.59-1.38s-2.92.88-4.29,1.54c-2.78-1.75-5.67-3.33-8.49-5-3-1.62-5.86-3.63-9-5.13C71.57,61.47,78.67,57.17,85.84,53.17ZM62.48,94.07c0-8.31,0-16.63,0-24.95,6,3.5,12.08,7,18.08,10.56a7.48,7.48,0,0,0,3.11,5.15q0,10.67,0,21.34l-.58-.06Q72.78,100.11,62.48,94.07Zm25.33,12.52c0-7.18-.07-14.35,0-21.53a12.37,12.37,0,0,0,2.76-2.33,11.68,11.68,0,0,0,1.08-3.26c5.8-3.56,11.73-6.93,17.63-10.33,0,8.3,0,16.61,0,24.92Q98.56,100.35,87.81,106.59Z"/><path class="cls-1" d="M298.26,56a5.15,5.15,0,0,1-6.19.28c-2.16-1.71-1.86-5.73.75-6.87a5.24,5.24,0,0,1,5.42.72A4.35,4.35,0,0,1,298.26,56Z"/><path class="cls-1" d="M286.14,93.48H258.69V50.21c2.68-.05,5.37-.05,8.05,0q0,18.4,0,36.82h19.4Z"/><path class="cls-1" d="M333,93.48c-2.59,0-5.2,0-7.79,0,0-6.64,0-13.29,0-19.93-.09-1.81,0-3.93-1.47-5.26-3.11-2.56-9-.87-9.91,3.16-.13,7.33,0,14.7-.07,22H306.1q0-16.16,0-32.29,3.64,0,7.29,0c.08,1.1.15,2.2.23,3.3a11.78,11.78,0,0,1,6.2-3.63c3.32-.63,7.64-.23,10.16,2.27,2.37,2.38,3,5.52,3,8.78Q333,82.71,333,93.48Z"/><path class="cls-1" d="M204.23,93.48H177.84a30.34,30.34,0,0,1,.13-5.14,29.38,29.38,0,0,1,2.07-2.9c4.55-5.92,9-12,13.51-17.86H178.22q-.08-3.19,0-6.39c8.46,0,16.94-.07,25.41,0a23.66,23.66,0,0,1-.16,5.06c-5,7-10.55,14-15.68,20.91,5.47,0,10.94,0,16.41,0C204.23,89.29,204.23,91.38,204.23,93.48Z"/><path class="cls-1" d="M298.91,93.47q-3.93,0-7.84,0c0-10.71-.12-21.5.08-32.21,2.56-.2,5.16,0,7.74,0C298.94,72,298.91,82.72,298.91,93.47Z"/><path class="cls-1" d="M85.82,112.15c-8.46,4.93-16.86,10-25.39,14.79-9-5.36-18-10.6-27-15.81q0-16,0-32c8.51-4.79,16.86-9.88,25.36-14.68,0,1.51,0,3-.05,4.54-7.2,4.16-14.4,8.34-21.54,12.59,0,9,0,18,0,27.06,7.71,4.65,15.59,9,23.28,13.73,7.33-4,14.43-8.4,21.7-12.49C83.37,110.59,84.57,111.41,85.82,112.15Z"/><path class="cls-1" d="M138.4,111.06c-9.11,5.27-18.18,10.6-27.29,15.88-8.37-5-16.8-9.84-25.2-14.75,1.25-.79,2.46-1.6,3.75-2.32,7.14,4.23,14.38,8.3,21.49,12.57q11.61-6.9,23.35-13.64c.06-9.1.06-18.23,0-27.34-7.2-4-14.25-8.36-21.43-12.43,0-1.52,0-3,0-4.55,8.47,4.89,16.9,9.85,25.36,14.76C138.46,89.84,138.48,100.46,138.4,111.06Z"/><path class="cls-1" d="M109.27,69.14c-5.9,3.4-11.83,6.77-17.63,10.33a11.68,11.68,0,0,1-1.08,3.26,12.37,12.37,0,0,1-2.76,2.33c-.06,7.18,0,14.35,0,21.53l-2,1.15c-.9-.55-1.79-1.1-2.7-1.63l.58.06q0-10.67,0-21.34a7.48,7.48,0,0,1-3.11-5.15c-6-3.56-12-7.06-18.08-10.56l0-2.44,1.94-1.1c3.1,1.5,5.91,3.51,9,5.13,2.82,1.7,5.71,3.28,8.49,5,1.37-.66,2.72-1.61,4.29-1.54s2.38.73,3.59,1.38c5.85-3.22,11.63-6.64,17.34-10.1l2.13,1.22C109.26,67.51,109.27,68.32,109.27,69.14Z"/><path class="cls-1" d="M249.18,92.63a5.16,5.16,0,0,1-6.54.17c-2.1-1.93-1.6-6,1.2-7.1,1.8-.56,4-.48,5.4,1A4.63,4.63,0,0,1,249.18,92.63Z"/></svg>